<svg xmlns="http://www.w3.org/2000/svg" xmlns:xlink="http://www.w3.org/1999/xlink" viewBox="0 0 2475 1650"><defs><style>.cls-1{fill:#e9effe;}.cls-2{fill:#bdd0fb;}.cls-3{opacity:0.54;}.cls-4{opacity:0.8;}.cls-5{fill:#91b3fa;}.cls-6,.cls-70{fill:#fff;}.cls-6{opacity:0.5;}.cls-7{fill:#dce5fe;}.cls-8{fill:#7d97f4;}.cls-9{fill:url(#linear-gradient);}.cls-10{fill:url(#linear-gradient-2);}.cls-11{fill:url(#linear-gradient-3);}.cls-12{fill:url(#linear-gradient-4);}.cls-13{fill:url(#linear-gradient-5);}.cls-14{fill:url(#linear-gradient-6);}.cls-15{fill:url(#linear-gradient-7);}.cls-16{fill:url(#linear-gradient-8);}.cls-17{fill:url(#linear-gradient-9);}.cls-18{fill:url(#linear-gradient-10);}.cls-19{fill:url(#linear-gradient-11);}.cls-20{fill:url(#linear-gradient-12);}.cls-21{fill:url(#linear-gradient-13);}.cls-22{fill:url(#linear-gradient-14);}.cls-23{fill:url(#linear-gradient-15);}.cls-24{fill:url(#linear-gradient-16);}.cls-25{fill:url(#linear-gradient-17);}.cls-26{fill:url(#linear-gradient-18);}.cls-27{fill:url(#linear-gradient-19);}.cls-28{fill:url(#linear-gradient-20);}.cls-29{fill:url(#linear-gradient-21);}.cls-30{fill:url(#linear-gradient-22);}.cls-31{fill:url(#linear-gradient-23);}.cls-32{fill:url(#linear-gradient-24);}.cls-33{fill:url(#linear-gradient-25);}.cls-34{fill:url(#linear-gradient-26);}.cls-35{fill:url(#linear-gradient-27);}.cls-36{fill:url(#linear-gradient-28);}.cls-37{fill:url(#linear-gradient-29);}.cls-38{fill:url(#linear-gradient-30);}.cls-39{fill:url(#linear-gradient-31);}.cls-40{fill:url(#linear-gradient-32);}.cls-41{fill:url(#linear-gradient-33);}.cls-42{fill:#56f;}.cls-43{fill:url(#linear-gradient-34);}.cls-44{fill:url(#linear-gradient-35);}.cls-45{fill:url(#linear-gradient-36);}.cls-46{fill:url(#linear-gradient-37);}.cls-47{fill:url(#linear-gradient-38);}.cls-48{fill:url(#linear-gradient-39);}.cls-49{fill:url(#linear-gradient-40);}.cls-50{fill:url(#linear-gradient-41);}.cls-51{fill:url(#linear-gradient-42);}.cls-52{fill:url(#linear-gradient-43);}.cls-53{fill:url(#linear-gradient-44);}.cls-54{fill:url(#linear-gradient-45);}.cls-55{fill:url(#linear-gradient-46);}.cls-56{fill:url(#linear-gradient-47);}.cls-57{fill:url(#linear-gradient-48);}.cls-58{fill:url(#linear-gradient-49);}.cls-59{fill:url(#linear-gradient-50);}.cls-60{fill:url(#linear-gradient-51);}.cls-61{fill:url(#linear-gradient-52);}.cls-62{fill:url(#linear-gradient-53);}.cls-63{fill:url(#linear-gradient-54);}.cls-64{fill:url(#linear-gradient-55);}.cls-65{fill:url(#linear-gradient-56);}.cls-66{fill:url(#linear-gradient-57);}.cls-67{fill:url(#linear-gradient-58);}.cls-68{fill:url(#linear-gradient-59);}.cls-69{fill:url(#linear-gradient-60);}.cls-71{fill:url(#linear-gradient-61);}.cls-72{fill:url(#linear-gradient-62);}.cls-73{fill:url(#linear-gradient-63);}.cls-74{fill:url(#linear-gradient-64);}.cls-75{fill:url(#linear-gradient-65);}</style><linearGradient id="linear-gradient" x1="1642.56" y1="1254.46" x2="2017.27" y2="381.17" gradientUnits="userSpaceOnUse"><stop offset="0" stop-color="#fe7062"/><stop offset="1" stop-color="#ff928e"/></linearGradient><linearGradient id="linear-gradient-2" x1="1327.99" y1="836.94" x2="1485.93" y2="1341.71" xlink:href="#linear-gradient"/><linearGradient id="linear-gradient-3" x1="958.02" y1="1317.27" x2="1227.44" y2="889.92" xlink:href="#linear-gradient"/><linearGradient id="linear-gradient-4" x1="607.24" y1="1002.79" x2="802.33" y2="1374.4" xlink:href="#linear-gradient"/><linearGradient id="linear-gradient-5" x1="2014.91" y1="468.69" x2="2023.69" y2="468.69" gradientUnits="userSpaceOnUse"><stop offset="0" stop-color="#ff928e"/><stop offset="1" stop-color="#feb3b1"/></linearGradient><linearGradient id="linear-gradient-6" x1="1747.76" y1="539.82" x2="2033.24" y2="539.82" xlink:href="#linear-gradient-5"/><linearGradient id="linear-gradient-7" x1="1148.24" y1="967.13" x2="1328.18" y2="967.13" xlink:href="#linear-gradient-5"/><linearGradient id="linear-gradient-8" x1="1112.72" y1="1119.23" x2="1128.16" y2="1119.23" xlink:href="#linear-gradient-5"/><linearGradient id="linear-gradient-9" x1="1515.73" y1="426.74" x2="1500.76" y2="525.5" gradientUnits="userSpaceOnUse"><stop offset="0" stop-color="#4042e2"/><stop offset="1" stop-color="#4f52ff"/></linearGradient><linearGradient id="linear-gradient-10" x1="1521.61" y1="206.48" x2="1499.55" y2="392.28" xlink:href="#linear-gradient-5"/><linearGradient id="linear-gradient-11" x1="1102.56" y1="1250.37" x2="1119.18" y2="1250.37" gradientUnits="userSpaceOnUse"><stop offset="0" stop-color="#cb236d"/><stop offset="1" stop-color="#4c246d"/></linearGradient><linearGradient id="linear-gradient-12" x1="1106.85" y1="1245.8" x2="1156.09" y2="1245.8" gradientUnits="userSpaceOnUse"><stop offset="0" stop-color="#09005d"/><stop offset="1" stop-color="#1a0f91"/></linearGradient><linearGradient id="linear-gradient-13" x1="1288.96" y1="1103.67" x2="1320.49" y2="1103.67" gradientUnits="userSpaceOnUse"><stop offset="0" stop-color="#53d8ff"/><stop offset="1" stop-color="#3840f7"/></linearGradient><linearGradient id="linear-gradient-14" x1="1293.7" y1="1101.46" x2="1355.16" y2="1101.46" xlink:href="#linear-gradient-12"/><linearGradient id="linear-gradient-15" x1="1134.68" y1="1195.41" x2="1179.29" y2="1195.41" xlink:href="#linear-gradient-5"/><linearGradient id="linear-gradient-16" x1="1333.81" y1="1055.49" x2="1378.84" y2="1055.49" xlink:href="#linear-gradient-5"/><linearGradient id="linear-gradient-17" x1="1580.64" y1="752.93" x2="1289.25" y2="1034.76" xlink:href="#linear-gradient-12"/><linearGradient id="linear-gradient-18" x1="1427.91" y1="950.62" x2="1380.94" y2="991.23" xlink:href="#linear-gradient-12"/><linearGradient id="linear-gradient-19" x1="1373.23" y1="953.27" x2="1348.01" y2="989.36" xlink:href="#linear-gradient-12"/><linearGradient id="linear-gradient-20" x1="1169.95" y1="1049.38" x2="1359.72" y2="1049.38" gradientUnits="userSpaceOnUse"><stop offset="0" stop-color="#a22b25"/><stop offset="1" stop-color="#c0423c"/></linearGradient><linearGradient id="linear-gradient-21" x1="1174.47" y1="1047.76" x2="1353.14" y2="1047.76" xlink:href="#linear-gradient"/><linearGradient id="linear-gradient-22" x1="1723.63" y1="447.92" x2="1722.57" y2="422.28" gradientTransform="translate(-138.46 -134.21) rotate(23.84)" xlink:href="#linear-gradient-9"/><linearGradient id="linear-gradient-23" x1="1722.29" y1="409.43" x2="1727.57" y2="482.9" gradientTransform="translate(-138.46 -134.21) rotate(23.84)" xlink:href="#linear-gradient-9"/><linearGradient id="linear-gradient-24" x1="1795.05" y1="444.98" x2="1793.99" y2="419.34" gradientTransform="translate(-138.46 -134.21) rotate(23.84)" xlink:href="#linear-gradient-9"/><linearGradient id="linear-gradient-25" x1="1793.52" y1="404.31" x2="1798.81" y2="477.78" gradientTransform="translate(-138.46 -134.21) rotate(23.84)" xlink:href="#linear-gradient-9"/><linearGradient id="linear-gradient-26" x1="1764.18" y1="368.53" x2="1757.05" y2="420.86" gradientTransform="translate(-138.46 -134.21) rotate(23.84)" xlink:href="#linear-gradient-20"/><linearGradient id="linear-gradient-27" x1="1187.57" y1="1002.72" x2="1373.93" y2="1002.72" xlink:href="#linear-gradient-20"/><linearGradient id="linear-gradient-28" x1="1196.74" y1="1003.29" x2="1368.41" y2="1003.29" xlink:href="#linear-gradient"/><linearGradient id="linear-gradient-29" x1="1768.23" y1="439.42" x2="1757.92" y2="521.09" gradientTransform="translate(-138.46 -134.21) rotate(23.84)" xlink:href="#linear-gradient"/><linearGradient id="linear-gradient-30" x1="1278.8" y1="1018.72" x2="1236.22" y2="1096.14" xlink:href="#linear-gradient"/><linearGradient id="linear-gradient-31" x1="1629.68" y1="524.98" x2="1765.84" y2="524.98" xlink:href="#linear-gradient-5"/><linearGradient id="linear-gradient-32" x1="1563.12" y1="649.25" x2="1795.38" y2="403.05" xlink:href="#linear-gradient-9"/><linearGradient id="linear-gradient-33" x1="1163.14" y1="1005.33" x2="1441.85" y2="784.68" xlink:href="#linear-gradient-9"/><linearGradient id="linear-gradient-34" x1="1281.15" y1="911.46" x2="1375.41" y2="911.46" xlink:href="#linear-gradient-5"/><linearGradient id="linear-gradient-35" x1="1040.63" y1="882.19" x2="1346.44" y2="728.64" xlink:href="#linear-gradient-20"/><linearGradient id="linear-gradient-36" x1="1194.94" y1="818.42" x2="1249.35" y2="818.42" gradientUnits="userSpaceOnUse"><stop offset="0" stop-color="#e1473d"/><stop offset="1" stop-color="#e9605a"/></linearGradient><linearGradient id="linear-gradient-37" x1="1536.4" y1="-280.14" x2="1592.49" y2="-337.69" gradientTransform="translate(-79.57 521.81) rotate(15.65)" xlink:href="#linear-gradient-5"/><linearGradient id="linear-gradient-38" x1="552.38" y1="631.62" x2="481.36" y2="725.57" gradientTransform="translate(687.01 544.78) rotate(-46.73)" xlink:href="#linear-gradient-5"/><linearGradient id="linear-gradient-39" x1="498.14" y1="654.18" x2="582.97" y2="654.18" gradientTransform="translate(687.01 544.78) rotate(-46.73)" gradientUnits="userSpaceOnUse"><stop offset="0" stop-color="#020039"/><stop offset="1" stop-color="#090056"/></linearGradient><linearGradient id="linear-gradient-40" x1="448.36" y1="706.02" x2="505.32" y2="647.58" gradientTransform="translate(687.01 544.78) rotate(-46.73)" xlink:href="#linear-gradient-5"/><linearGradient id="linear-gradient-41" x1="1743.25" y1="480.73" x2="1760.79" y2="480.73" xlink:href="#linear-gradient-5"/><linearGradient id="linear-gradient-42" x1="626.5" y1="1462.67" x2="737.73" y2="1462.67" xlink:href="#linear-gradient-12"/><linearGradient id="linear-gradient-43" x1="712.2" y1="1248.78" x2="681.81" y2="1458.76" xlink:href="#linear-gradient-12"/><linearGradient id="linear-gradient-44" x1="632.05" y1="1429.15" x2="662.15" y2="1429.15" xlink:href="#linear-gradient-5"/><linearGradient id="linear-gradient-45" x1="800.96" y1="1440.63" x2="890.78" y2="1440.63" xlink:href="#linear-gradient-12"/><linearGradient id="linear-gradient-46" x1="862.74" y1="1270.57" x2="832.35" y2="1480.55" xlink:href="#linear-gradient-12"/><linearGradient id="linear-gradient-47" x1="465.63" y1="1293.34" x2="703.88" y2="1293.34" xlink:href="#linear-gradient-12"/><linearGradient id="linear-gradient-48" x1="774.61" y1="1431.68" x2="810.54" y2="1431.68" xlink:href="#linear-gradient-5"/><linearGradient id="linear-gradient-49" x1="682.05" y1="1194.08" x2="420.49" y2="1490.64" xlink:href="#linear-gradient-12"/><linearGradient id="linear-gradient-50" x1="547.18" y1="899.99" x2="636.73" y2="899.99" xlink:href="#linear-gradient-5"/><linearGradient id="linear-gradient-51" x1="395.22" y1="1036.01" x2="737.44" y2="1036.01" xlink:href="#linear-gradient-9"/><linearGradient id="linear-gradient-52" x1="726.36" y1="1099.08" x2="809.36" y2="1099.08" xlink:href="#linear-gradient-5"/><linearGradient id="linear-gradient-53" x1="305.85" y1="2491.07" x2="225.08" y2="2597.92" gradientTransform="translate(1.66 -1579.8) rotate(-8.21)" xlink:href="#linear-gradient-5"/><linearGradient id="linear-gradient-54" x1="244.16" y1="2516.84" x2="340.65" y2="2516.84" gradientTransform="translate(1.66 -1579.8) rotate(-8.21)" xlink:href="#linear-gradient-39"/><linearGradient id="linear-gradient-55" x1="187.55" y1="2575.69" x2="252.34" y2="2509.22" gradientTransform="translate(1.66 -1579.8) rotate(-8.21)" xlink:href="#linear-gradient-5"/><linearGradient id="linear-gradient-56" x1="894.17" y1="796.83" x2="821" y2="1001.22" xlink:href="#linear-gradient-12"/><linearGradient id="linear-gradient-57" x1="5638.64" y1="-11977.64" x2="5416.68" y2="-11763.05" gradientTransform="matrix(0.65, -1.23, -1.23, -0.65, 7293.9, -7927.84)" xlink:href="#linear-gradient-12"/><linearGradient id="linear-gradient-58" x1="785.33" y1="1114.29" x2="754.77" y2="1340.21" gradientTransform="matrix(1, 0, 0, 1, 0, 0)" xlink:href="#linear-gradient-39"/><linearGradient id="linear-gradient-59" x1="-852.53" y1="-4243.22" x2="-836.75" y2="-4398.83" gradientTransform="matrix(-0.33, -0.94, -0.94, 0.33, -3684.26, 1056.31)" gradientUnits="userSpaceOnUse"><stop offset="0" stop-color="#ff928e"/><stop offset="1" stop-color="#fe7062"/></linearGradient><linearGradient id="linear-gradient-60" x1="-987.09" y1="-4332.49" x2="-927.32" y2="-4454.28" gradientTransform="matrix(-0.33, -0.94, -0.94, 0.33, -3684.26, 1056.31)" gradientUnits="userSpaceOnUse"><stop offset="0" stop-color="#feb3b1"/><stop offset="1" stop-color="#ff928e"/></linearGradient><linearGradient id="linear-gradient-61" x1="-674.87" y1="-4326.8" x2="-767.89" y2="-4484.1" xlink:href="#linear-gradient-60"/><linearGradient id="linear-gradient-62" x1="-3134.97" y1="-1328.54" x2="-3065.4" y2="-627.93" gradientTransform="matrix(-0.89, -0.46, -0.46, 0.89, -2462.13, -12.47)" gradientUnits="userSpaceOnUse"><stop offset="0" stop-color="#4f52ff"/><stop offset="1" stop-color="#4042e2"/></linearGradient><linearGradient id="linear-gradient-63" x1="-791.97" y1="-4768.13" x2="-918.27" y2="-4585.45" xlink:href="#linear-gradient-60"/><linearGradient id="linear-gradient-64" x1="-3575.48" y1="-457.91" x2="-3338.89" y2="-477.15" gradientTransform="matrix(-0.79, -0.61, -0.61, 0.79, -1957.06, -1305.6)" xlink:href="#linear-gradient-62"/><linearGradient id="linear-gradient-65" x1="-3570.36" y1="-394.98" x2="-3333.77" y2="-414.21" gradientTransform="matrix(-0.79, -0.61, -0.61, 0.79, -1951.58, -1274.22)" xlink:href="#linear-gradient-62"/></defs><title>Artboard 15</title><g id="Illustration"><path class="cls-1" d="M1461.55,266.45c-23.26,44.07,44.2,118.77,178.31,267.27,157.85,174.8,357.05,395.38,484.28,343.3,93.64-38.33,135.68-219.23,92.4-350.3C2113.42,214.47,1517.77,159.94,1461.55,266.45Z"/><path class="cls-1" d="M2196.33,1267.15c-9.58,136.68-626.48,208.19-1103.28,191.47-396.88-13.91-598.2-24-738.91-180C176.42,1081.73,149,734.11,308.55,504.29c216.74-312.18,681.38-264.76,929.52-170.91,27.77,10.5,50.16,20.48,71.79,33.44,385.53,231.06,386.91,474,785.47,793.45C2164.93,1216.05,2198.62,1234.47,2196.33,1267.15Z"/><path class="cls-2" d="M961.15,946.82a1.92,1.92,0,0,1-1.33-.07l-4.41-1.9a1.92,1.92,0,0,1,1.52-3.52l4.4,1.89a1.92,1.92,0,0,1-.18,3.6Zm-16.71-7.31a1.89,1.89,0,0,1-1.36-.08c-1.75-.78-3.51-1.57-5.26-2.37a1.92,1.92,0,1,1,1.58-3.49l5.25,2.36a1.92,1.92,0,0,1,1,2.53A1.94,1.94,0,0,1,944.44,939.51Zm-17.46-8a1.92,1.92,0,0,1-1.39-.09L920.37,929a1.92,1.92,0,1,1,1.65-3.47c1.73.83,3.46,1.64,5.2,2.45a1.91,1.91,0,0,1,.92,2.55A1.86,1.86,0,0,1,927,931.53Zm-17.31-8.29a1.91,1.91,0,0,1-1.42-.11l-5.17-2.56a1.92,1.92,0,1,1,1.71-3.43l5.15,2.55a1.92,1.92,0,0,1-.27,3.55Zm-17.13-8.63a2,2,0,0,1-1.46-.13L886,911.82a1.92,1.92,0,0,1,1.78-3.4l5.1,2.65a1.93,1.93,0,0,1,.82,2.59A2,2,0,0,1,892.54,914.61Zm-16.94-9a1.91,1.91,0,0,1-1.49-.15l-5.05-2.77a1.92,1.92,0,0,1,1.86-3.36q2.51,1.39,5,2.77a1.92,1.92,0,0,1-.35,3.51Zm-16.71-9.39a1.91,1.91,0,0,1-1.54-.17l-5-2.9a1.92,1.92,0,0,1,1.94-3.31l4.95,2.89a1.92,1.92,0,0,1,.7,2.62A1.88,1.88,0,0,1,858.89,896.22Zm-16.46-9.81a1.91,1.91,0,0,1-1.59-.2q-2.45-1.5-4.89-3a1.92,1.92,0,1,1,2-3.25l4.86,3a1.92,1.92,0,0,1-.42,3.46Zm-16.18-10.27a1.9,1.9,0,0,1-1.63-.23q-2.42-1.57-4.8-3.18a1.92,1.92,0,1,1,2.14-3.18q2.37,1.59,4.76,3.16a1.91,1.91,0,0,1-.47,3.43Zm-15.84-10.77a1.88,1.88,0,0,1-1.68-.26c-1.58-1.1-3.14-2.22-4.7-3.34a1.92,1.92,0,0,1,2.25-3.11q2.31,1.67,4.65,3.32a1.91,1.91,0,0,1-.52,3.39Zm-15.47-11.29a1.9,1.9,0,0,1-1.73-.3q-2.31-1.75-4.58-3.52a1.92,1.92,0,0,1,2.35-3c1.51,1.17,3,2.33,4.55,3.49a1.92,1.92,0,0,1-.59,3.36Zm-15-11.9a1.91,1.91,0,0,1-1.8-.35c-1.49-1.22-3-2.46-4.43-3.7a1.92,1.92,0,1,1,2.47-2.93c1.46,1.23,2.92,2.46,4.4,3.67a1.91,1.91,0,0,1,.26,2.7A1.89,1.89,0,0,1,779.9,842.18Zm-14.53-12.51a1.93,1.93,0,0,1-1.86-.41q-2.16-1.93-4.27-3.9a1.92,1.92,0,0,1,2.61-2.81q2.08,1.94,4.22,3.86a1.92,1.92,0,0,1-.7,3.26Zm-13.93-13.18a1.93,1.93,0,0,1-1.93-.47q-2.06-2.06-4.07-4.11a1.92,1.92,0,1,1,2.75-2.68q2,2,4,4.07a1.9,1.9,0,0,1,0,2.71A1.88,1.88,0,0,1,751.44,816.49ZM738.21,802.6a1.91,1.91,0,0,1-2-.55q-1.94-2.14-3.84-4.33a1.92,1.92,0,0,1,2.89-2.52c1.26,1.44,2.52,2.87,3.8,4.29a1.92,1.92,0,0,1-.14,2.71A1.86,1.86,0,0,1,738.21,802.6ZM725.79,788a1.94,1.94,0,0,1-2.08-.63q-1.8-2.26-3.57-4.56a1.92,1.92,0,0,1,3-2.34q1.74,2.26,3.53,4.5a1.92,1.92,0,0,1-.3,2.7A2,2,0,0,1,725.79,788Zm-11.47-15.37a1.92,1.92,0,0,1-2.15-.74c-.82-1.19-1.64-2.39-2.44-3.59q-1.68.69-3.36,1.35a1.92,1.92,0,1,1-1.39-3.58q2.64-1,5.25-2.15a1.93,1.93,0,0,1,2.64,2.17q1.21,1.81,2.46,3.62a1.91,1.91,0,0,1-.49,2.66A1.81,1.81,0,0,1,714.32,772.62ZM693.53,774l0,0q-2.81.79-5.64,1.48a1.92,1.92,0,0,1-.9-3.73q2.76-.66,5.49-1.44a1.92,1.92,0,0,1,1.1,3.67Zm-18.75,3.95-.32.07c-1.93.26-3.88.48-5.8.66a1.92,1.92,0,0,1-2.08-1.74,1.9,1.9,0,0,1,1.73-2.08q2.84-.27,5.64-.64a1.92,1.92,0,0,1,.83,3.73Zm48.86-16.26a1.92,1.92,0,0,1-1.48-3.52q2.51-1.35,5-2.78a1.92,1.92,0,1,1,1.93,3.31c-1.67,1-3.37,1.93-5.07,2.85Zm-68,17.4a2,2,0,0,1-.61.09l-1.32,0c-1.51,0-3-.11-4.52-.21a1.92,1.92,0,1,1,.25-3.83c1.46.1,2.91.16,4.38.2l1.28,0a1.92,1.92,0,0,1,.54,3.75ZM740,751.63a1.92,1.92,0,0,1-1.67-3.41c1.56-1.07,3.1-2.18,4.63-3.31a1.92,1.92,0,0,1,2.28,3.09c-1.56,1.15-3.13,2.28-4.73,3.38A1.73,1.73,0,0,1,740,751.63Zm-36,4.81a1.93,1.93,0,0,1-2.24-.87c-1-1.68-1.92-3.36-2.84-5.06a1.92,1.92,0,0,1,3.37-1.84q1.36,2.51,2.79,5a1.92,1.92,0,0,1-.7,2.62A1.84,1.84,0,0,1,704,756.44Zm51.12-16.53a1.92,1.92,0,0,1-1.83-3.28c1.44-1.24,2.87-2.5,4.27-3.78a1.92,1.92,0,1,1,2.58,2.84c-1.43,1.3-2.88,2.59-4.35,3.85A1.85,1.85,0,0,1,755.16,739.91ZM636.59,777.2a2,2,0,0,1-.91.06c-1.9-.34-3.83-.73-5.71-1.16a1.92,1.92,0,1,1,.84-3.74c1.84.42,3.7.79,5.55,1.12a1.92,1.92,0,0,1,.23,3.72Zm132.48-50.49a1.92,1.92,0,0,1-2-3.15c1.32-1.37,2.61-2.77,3.88-4.18a1.92,1.92,0,0,1,2.85,2.57c-1.3,1.44-2.61,2.86-4,4.26A1.87,1.87,0,0,1,769.07,726.71Zm-151,45.69a1.94,1.94,0,0,1-1.19,0c-1.83-.63-3.67-1.3-5.48-2a1.92,1.92,0,1,1,1.4-3.57q2.64,1,5.32,2a1.91,1.91,0,0,1,1.19,2.43A1.87,1.87,0,0,1,618.06,772.4Zm77.12-33a1.91,1.91,0,0,1-2.31-1q-1.22-2.64-2.36-5.32a1.91,1.91,0,0,1,1-2.51,1.89,1.89,0,0,1,2.51,1c.75,1.75,1.52,3.48,2.31,5.21a1.9,1.9,0,0,1-.93,2.54Zm86.44-27.21a1.94,1.94,0,0,1-1.76-.32,1.91,1.91,0,0,1-.33-2.69q1.77-2.25,3.45-4.54a1.92,1.92,0,0,1,3.09,2.28c-1.15,1.55-2.32,3.1-3.52,4.62A1.91,1.91,0,0,1,781.62,712.22Zm-181.19,52.7a1.89,1.89,0,0,1-1.45-.12c-1.73-.88-3.45-1.8-5.14-2.76a1.92,1.92,0,1,1,1.88-3.34q2.47,1.39,5,2.68a1.92,1.92,0,0,1-.29,3.54ZM792.7,696.57a1.9,1.9,0,0,1-1.6-.21,1.92,1.92,0,0,1-.6-2.65q1.53-2.4,3-4.85a1.92,1.92,0,1,1,3.3,1.95q-1.49,2.51-3,5A1.87,1.87,0,0,1,792.7,696.57ZM584,755.08a1.9,1.9,0,0,1-1.67-.25q-2.38-1.65-4.73-3.4a1.92,1.92,0,0,1,2.29-3.07c1.52,1.14,3.06,2.24,4.62,3.32a1.9,1.9,0,0,1,.49,2.66A1.87,1.87,0,0,1,584,755.08Zm104.09-33.44a1.92,1.92,0,0,1-2.39-1.21c-.43-1.25-.84-2.5-1.23-3.76-.19-.59-.37-1.19-.55-1.78a1.92,1.92,0,0,1,1.25-2.39h0a1.93,1.93,0,0,1,2.39,1.28c.17.59.35,1.17.54,1.75.38,1.23.78,2.45,1.2,3.67a1.92,1.92,0,0,1-1.2,2.43Zm114-41.82a1.9,1.9,0,0,1-1.4-.1,1.92,1.92,0,0,1-.91-2.56q1.21-2.56,2.33-5.17a1.92,1.92,0,0,1,3.53,1.5q-1.14,2.68-2.4,5.32A1.94,1.94,0,0,1,802,679.82ZM568.89,743.23a1.91,1.91,0,0,1-1.85-.39q-2.17-1.94-4.28-4a1.92,1.92,0,1,1,2.65-2.78q2.05,2,4.18,3.86a1.93,1.93,0,0,1,.16,2.71A1.9,1.9,0,0,1,568.89,743.23ZM683,703.16l-.18.05a1.92,1.92,0,0,1-2.27-1.48c-.4-1.9-.77-3.81-1.09-5.73a1.92,1.92,0,1,1,3.78-.64c.32,1.86.67,3.73,1.06,5.58A1.91,1.91,0,0,1,683,703.16Zm126-41.21a1.94,1.94,0,0,1-1.12,0,1.92,1.92,0,0,1-1.29-2.39c.54-1.82,1-3.65,1.46-5.45a1.92,1.92,0,0,1,3.73.89c-.45,1.86-1,3.77-1.52,5.66A1.88,1.88,0,0,1,808.94,662Zm-253.6,67.72a1.92,1.92,0,0,1-2-.56q-1.94-2.18-3.8-4.41a1.92,1.92,0,0,1,3-2.45q1.82,2.19,3.71,4.31a1.91,1.91,0,0,1-.16,2.71A1.79,1.79,0,0,1,555.34,729.67Zm257.28-86.51a1.72,1.72,0,0,1-.75.08,1.92,1.92,0,0,1-1.74-2.08c.17-1.88.28-3.77.33-5.62a1.92,1.92,0,1,1,3.83.1c0,1.93-.16,3.91-.34,5.87A1.91,1.91,0,0,1,812.62,643.16Zm-132.4,41a1.93,1.93,0,0,1-2.49-1.68q-.22-2.91-.33-5.82a1.92,1.92,0,1,1,3.83-.15q.1,2.84.33,5.67A1.92,1.92,0,0,1,680.22,684.19ZM543.41,714.65a1.93,1.93,0,0,1-2.14-.72q-1.68-2.38-3.28-4.81a1.92,1.92,0,1,1,3.2-2.11q1.57,2.37,3.21,4.7a1.94,1.94,0,0,1-1,2.94ZM812.11,624l-.27.07a1.93,1.93,0,0,1-2.2-1.6c-.29-1.83-.66-3.67-1.1-5.48a1.92,1.92,0,1,1,3.73-.91c.46,1.91.85,3.86,1.16,5.79A1.91,1.91,0,0,1,812.11,624ZM680,665a2.25,2.25,0,0,1-.69.08,1.92,1.92,0,0,1-1.8-2q.16-2.91.46-5.81a1.91,1.91,0,1,1,3.81.38q-.27,2.82-.44,5.66A1.94,1.94,0,0,1,680,665ZM533.23,698.4a1.9,1.9,0,0,1-2.25-.91c-.94-1.69-1.85-3.41-2.73-5.14a1.92,1.92,0,0,1,3.42-1.74q1.29,2.53,2.66,5a1.91,1.91,0,0,1-.75,2.61A2.17,2.17,0,0,1,533.23,698.4ZM682.49,646a1.87,1.87,0,0,1-1,.05,1.92,1.92,0,0,1-1.49-2.26c.4-1.92.84-3.83,1.31-5.69a1.92,1.92,0,1,1,3.72.94c-.46,1.81-.89,3.66-1.27,5.52A1.91,1.91,0,0,1,682.49,646ZM806.6,605.73a1.92,1.92,0,0,1-2.32-1c-.77-1.7-1.62-3.38-2.52-5a1.92,1.92,0,1,1,3.36-1.86c1,1.71,1.84,3.48,2.65,5.28a1.92,1.92,0,0,1-.95,2.54ZM524.93,681.12a1.91,1.91,0,0,1-2.35-1.1c-.74-1.79-1.45-3.6-2.13-5.41a1.92,1.92,0,1,1,3.6-1.34c.66,1.77,1.35,3.54,2.08,5.29a1.92,1.92,0,0,1-1,2.5Zm162.88-53.5a1.86,1.86,0,0,1-1.25,0,1.94,1.94,0,0,1-1.12-2.48c.69-1.81,1.44-3.63,2.22-5.41a1.92,1.92,0,1,1,3.51,1.54c-.75,1.72-1.48,3.48-2.14,5.23A1.91,1.91,0,0,1,687.81,627.62Zm108.57-38a1.9,1.9,0,0,1-2-.58c-1.22-1.42-2.51-2.78-3.82-4a1.92,1.92,0,0,1,2.66-2.77c1.4,1.36,2.77,2.81,4.07,4.32a1.92,1.92,0,0,1-.21,2.71A1.85,1.85,0,0,1,796.38,589.57ZM696.15,610.38a1.92,1.92,0,0,1-2.23-2.81c1-1.68,2.07-3.34,3.16-5a1.92,1.92,0,1,1,3.17,2.16c-1,1.54-2.07,3.15-3,4.76A2,2,0,0,1,696.15,610.38ZM518.66,663l-.06,0a1.92,1.92,0,0,1-2.37-1.33c-.52-1.87-1-3.74-1.47-5.63a1.92,1.92,0,1,1,3.73-.9c.44,1.83.92,3.67,1.44,5.49A1.93,1.93,0,0,1,518.66,663Zm263.09-85.7a1.92,1.92,0,0,1-1.53-.16,46.53,46.53,0,0,0-4.94-2.48,1.92,1.92,0,1,1,1.52-3.52,52,52,0,0,1,5.33,2.67,1.92,1.92,0,0,1,.71,2.62A1.94,1.94,0,0,1,781.75,577.31ZM707.56,595a1.91,1.91,0,0,1-2-3.13c1.32-1.43,2.72-2.84,4.14-4.18a1.92,1.92,0,1,1,2.63,2.79c-1.36,1.28-2.69,2.63-4,4A1.83,1.83,0,0,1,707.56,595Zm56.15-23.79a1.88,1.88,0,0,1-.82.07,50.67,50.67,0,0,0-5.52-.39,1.92,1.92,0,0,1,0-3.83,49.31,49.31,0,0,1,6,.42,1.92,1.92,0,0,1,.33,3.73Zm-41.65,11.3a1.91,1.91,0,0,1-1.65-3.41c1.64-1.11,3.32-2.16,5-3.13a1.92,1.92,0,0,1,1.91,3.33c-1.6.92-3.2,1.92-4.76,3A1.54,1.54,0,0,1,722.06,582.51Zm22.61-10.19-.14,0c-1.76.42-3.56.94-5.35,1.54a1.92,1.92,0,0,1-1.23-3.63c1.9-.64,3.82-1.19,5.7-1.64a1.92,1.92,0,0,1,1,3.69Zm-230.15,72a2.44,2.44,0,0,1-.26.06,1.92,1.92,0,0,1-2.21-1.57c-.32-1.92-.61-3.83-.88-5.75a1.92,1.92,0,1,1,3.8-.52q.39,2.82.86,5.63A1.93,1.93,0,0,1,514.52,644.3Zm-2.23-19a1.8,1.8,0,0,1-.45.09,1.91,1.91,0,0,1-2-1.78c-.14-1.94-.24-3.87-.32-5.8a1.92,1.92,0,0,1,3.84-.15c.07,1.89.17,3.79.3,5.68A1.92,1.92,0,0,1,512.29,625.26Zm-.42-19.16a2.06,2.06,0,0,1-.62.09,1.93,1.93,0,0,1-1.87-2c.05-1.94.12-3.87.22-5.81a1.92,1.92,0,0,1,3.83.2q-.15,2.85-.21,5.7A1.93,1.93,0,0,1,511.87,606.1Zm1.3-19.13a1.84,1.84,0,0,1-.78.08,1.92,1.92,0,0,1-1.7-2.12q.31-2.88.71-5.76a1.92,1.92,0,0,1,3.8.51c-.25,1.89-.49,3.78-.7,5.67A1.91,1.91,0,0,1,513.17,587Zm2.88-19a2,2,0,0,1-.94,0,1.91,1.91,0,0,1-1.52-2.24c.37-1.9.75-3.8,1.16-5.69a1.92,1.92,0,0,1,3.75.81c-.4,1.87-.78,3.73-1.14,5.6A1.93,1.93,0,0,1,516.05,568Zm4.33-18.69a2,2,0,0,1-1.08,0A1.92,1.92,0,0,1,518,547c.5-1.86,1-3.72,1.57-5.58a1.92,1.92,0,0,1,3.68,1.08c-.53,1.83-1.05,3.67-1.55,5.5A1.89,1.89,0,0,1,520.38,549.32ZM526,531a1.9,1.9,0,0,1-2.38-2.45q.95-2.74,2-5.46a1.91,1.91,0,1,1,3.59,1.32q-1,2.69-1.92,5.39A1.86,1.86,0,0,1,526,531Zm6.86-17.91a1.94,1.94,0,0,1-1.32-.06,1.92,1.92,0,0,1-1-2.51c.74-1.78,1.51-3.55,2.29-5.32a1.92,1.92,0,1,1,3.51,1.55q-1.15,2.61-2.27,5.25A1.89,1.89,0,0,1,532.88,513.08Z"/><path class="cls-2" d="M849.45,1365.5a13.56,13.56,0,0,1-22.1-4.32c-20.74-48.92-66.88-192.53,19-354.61C918.91,869.7,945.24,788.6,954.64,751a8.5,8.5,0,0,1,16.11-1.17C1005.27,833.47,1094.88,1117.46,849.45,1365.5Z"/><g class="cls-3"><path class="cls-2" d="M2006.41,1015.62l-215.36-1.2a11.3,11.3,0,0,0-9.76,17.12l1.08,1.8a11.34,11.34,0,0,0,9.7,5.49h214.28a11.31,11.31,0,0,0,11.3-11.31v-.6A11.29,11.29,0,0,0,2006.41,1015.62Z"/><path class="cls-2" d="M2036.5,1027.17v.35a11.31,11.31,0,0,0,11.3,11.31h47.81a11.3,11.3,0,0,0,10.92-8.39h0a11.3,11.3,0,0,0-10.84-14.22l-47.81-.35A11.29,11.29,0,0,0,2036.5,1027.17Z"/></g><g class="cls-3"><path class="cls-2" d="M1954.61,1056.19,1791.05,1055a11.3,11.3,0,0,0-9.76,17.12l1.08,1.8a11.34,11.34,0,0,0,9.7,5.49h162.47a11.31,11.31,0,0,0,11.31-11.31v-.6A11.32,11.32,0,0,0,1954.61,1056.19Z"/><path class="cls-2" d="M1984.69,1067.75v.35a11.31,11.31,0,0,0,11.3,11.31h47.81a11.33,11.33,0,0,0,10.93-8.39h0a11.31,11.31,0,0,0-10.84-14.22l-47.81-.35A11.3,11.3,0,0,0,1984.69,1067.75Z"/></g><g class="cls-4"><path class="cls-5" d="M1877.44,1007.36a2,2,0,0,1-1.08-.39c-2.19-1.62-4.38-3.3-6.51-5a2,2,0,0,1,2.54-3.18c2.09,1.67,4.24,3.33,6.39,4.92a2,2,0,0,1-1.34,3.66Z"/><path class="cls-5" d="M1850.79,984a2,2,0,0,1-1.34-.62c-3.9-4-7.71-8.3-11.31-12.66a2,2,0,0,1,3.14-2.59c3.53,4.28,7.27,8.46,11.1,12.42a2,2,0,0,1-.05,2.88A2.06,2.06,0,0,1,1850.79,984Zm-27.24-34.68a2,2,0,0,1-1.59-.94c-3-4.78-5.89-9.72-8.52-14.69a2,2,0,1,1,3.59-1.9c2.59,4.88,5.4,9.73,8.37,14.41a2,2,0,0,1-.63,2.81A2,2,0,0,1,1823.55,949.34Zm-19.66-39.46a2,2,0,0,1-1.78-1.31c-2-5.28-3.78-10.7-5.35-16.12a2,2,0,0,1,3.92-1.13c1.53,5.32,3.29,10.64,5.24,15.81a2,2,0,0,1-2,2.75Zm-11.17-42.65a2,2,0,0,1-1.88-1.72c-.86-5.56-1.5-11.24-1.92-16.87a2,2,0,1,1,4.06-.3c.41,5.52,1,11.09,1.88,16.55a2,2,0,0,1-1.7,2.32A1.64,1.64,0,0,1,1792.72,867.23Zm-2.18-44a2,2,0,0,1-1.91-2.13l.11-1.92c.31-5,.8-10,1.45-15a2,2,0,0,1,4,.53c-.64,4.86-1.12,9.81-1.42,14.71l-.11,1.88a2,2,0,0,1-2.14,1.93Zm6.82-43.55-.39-.06a2,2,0,0,1-1.45-2.49c1.43-5.45,3.1-10.91,5-16.23a2,2,0,0,1,3.85,1.33c-1.82,5.23-3.46,10.59-4.87,15.94A2,2,0,0,1,1797.36,779.65Zm15.51-41.26a1.86,1.86,0,0,1-.78-.21,2,2,0,0,1-.91-2.73c2.51-5,5.25-10.05,8.15-14.88a2,2,0,1,1,3.49,2.1c-2.84,4.74-5.54,9.65-8,14.6A2,2,0,0,1,1812.87,738.39Zm23.61-37.21a2.06,2.06,0,0,1-1.14-.43,2,2,0,0,1-.33-2.86c3.49-4.42,7.2-8.76,11-12.89a2,2,0,1,1,3,2.77c-3.76,4.05-7.4,8.3-10.83,12.64A2,2,0,0,1,1836.48,701.18Zm30.74-31.57a2.06,2.06,0,0,1-1.44-.73A2,2,0,0,1,1866,666c4.32-3.61,8.84-7.09,13.44-10.36a2,2,0,1,1,2.36,3.31c-4.51,3.21-8.95,6.64-13.19,10.18A2.08,2.08,0,0,1,1867.22,669.61Zm36.53-24.68a2,2,0,0,1-.84-3.83c5-2.67,10.12-5.17,15.27-7.44a2,2,0,0,1,1.64,3.73c-5,2.22-10.09,4.68-15,7.3A2,2,0,0,1,1903.75,644.93Zm40.78-16.75a2,2,0,0,1-.45-4c5.4-1.59,10.94-3,16.47-4.15a2,2,0,1,1,.84,4c-5.42,1.15-10.86,2.52-16.16,4.08A2.1,2.1,0,0,1,1944.53,628.18Z"/><path class="cls-5" d="M1988,620.14a2,2,0,0,1,0-4.06c2.73-.21,5.48-.38,8.19-.49a2,2,0,0,1,.17,4.07c-2.66.11-5.36.27-8,.48Z"/><path class="cls-5" d="M2153.12,678.42a2.07,2.07,0,0,1-1.28-.56c-1.94-1.84-3.94-3.67-6-5.44a2,2,0,0,1,2.69-3c2.05,1.8,4.09,3.66,6.06,5.54a2,2,0,0,1,.08,2.88A2.06,2.06,0,0,1,2153.12,678.42Z"/><path class="cls-5" d="M2039.34,1046.7a2,2,0,0,1-.19-4c5.38-.86,10.78-1.94,16.07-3.22a2,2,0,0,1,1,4c-5.39,1.3-10.91,2.4-16.39,3.28A1.7,1.7,0,0,1,2039.34,1046.7Zm41.92-11.18a2,2,0,0,1-.59-3.93c5.08-1.93,10.16-4.09,15.09-6.41a2,2,0,1,1,1.73,3.69c-5,2.36-10.2,4.56-15.38,6.52A1.94,1.94,0,0,1,2081.26,1035.52Zm38.8-19.4a2,2,0,0,1-1.59-1,2,2,0,0,1,.63-2.81c1-.61,2-1.24,2.91-1.87,3.6-2.35,7.16-4.85,10.61-7.41a2,2,0,0,1,2.43,3.27c-3.51,2.61-7.15,5.15-10.81,7.55l-3,1.91A2.14,2.14,0,0,1,2120.06,1016.12Zm34.17-26.74a2,2,0,0,1-1.35-.62,2,2,0,0,1,.06-2.88c3.93-3.76,7.75-7.73,11.37-11.78a2,2,0,1,1,3,2.71c-3.69,4.13-7.59,8.17-11.59,12A2,2,0,0,1,2154.23,989.38Zm28.07-33a2.08,2.08,0,0,1-1-.35,2,2,0,0,1-.52-2.83c3.08-4.48,6-9.14,8.75-13.85a2,2,0,0,1,3.53,2c-2.78,4.8-5.79,9.55-8.93,14.11A2,2,0,0,1,2182.3,956.34Zm20.83-38a2.34,2.34,0,0,1-.67-.16,2,2,0,0,1-1.08-2.67c2.12-5,4.07-10.16,5.8-15.33a2,2,0,0,1,3.86,1.3c-1.77,5.26-3.75,10.52-5.91,15.62A2,2,0,0,1,2203.13,918.31Zm12.79-41.45a1.35,1.35,0,0,1-.28,0,2,2,0,0,1-1.59-2.39c1.07-5.34,1.95-10.78,2.62-16.19a2,2,0,0,1,2.26-1.77,2,2,0,0,1,1.78,2.27c-.68,5.5-1.58,11-2.67,16.49A2,2,0,0,1,2215.92,876.86Zm4.24-43.17a2,2,0,0,1-1.9-2c0-5.44-.24-10.95-.68-16.38a2,2,0,0,1,4.06-.32c.44,5.53.67,11.15.69,16.69a2,2,0,0,1-2,2Zm-4.49-43.14a2,2,0,0,1-1.86-1.62c-1.11-5.33-2.45-10.68-4-15.91a2,2,0,1,1,3.91-1.13c1.55,5.32,2.91,10.78,4,16.21a2,2,0,0,1-1.58,2.41A2.46,2.46,0,0,1,2215.67,790.55Zm-13.11-41.35a2,2,0,0,1-1.74-1.23c-2.17-5-4.55-10-7.1-14.78a2,2,0,1,1,3.6-1.9c2.59,4.91,5,10,7.23,15.06a2,2,0,0,1-1.06,2.68A2.16,2.16,0,0,1,2202.56,749.2Zm-21.17-37.88a2,2,0,0,1-1.54-.87c-3.12-4.47-6.45-8.87-9.89-13.08a2,2,0,0,1,3.15-2.57c3.51,4.28,6.9,8.77,10.08,13.32a2,2,0,0,1-.51,2.84A2,2,0,0,1,2181.39,711.32Z"/><path class="cls-5" d="M2004.34,1049.4a2,2,0,0,1,.14-4.07c2.66,0,5.37,0,8-.11a2,2,0,1,1,.14,4.07c-2.74.09-5.5.13-8.22.12Z"/><path class="cls-5" d="M1983.86,996.13a2.58,2.58,0,0,0,2.78-1.12l16.92-26.45a136.6,136.6,0,0,0,43.78-6.84l24.19,20a2.58,2.58,0,0,0,3,.22l32.14-19.63a2.58,2.58,0,0,0,1.18-2.75l-6.73-30.65a136.69,136.69,0,0,0,26.09-35.82l31.26-3a2.55,2.55,0,0,0,2.26-2l8.86-36.61a2.59,2.59,0,0,0-1.12-2.78L2142,831.83a136.66,136.66,0,0,0-6.84-43.79l20-24.18a2.59,2.59,0,0,0,.21-3l-19.63-32.15a2.56,2.56,0,0,0-2.75-1.17l-30.65,6.73a137,137,0,0,0-35.82-26.1l-3-31.25a2.58,2.58,0,0,0-2-2.27L2025,665.81a2.57,2.57,0,0,0-2.78,1.12l-16.92,26.44a137,137,0,0,0-43.79,6.85l-24.18-20a2.57,2.57,0,0,0-3-.21l-32.15,19.62a2.58,2.58,0,0,0-1.17,2.76l6.73,30.65a136.62,136.62,0,0,0-26.1,35.82l-31.25,3a2.58,2.58,0,0,0-2.27,2l-8.85,36.61a2.58,2.58,0,0,0,1.12,2.78l26.44,16.92a136.89,136.89,0,0,0,6.85,43.78l-20,24.19a2.57,2.57,0,0,0-.21,3l19.62,32.14a2.6,2.6,0,0,0,2.76,1.18l30.65-6.73a136.48,136.48,0,0,0,35.81,26.09l3,31.26a2.55,2.55,0,0,0,2,2.26Z"/><path class="cls-6" d="M2002.11,867.39a36.55,36.55,0,1,1,2.67.07C2003.89,867.47,2003,867.45,2002.11,867.39Zm4.21-66.74a30.39,30.39,0,1,0,19.8,51.59h0a30.38,30.38,0,0,0-19.8-51.59Z"/><path class="cls-6" d="M2035.42,918.91l-2-5.77a88.76,88.76,0,0,0,16.9-8h0a87.8,87.8,0,1,0-86.6,2.81l-2.84,5.4a93.9,93.9,0,1,1,92.62-3l-1.65,1h0l-.09.06h0l0,0a95.21,95.21,0,0,1-13,6.27l-.14.06-.2.07-.5.19C2037,918.33,2036.23,918.63,2035.42,918.91Z"/><path class="cls-5" d="M2053.81,612l8.28-15.52a76.69,76.69,0,0,0,24.15-5.77l14.39,10.09a1.46,1.46,0,0,0,1.68,0l17.08-12.39a1.45,1.45,0,0,0,.54-1.59L2114.81,570a76.76,76.76,0,0,0,13-21.17l17.33-3a1.43,1.43,0,0,0,1.17-1.2l3.32-20.84a1.44,1.44,0,0,0-.74-1.5l-15.53-8.28a76.55,76.55,0,0,0-5.76-24.15l10.09-14.4a1.46,1.46,0,0,0,0-1.68l-12.39-17.08a1.44,1.44,0,0,0-1.59-.53l-16.82,5.12a76.5,76.5,0,0,0-21.16-13l-3.05-17.32a1.46,1.46,0,0,0-1.2-1.18l-20.83-3.32a1.44,1.44,0,0,0-1.51.75l-8.28,15.52a76.69,76.69,0,0,0-24.15,5.77l-14.39-10.09a1.46,1.46,0,0,0-1.68,0l-17.08,12.39a1.44,1.44,0,0,0-.54,1.59l5.12,16.82a76.76,76.76,0,0,0-13,21.17l-17.33,3a1.43,1.43,0,0,0-1.17,1.2l-3.32,20.84a1.44,1.44,0,0,0,.74,1.5l15.53,8.28a76.68,76.68,0,0,0,5.76,24.15l-10.09,14.4a1.46,1.46,0,0,0,0,1.68l12.39,17.08a1.44,1.44,0,0,0,1.59.53l16.82-5.12a76.74,76.74,0,0,0,21.16,13l3,17.32a1.46,1.46,0,0,0,1.2,1.18l20.83,3.32A1.47,1.47,0,0,0,2053.81,612Z"/><path class="cls-6" d="M2055.06,541.32a21.9,21.9,0,1,1,3.34-.05A22,22,0,0,1,2055.06,541.32Zm2.38-37.4a15.68,15.68,0,1,0,9.07,3.61A15.68,15.68,0,0,0,2057.44,503.92Z"/><path class="cls-5" d="M2018.42,628.2a1.81,1.81,0,0,1-.55-.12c-2.6-.92-5.19-2-7.7-3.05a2,2,0,0,1-1.05-2.69,2,2,0,0,1,2.68-1c2.43,1.06,4.93,2.06,7.43,3a2,2,0,0,1-.81,4Z"/><path class="cls-5" d="M1989.64,613a2.09,2.09,0,0,1-1.07-.39c-2-1.49-4-3.05-6-4.66s-3.94-3.41-5.81-5.2a2,2,0,0,1,2.81-2.94c1.81,1.73,3.7,3.41,5.61,5s3.8,3.07,5.75,4.5a2,2,0,0,1-1.33,3.68Zm-27.32-28.42a2,2,0,0,1-1.57-.9,116.21,116.21,0,0,1-7.68-13.3,2,2,0,0,1,3.66-1.79,111.15,111.15,0,0,0,7.4,12.83,2,2,0,0,1-.56,2.82A2,2,0,0,1,1962.32,584.55Zm-15.88-36.08a2,2,0,0,1-1.85-1.55,115.65,115.65,0,0,1-2.64-15.13,2,2,0,1,1,4-.43,114.15,114.15,0,0,0,2.55,14.59,2,2,0,0,1-1.49,2.46A2.14,2.14,0,0,1,1946.44,548.47Zm-2.56-39.34h-.1a2,2,0,0,1-1.8-2.25,115.48,115.48,0,0,1,2.69-15.11,2,2,0,1,1,3.95,1,110.71,110.71,0,0,0-2.59,14.58A2,2,0,0,1,1943.88,509.13ZM1955,471.3a2,2,0,0,1-.78-.2,2,2,0,0,1-.92-2.73,115.52,115.52,0,0,1,7.74-13.26,2,2,0,1,1,3.37,2.28,111.08,111.08,0,0,0-7.46,12.79A2,2,0,0,1,1955,471.3Zm23.41-31.71A2,2,0,0,1,1977,439a2,2,0,0,1,.06-2.88,116.11,116.11,0,0,1,11.8-9.82,2,2,0,1,1,2.39,3.29A111.89,111.89,0,0,0,1979.9,439,2,2,0,0,1,1978.37,439.59Z"/><path class="cls-5" d="M2011.33,417.76a2,2,0,0,1-1.74-1.22,2,2,0,0,1,1.06-2.68c2.53-1.09,5.12-2.1,7.71-3a2,2,0,0,1,1.34,3.85c-2.49.87-5,1.84-7.44,2.9A2,2,0,0,1,2011.33,417.76Z"/><path class="cls-5" d="M2110.38,422.18a2,2,0,0,1-.85-.24c-2.33-1.27-4.73-2.47-7.15-3.57a2,2,0,1,1,1.69-3.71c2.5,1.14,5,2.39,7.41,3.7a2,2,0,0,1-1.1,3.82Z"/><path class="cls-5" d="M2121.57,614a2,2,0,0,1-1.05-3.69,111.39,111.39,0,0,0,13.2-11,2,2,0,1,1,2.84,2.92,115.88,115.88,0,0,1-13.69,11.36A2,2,0,0,1,2121.57,614Zm31.18-33.27a2,2,0,0,1-1.61-3.09,109.92,109.92,0,0,0,7.83-15.27,2,2,0,1,1,3.76,1.58,114,114,0,0,1-8.12,15.82A2,2,0,0,1,2152.75,580.75Zm15.53-42.85-.17,0a2,2,0,0,1-1.72-2.31c.44-3,.75-6,.94-9.06.16-2.66.23-5.38.2-8.06a2,2,0,0,1,4.08,0c0,2.78-.05,5.59-.22,8.35-.19,3.13-.52,6.29-1,9.4A2,2,0,0,1,2168.28,537.9Zm-2.66-45.52a2,2,0,0,1-1.84-1.51,110.82,110.82,0,0,0-5.68-16.18,2,2,0,0,1,3.73-1.65,116.39,116.39,0,0,1,5.89,16.79,2,2,0,0,1-1.45,2.49A1.78,1.78,0,0,1,2165.62,492.38Zm-20.38-40.78a2,2,0,0,1-1.48-.77,111.76,111.76,0,0,0-11.63-12.61,2,2,0,1,1,2.77-3A116.38,116.38,0,0,1,2147,448.31a2,2,0,0,1-1.72,3.29Z"/><path class="cls-5" d="M2088.75,630a2,2,0,0,1-.45-4c2.54-.75,5.09-1.61,7.57-2.55a2,2,0,0,1,1.44,3.8c-2.57,1-5.21,1.87-7.85,2.66A2.16,2.16,0,0,1,2088.75,630Z"/><path class="cls-6" d="M2035.27,568.75a53.95,53.95,0,1,1,52.91-5.94h0a54.77,54.77,0,0,1-9.32,5.44l-.15.07-.49.22-2.47-5.59a48.31,48.31,0,0,0,8.84-5.08h0a47.94,47.94,0,0,0,12.52-64.07c-.59-.94-1.21-1.87-1.87-2.78a47.87,47.87,0,1,0-57.58,72.12Z"/></g><path class="cls-2" d="M714.53,834c-7.27,58.49-43.64,419.1,148.16,534.17a9.1,9.1,0,0,0,13.74-7.15c3.12-43,5.06-179.57-73.83-340.77C745.69,904,724.83,851.53,718.25,833.6A1.93,1.93,0,0,0,714.53,834Z"/><path class="cls-7" d="M876.44,1364.38a3.33,3.33,0,0,1-2.94-1.75c-96.28-177-140.38-396.05-138-403.52a3.34,3.34,0,0,1,6.49,1.5c.11,9.95,42.21,223.79,137.42,398.84A3.33,3.33,0,0,1,878,1364,3.28,3.28,0,0,1,876.44,1364.38ZM741.83,961.1h0Z"/><path class="cls-2" d="M1530.75,662.61a2.71,2.71,0,0,1,5.25-.52c27.5,78.32,185.45,563.86-44.15,779.64a12.81,12.81,0,0,1-21.06-5.72c-17.14-58.24-60.68-245.68-.31-491.19C1514,767.69,1527.06,689.27,1530.75,662.61Z"/><path class="cls-7" d="M1471.84,1439.17a3.26,3.26,0,0,1-2,0,3.34,3.34,0,0,1-2.27-4.14c41.65-142.59,58.85-292.59,65.94-393.32,7.88-111.74,5.44-191.29,3.92-197.6a3.34,3.34,0,0,1,6-2.93c2.82,5,4.21,92.9-3,197.25-7,102-24.26,254-66.46,398.47A3.31,3.31,0,0,1,1471.84,1439.17Zm65.79-594.66h0Z"/><path class="cls-5" d="M1522.76,1416.42h627.87V1290.76H1522.76C1536.2,1290.76,1536.2,1416.42,1522.76,1416.42Z"/><path class="cls-8" d="M2150.63,1385v-57.52c0-20.27-12.41-36.7-27.72-36.7h-597.5a21.79,21.79,0,0,1-21.79-21.8h0a6.62,6.62,0,0,1,6.62-6.62h653c15,0,38.76,23.55,38.76,52.59v80.32c0,27.39-23.09,49.59-37.21,49.59H1513.67a10.06,10.06,0,0,1-10.05-10.06,18.36,18.36,0,0,1,18.36-18.36h604.91C2140,1416.42,2150.63,1402.34,2150.63,1385Z"/><path class="cls-6" d="M2133.21,1318.77h-588.7a2.23,2.23,0,1,1,0-4.45h588.7a2.23,2.23,0,1,1,0,4.45Z"/><path class="cls-6" d="M2133.21,1337.42h-588.7a2.23,2.23,0,1,1,0-4.45h588.7a2.23,2.23,0,1,1,0,4.45Z"/><path class="cls-6" d="M2133.21,1356.07h-588.7a2.23,2.23,0,1,1,0-4.45h588.7a2.23,2.23,0,1,1,0,4.45Z"/><path class="cls-6" d="M2133.21,1374.72h-588.7a2.23,2.23,0,1,1,0-4.45h588.7a2.23,2.23,0,1,1,0,4.45Z"/><path class="cls-6" d="M2133.21,1393.38h-588.7a2.23,2.23,0,1,1,0-4.45h588.7a2.23,2.23,0,1,1,0,4.45Z"/><rect class="cls-5" x="1584.78" y="1125.97" width="564.96" height="136.37" rx="62.95"/><path class="cls-6" d="M2042.21,1141.64h21a22.68,22.68,0,0,1,22.68,22.68V1224a22.69,22.69,0,0,1-22.69,22.69h-21a22.68,22.68,0,0,1-22.68-22.68v-59.66A22.68,22.68,0,0,1,2042.21,1141.64Z" transform="translate(4105.41 2388.31) rotate(180)"/><rect class="cls-6" x="1984.86" y="1141.64" width="24.9" height="105.03" rx="11.49" transform="translate(3994.61 2388.31) rotate(180)"/><path class="cls-2" d="M1502.53,1441.17c67.94-17,255.63-95.1,181.45-432.34-2.11-9.57-15.52-10.18-18.42-.81-13.58,43.87-38.87,119.47-73.58,155.26-107.54,110.85-117.46,213.39-115.56,258.37A21,21,0,0,0,1502.53,1441.17Z"/><path class="cls-7" d="M1492.47,1435.8a3.34,3.34,0,0,1-3.41-5.62c150.73-131.69,174.06-313.27,174.28-315.09a3.34,3.34,0,1,1,6.63.79c-.06.46-5.81,46.92-30.34,109.13-22.64,57.4-66.37,140.46-146.18,210.19A3.45,3.45,0,0,1,1492.47,1435.8Z"/><path class="cls-9" d="M1466,1332l300.27-575.27h-61.52a13.44,13.44,0,0,1-10.39-22l320-390c13.87-16.91,41.27-6.19,40,15.64l-22.5,381.43a38.11,38.11,0,0,1-42.38,35.62l-42.89-4.91-297.94,645.22a47.41,47.41,0,0,1-43.06,27.55H1502.33Z"/><path class="cls-10" d="M1217.71,928.55l212,470.91a77.74,77.74,0,0,0,70.89,45.82h109.29a39.9,39.9,0,0,0,34.89-20.54l3.88-7h0a31.25,31.25,0,0,1-27.83-17L1338.37,847.27Z"/><path class="cls-11" d="M1366.9,903.17h0a46.36,46.36,0,0,0-67.32,10.7L987.9,1382.15a134.67,134.67,0,0,1-112.09,60H832l-35.69-102.82S1086,895.08,1160.7,827.87c0,0,74.38-67,147.71-16.35,19.37,13.39,34.08,32.5,43.07,54.27Z"/><path class="cls-12" d="M457.26,1062.84s52.18-65.21,153.28-75.36c0,0,48,16.36,143.68,187.78s159.16,249.58,233.68,206.89l-6.17,10.24a112.37,112.37,0,0,1-96.26,54.4H844.26a141,141,0,0,1-114.47-58.65C655.34,1284.64,503,1078.91,457.26,1062.84Z"/><path class="cls-13" d="M2018.25,481.34a2.42,2.42,0,0,1-.38,0,3.34,3.34,0,0,1-2.94-3.69L2017,459a3.34,3.34,0,1,1,6.63.75l-2.11,18.62A3.34,3.34,0,0,1,2018.25,481.34Z"/><path class="cls-14" d="M1751.09,716.44a3.3,3.3,0,0,1-2-.69,3.34,3.34,0,0,1-.61-4.68l264.27-343.38a11.45,11.45,0,0,1,20.45,8.27l-4.67,41.16a3.34,3.34,0,1,1-6.63-.75l4.67-41.16a4.77,4.77,0,0,0-8.53-3.45L1753.74,715.14A3.35,3.35,0,0,1,1751.09,716.44Z"/><path class="cls-15" d="M1151.57,1076.42a3.28,3.28,0,0,1-1.86-.57,3.33,3.33,0,0,1-.9-4.63l136.67-202.59a24.46,24.46,0,0,1,42.38,3.21,3.34,3.34,0,0,1-6,2.86,17.78,17.78,0,0,0-30.81-2.34L1154.34,1075A3.36,3.36,0,0,1,1151.57,1076.42Z"/><path class="cls-16" d="M1116.05,1129.07a3.34,3.34,0,0,1-2.76-5.21l8.76-13a3.34,3.34,0,0,1,5.54,3.73l-8.77,13A3.32,3.32,0,0,1,1116.05,1129.07Z"/><g class="cls-3"><path class="cls-2" d="M1206.25,538.57,919.14,537a15.07,15.07,0,0,0-13,22.83l1.44,2.4a15.08,15.08,0,0,0,12.93,7.32h285.67a15.07,15.07,0,0,0,15.07-15.07v-.81A15.08,15.08,0,0,0,1206.25,538.57Z"/><path class="cls-2" d="M1246.36,554v.47a15.07,15.07,0,0,0,15.07,15.07h63.73a15.07,15.07,0,0,0,14.56-11.18h0a15.07,15.07,0,0,0-14.45-19l-63.73-.47A15.07,15.07,0,0,0,1246.36,554Z"/></g><g class="cls-3"><path class="cls-2" d="M1137.19,592.67l-218.05-1.6a15.07,15.07,0,0,0-13,22.83l1.44,2.4a15.08,15.08,0,0,0,12.93,7.32h216.6a15.07,15.07,0,0,0,15.07-15.07v-.81A15.07,15.07,0,0,0,1137.19,592.67Z"/><path class="cls-2" d="M1177.29,608.08v.47a15.07,15.07,0,0,0,15.07,15.07h63.74a15.08,15.08,0,0,0,14.56-11.18h0a15.08,15.08,0,0,0-14.45-19l-63.74-.46A15.07,15.07,0,0,0,1177.29,608.08Z"/></g><g class="cls-3"><path class="cls-2" d="M482.08,961,195,959.35a15.07,15.07,0,0,0-13,22.83l1.44,2.4a15.07,15.07,0,0,0,12.92,7.32H482a15.07,15.07,0,0,0,15.07-15.07V976A15.08,15.08,0,0,0,482.08,961Z"/><path class="cls-2" d="M522.19,976.36v.47a15.07,15.07,0,0,0,15.07,15.07H601a15.09,15.09,0,0,0,14.56-11.18h0a15.07,15.07,0,0,0-14.45-19l-63.74-.47A15.07,15.07,0,0,0,522.19,976.36Z"/></g><g class="cls-3"><path class="cls-2" d="M413,1015.05l-218-1.6a15.07,15.07,0,0,0-13,22.83l1.44,2.4a15.07,15.07,0,0,0,12.92,7.32h216.6A15.08,15.08,0,0,0,428,1030.93v-.81A15.08,15.08,0,0,0,413,1015.05Z"/><path class="cls-2" d="M453.13,1030.46v.47A15.07,15.07,0,0,0,468.2,1046h63.73a15.07,15.07,0,0,0,14.56-11.18h0a15.08,15.08,0,0,0-14.45-19l-63.73-.46A15.07,15.07,0,0,0,453.13,1030.46Z"/></g><path class="cls-17" d="M1550.26,434.3c-.13-1.61-1.78-3-4.57-4.13,3-1.67,4.71-3.46,4.57-5.22-.43-5.31-17.27-8.3-37.61-6.65s-36.49,7.27-36.06,12.59c.13,1.61,1.78,3,4.57,4.13-3,1.67-4.71,3.46-4.57,5.22s1.78,3,4.57,4.13c-3,1.67-4.71,3.46-4.57,5.22s1.78,3,4.57,4.13c-3,1.67-4.71,3.46-4.57,5.22.19,2.35,3.59,4.24,9.09,5.48a43.89,43.89,0,0,0,.14,5.75c.79,9.79,11.81,17.48,26.39,17.48s27.19-10.48,27.33-20.31a48.38,48.38,0,0,0-.28-6.41c7-2.33,11.22-5.17,11-7.93-.13-1.62-1.78-3-4.57-4.13,3-1.67,4.71-3.46,4.57-5.22-.13-1.61-1.78-3-4.57-4.13C1548.72,437.85,1550.4,436.06,1550.26,434.3Z"/><path class="cls-6" d="M1503.23,466.54a88.2,88.2,0,0,1-16.13-1.32.49.49,0,0,1-.39-.57.48.48,0,0,1,.57-.39c7.15,1.37,16.69,1.67,26.88.85a116.12,116.12,0,0,0,22.54-3.89.49.49,0,0,1,.61.33.5.5,0,0,1-.33.61,116.82,116.82,0,0,1-22.74,3.92C1510.45,466.39,1506.76,466.54,1503.23,466.54Z"/><path class="cls-6" d="M1503.34,457.18c-7.85,0-14.87-.74-19.82-2.15a.47.47,0,0,1-.33-.6.49.49,0,0,1,.6-.34c7,2,18.4,2.63,30.37,1.67s22.88-3.36,29.53-6.43a.5.5,0,0,1,.65.24.5.5,0,0,1-.24.65c-6.75,3.12-17.92,5.55-29.86,6.51C1510.51,457,1506.84,457.18,1503.34,457.18Z"/><path class="cls-6" d="M1503.24,447.84c-8.48,0-15.9-.87-20.89-2.51a.5.5,0,0,1-.31-.62.48.48,0,0,1,.62-.31c6.94,2.29,18.72,3,31.5,2,11.84-1,22.87-3.36,29.53-6.42a.49.49,0,0,1,.65.23.5.5,0,0,1-.24.65c-6.75,3.12-17.92,5.55-29.86,6.51C1510.45,447.69,1506.75,447.84,1503.24,447.84Z"/><path class="cls-6" d="M1503.3,438.49a84.65,84.65,0,0,1-17.59-1.6.49.49,0,0,1-.37-.59.49.49,0,0,1,.58-.37c7.15,1.59,17.44,2,28.24,1.13,11.73-.94,22.71-3.32,29.38-6.35a.48.48,0,0,1,.65.24.5.5,0,0,1-.25.65c-6.76,3.07-17.86,5.48-29.7,6.44C1510.5,438.34,1506.82,438.49,1503.3,438.49Z"/><path class="cls-18" d="M1462.94,387.11a68.78,68.78,0,0,0-12.32-24.05c-12.11-15.26-31.87-46.3-34.3-88.66-3.54-61.62,51.11-92.47,101-88.29s99.08,41.32,93.69,98.65c-3.32,35.27-23.06,62-37.76,77.39a81.65,81.65,0,0,0-19.59,34.72c-4.41,15.93-14.91,35.77-39.86,37C1481.49,435.42,1468.08,405.32,1462.94,387.11Z"/><path class="cls-6" d="M1522,421.57l17.45-113.49c.36-2.35,1.52-3.92,2.58-3.52s1.63,2.63,1.27,5l0,.2-19.88,112.44c-.15.84-.58,1.38-1,1.19S1521.9,422.38,1522,421.57Z"/><path class="cls-6" d="M1503.91,422.47,1486.46,309c-.36-2.35-1.51-3.92-2.58-3.52s-1.63,2.63-1.27,5c0,.07,0,.14,0,.21l19.87,112.43c.15.85.58,1.38,1,1.19S1504,423.28,1503.91,422.47Z"/><path class="cls-6" d="M1539.35,298.33a1.83,1.83,0,0,0-2.29-.59l-9.72,4.54-3.37-9.61a2.06,2.06,0,0,0-1.18-1.19,2.4,2.4,0,0,0-3,.92l0,0-8,14.57-7.41-20.74v0a2.35,2.35,0,0,0-1.13-1.27,2.89,2.89,0,0,0-3.66.72l-11.17,15.38a1.34,1.34,0,0,0,.39,1.94,1.86,1.86,0,0,0,2.37-.26l9.84-11,8.85,19.73h0a1.54,1.54,0,0,0,.78.77,1.85,1.85,0,0,0,2.32-.6l8.54-13.71,3.22,6.93,0,.06a1.09,1.09,0,0,0,.08.15,1.84,1.84,0,0,0,2.29.6l11.53-5.39A1.38,1.38,0,0,0,1539.35,298.33Z"/><path class="cls-6" d="M1573.61,348.64a3.25,3.25,0,0,1-2-.66,3.35,3.35,0,0,1-.7-4.67,125.89,125.89,0,0,0,8-12.18,3.34,3.34,0,0,1,5.78,3.34,132.92,132.92,0,0,1-8.45,12.82A3.33,3.33,0,0,1,1573.61,348.64Z"/><path class="cls-6" d="M1588,324a3.28,3.28,0,0,1-1.33-.28,3.33,3.33,0,0,1-1.73-4.39c18.24-42,2.54-77.2,2.38-77.55a3.34,3.34,0,0,1,6.07-2.78c.7,1.54,17.08,38.27-2.33,83A3.35,3.35,0,0,1,1588,324Z"/><path class="cls-19" d="M1112.58,1217.44c.65-8.82,3.53-15,6.6-19.25-6.56,2.14-9,7-10.57,20.07-1.82,15.53-5.07,57.57-5.93,66.87s3,13.86,5.93,16.89c1,1,2.51.54,4.31-.88a30.27,30.27,0,0,1-5.9-13.49C1105.86,1281.4,1111.05,1238,1112.58,1217.44Z"/><path class="cls-20" d="M1155.52,1205.24l-11.41-14.79s-10.95,5.22-20.75,6.76a27.11,27.11,0,0,0-4.18,1c-3.07,4.22-6,10.43-6.6,19.25-1.53,20.54-6.72,64-5.56,70.21a30.27,30.27,0,0,0,5.9,13.49c3.68-2.88,8.52-9.8,12.18-16.87,5.46-10.53,24-42.06,28.31-53.84S1155.52,1205.24,1155.52,1205.24Z"/><path class="cls-21" d="M1310.79,1070.85c2.11-8.59,6-14.23,9.7-17.89-6.83,1-10.07,5.43-13.74,18-4.37,15-14.54,55.93-16.92,65s.64,14.16,3.06,17.63c.79,1.15,2.38.94,4.39-.15a30.2,30.2,0,0,1-3.58-14.28C1293.58,1132.82,1305.89,1090.86,1310.79,1070.85Z"/><path class="cls-22" d="M1355.16,1065.93l-8.8-16.47s-11.67,3.33-21.59,3.23a27,27,0,0,0-4.28.27c-3.73,3.66-7.59,9.3-9.7,17.89-4.9,20-17.21,62-17.09,68.33a30.2,30.2,0,0,0,3.58,14.28c4.11-2.24,10-8.26,14.81-14.62,7.13-9.49,30.59-37.52,36.82-48.41S1355.16,1065.93,1355.16,1065.93Z"/><path class="cls-23" d="M1155.52,1169.25c-2,2.62-16.58,29.14-19.73,34.9a8.5,8.5,0,0,0-1,3.1c-.37,3-.06,8.7,6.22,12.86a8.75,8.75,0,0,0,11.79-2l26.5-34.89Z"/><path class="cls-24" d="M1361.12,1030.44c-2.41,2.25-21.17,26-25.24,31.14a8.65,8.65,0,0,0-1.51,2.9c-.85,2.88-1.5,8.56,4,13.71a8.76,8.76,0,0,0,12,0l28.5-32.88Z"/><path class="cls-25" d="M1396.83,905.37c0-7.36,42.24-4.75,79.27-9,19.45-2.24,31,21.14,17.35,35.2l-112.14,115.71a8.81,8.81,0,0,1-9.07,2.29,54,54,0,0,1-16.46-8.54,8,8,0,0,1-1.48-10.85l51.55-73.4-47,13.57-178.46,220.74a9.25,9.25,0,0,1-12.12,2c-5.25-3.29-12.25-8.26-16.87-13.75a8.63,8.63,0,0,1-.52-10.25c19.69-30.08,126.68-194,131.75-211,5.59-18.75,26.12-53.09,45.32-54.31S1396.83,905.37,1396.83,905.37Z"/><path class="cls-26" d="M1408.66,955.78a1.19,1.19,0,0,1-.3-2.35l42.3-11.22a1.2,1.2,0,0,1,.62,2.31L1409,955.74A1.1,1.1,0,0,1,1408.66,955.78Z"/><path class="cls-27" d="M1363,967.24a1.19,1.19,0,0,1-.87-2l10.56-11.45a1.19,1.19,0,0,1,1.69-.07,1.21,1.21,0,0,1,.07,1.69l-10.57,11.45A1.18,1.18,0,0,1,1363,967.24Z"/><path class="cls-28" d="M1193.9,978.83l-22.53,55.76a19.56,19.56,0,0,0,10.18,25.14l131.31,59a14.11,14.11,0,0,0,17.72-5.3c8.19-13,21.79-36.65,29.14-61.27Z"/><path class="cls-29" d="M1316.67,1115.74a14.38,14.38,0,0,1-5.87-1.26l-.26-.12a.83.83,0,1,1,.69-1.52l.26.11a12.61,12.61,0,0,0,5.83,1.1.84.84,0,0,1,.09,1.67Zm-20-7.69a.8.8,0,0,1-.34-.07l-6.09-2.73a.84.84,0,0,1,.68-1.53l6.09,2.74a.83.83,0,0,1-.34,1.59Zm32.79-.88a.75.75,0,0,1-.43-.13.82.82,0,0,1-.27-1.15c1.08-1.74,2.23-3.65,3.44-5.7a.84.84,0,0,1,1.44.85c-1.22,2.06-2.38,4-3.46,5.73A.85.85,0,0,1,1329.47,1107.17Zm-53.09-8.23a.83.83,0,0,1-.34-.07l-6.09-2.74a.83.83,0,0,1,.69-1.52l6.09,2.73a.85.85,0,0,1,.42,1.11A.84.84,0,0,1,1276.38,1098.94Zm-20.29-9.11a.84.84,0,0,1-.34-.08l-6.09-2.73a.83.83,0,1,1,.69-1.52l6.08,2.73a.84.84,0,0,1-.34,1.6Zm84.39-2a.75.75,0,0,1-.38-.1.83.83,0,0,1-.36-1.12c1-1.92,2-3.91,3-5.94a.83.83,0,0,1,1.5.73q-1.5,3.07-3,6A.83.83,0,0,1,1340.48,1087.83Zm-104.68-7.11a.81.81,0,0,1-.34-.08l-6.09-2.73a.83.83,0,0,1,.68-1.52l6.09,2.73a.84.84,0,0,1-.34,1.6Zm-20.3-9.12a.83.83,0,0,1-.34-.07l-6.09-2.73a.84.84,0,1,1,.69-1.53l6.09,2.74a.83.83,0,0,1-.35,1.59Zm134.38-3.93a.85.85,0,0,1-.31-.06.84.84,0,0,1-.46-1.09c.84-2,1.64-4.1,2.42-6.19a.83.83,0,1,1,1.56.58c-.78,2.1-1.59,4.19-2.44,6.24A.82.82,0,0,1,1349.88,1067.67Zm-154.67-5.18a.83.83,0,0,1-.34-.07l-6.09-2.74a.83.83,0,0,1-.42-1.1.84.84,0,0,1,1.1-.42l6.09,2.73a.84.84,0,0,1,.42,1.11A.83.83,0,0,1,1195.21,1062.49Zm-17.88-12.33a.83.83,0,0,1-.74-.45,19.25,19.25,0,0,1-2.11-6.6.83.83,0,1,1,1.65-.22,17.87,17.87,0,0,0,1.93,6,.83.83,0,0,1-.34,1.13A.78.78,0,0,1,1177.33,1050.16Zm174.08-.89a.8.8,0,0,1-.34-.07l-6.1-2.7a.83.83,0,1,1,.67-1.52l6.1,2.7a.83.83,0,0,1-.33,1.59Zm-20.35-9a.83.83,0,0,1-.34-.07l-6.1-2.7a.84.84,0,0,1-.43-1.1.83.83,0,0,1,1.1-.42l6.11,2.69a.84.84,0,0,1-.34,1.6Zm-20.35-9a.78.78,0,0,1-.33-.07l-6.11-2.7a.83.83,0,0,1-.42-1.1.84.84,0,0,1,1.1-.43l6.1,2.7a.84.84,0,0,1-.34,1.6Zm-131.94-2.4a.7.7,0,0,1-.31-.07.83.83,0,0,1-.46-1.08l2.5-6.19a.84.84,0,0,1,1.09-.46.84.84,0,0,1,.46,1.09l-2.5,6.18A.84.84,0,0,1,1178.77,1028.89Zm111.6-6.59a.81.81,0,0,1-.34-.08l-6.1-2.69a.83.83,0,0,1-.43-1.1.84.84,0,0,1,1.1-.43l6.1,2.7a.83.83,0,0,1,.43,1.1A.84.84,0,0,1,1290.37,1022.3Zm-20.35-9a.83.83,0,0,1-.34-.07l-6.1-2.7a.83.83,0,1,1,.67-1.52l6.11,2.7a.83.83,0,0,1,.42,1.1A.82.82,0,0,1,1270,1013.3Zm-82.91-5a.81.81,0,0,1-.31-.06.84.84,0,0,1-.47-1.09l2.5-6.18a.83.83,0,0,1,1.55.62l-2.5,6.19A.83.83,0,0,1,1187.11,1008.26Zm62.56-4a.78.78,0,0,1-.33-.07l-6.11-2.7a.83.83,0,1,1,.68-1.52l6.1,2.69a.84.84,0,0,1,.43,1.1A.84.84,0,0,1,1249.67,1004.31Zm-20.34-9a.8.8,0,0,1-.34-.07l-6.1-2.7a.83.83,0,0,1-.43-1.1.84.84,0,0,1,1.1-.43l6.1,2.7a.83.83,0,0,1,.43,1.1A.84.84,0,0,1,1229.33,995.32Zm-33.89-7.68a.85.85,0,0,1-.31-.06.84.84,0,0,1-.46-1.09l2.5-6.19a.83.83,0,0,1,1.08-.46.84.84,0,0,1,.47,1.09l-2.51,6.18A.83.83,0,0,1,1195.44,987.64Zm13.54-1.31a1,1,0,0,1-.34-.07l-6.1-2.7a.84.84,0,0,1,.67-1.53l6.11,2.7a.84.84,0,0,1-.34,1.6Z"/><path class="cls-30" d="M1250.12,956l2.27-4.06a3.57,3.57,0,0,1,3.32-.82c4.39,1.16,15.06,4.51,18.34,10.34l-1.44,5.25Z"/><path class="cls-31" d="M1264.74,957.55a6.38,6.38,0,0,1-2.84-1.25A2.81,2.81,0,0,1,1261,953l5.87-13.28,6.76,3-5.87,13.26A2.8,2.8,0,0,1,1264.74,957.55Z"/><path class="cls-32" d="M1315.56,984.89l2.27-4.06a3.56,3.56,0,0,1,3.32-.81c4.39,1.16,15.07,4.5,18.35,10.33l-1.45,5.25Z"/><path class="cls-33" d="M1330.18,986.48a6.51,6.51,0,0,1-2.84-1.26,2.81,2.81,0,0,1-.86-3.35L1333,967.2l6.76,3-6.49,14.67A2.82,2.82,0,0,1,1330.18,986.48Z"/><path class="cls-34" d="M1264.79,942.62l73.72,29.71a3.83,3.83,0,0,0,4.62-1.4,32,32,0,0,0,4.29-9.11,9.16,9.16,0,0,0-5-10.68c-13.41-6.31-47.92-21.55-70.26-22.44a7.26,7.26,0,0,0-6.05,2.84,17.66,17.66,0,0,0-3.44,7.3A3.41,3.41,0,0,0,1264.79,942.62Z"/><path class="cls-35" d="M1217.14,939.42c23.61,10.07,125.63,53.89,153.55,70.48a6.57,6.57,0,0,1,3.11,6.94c-1.74,8.65-6.33,28.5-14.76,46.46a5.74,5.74,0,0,1-6.52,3.11l-73-17-23.92-10.57-65.44-46a6.11,6.11,0,0,1-2.22-7.2c3.56-9.34,12.3-31.08,20.86-43.78A6.8,6.8,0,0,1,1217.14,939.42Z"/><path class="cls-36" d="M1354.18,1059.52a.84.84,0,0,1-.34-.08.83.83,0,0,1-.42-1.1c.88-1.95,1.75-4,2.59-6.11a.83.83,0,0,1,1.55.61c-.85,2.13-1.73,4.21-2.62,6.19A.84.84,0,0,1,1354.18,1059.52Zm-14.27-1.73-.19,0-6.5-1.52a.83.83,0,1,1,.38-1.62l6.5,1.51a.84.84,0,0,1-.19,1.65Zm-21.66-5-.19,0-6.5-1.52a.83.83,0,1,1,.38-1.62l6.5,1.51a.84.84,0,0,1,.62,1A.83.83,0,0,1,1318.25,1052.74Zm-21.67-5.06a.65.65,0,0,1-.19,0l-6.5-1.51a.84.84,0,0,1,.38-1.63l6.5,1.52a.82.82,0,0,1,.62,1A.83.83,0,0,1,1296.58,1047.68Zm-21.26-6.26a.78.78,0,0,1-.33-.07l-6.11-2.7a.83.83,0,1,1,.68-1.52l6.1,2.69a.84.84,0,0,1-.34,1.6Zm86.6-2.75a.67.67,0,0,1-.24,0,.82.82,0,0,1-.55-1c.67-2.21,1.29-4.35,1.86-6.39a.83.83,0,0,1,1-.58.82.82,0,0,1,.58,1c-.56,2-1.19,4.21-1.87,6.43A.83.83,0,0,1,1361.92,1038.67Zm-103.15-4.56a.76.76,0,0,1-.47-.16l-5.47-3.83a.84.84,0,0,1-.2-1.16.83.83,0,0,1,1.16-.21l5.46,3.84a.83.83,0,0,1,.21,1.16A.85.85,0,0,1,1258.77,1034.11Zm-18.2-12.79a.85.85,0,0,1-.48-.15l-5.46-3.84a.83.83,0,0,1,1-1.36l5.46,3.83a.84.84,0,0,1,.2,1.17A.83.83,0,0,1,1240.57,1021.32Zm126.87-4.21h-.17a.85.85,0,0,1-.65-1l.05-.25c-1.32-.78-2.85-1.64-4.57-2.58a.83.83,0,0,1,.8-1.46q2.83,1.54,5,2.82a1.09,1.09,0,0,1,.53.94l-.15.87A.84.84,0,0,1,1367.44,1017.11Zm-.43-1h0Zm-144.64-7.54a.83.83,0,0,1-.48-.15l-5.46-3.83a.84.84,0,1,1,1-1.37l5.46,3.84a.83.83,0,0,1-.48,1.51Zm126.29-2.29a.83.83,0,0,1-.37-.08q-2.83-1.41-6-2.94a.83.83,0,0,1,.73-1.5l6,2.94a.83.83,0,0,1-.37,1.58Zm-20.05-9.63a.85.85,0,0,1-.35-.08l-6-2.82a.84.84,0,0,1,.7-1.52L1329,995a.84.84,0,0,1,.4,1.11A.86.86,0,0,1,1328.61,996.61Zm-124.45-.86a.82.82,0,0,1-.47-.15l-5.47-3.84a.84.84,0,0,1,1-1.37l5.46,3.84a.83.83,0,0,1,.21,1.16A.85.85,0,0,1,1204.16,995.75Zm104.25-8.47a.71.71,0,0,1-.34-.08l-6.08-2.75a.84.84,0,0,1-.41-1.11.83.83,0,0,1,1.1-.41l6.08,2.76a.83.83,0,0,1-.35,1.59Zm-110.83-7.8a.87.87,0,0,1-.32-.06.84.84,0,0,1-.46-1.09c.8-1.94,1.67-4,2.6-6.17a.83.83,0,0,1,1.1-.43.82.82,0,0,1,.43,1.09c-.92,2.15-1.79,4.21-2.58,6.15A.84.84,0,0,1,1197.58,979.48Zm90.55-1.34a.84.84,0,0,1-.34-.08l-6.09-2.71a.84.84,0,0,1-.43-1.1.86.86,0,0,1,1.11-.43l6.09,2.72a.84.84,0,0,1-.34,1.6Zm-20.34-9a.78.78,0,0,1-.33-.07l-6.11-2.68a.84.84,0,0,1,.67-1.53l6.11,2.69a.83.83,0,0,1-.34,1.59Zm-20.38-8.91a1,1,0,0,1-.34-.07l-6.12-2.66a.84.84,0,0,1-.43-1.1.82.82,0,0,1,1.09-.43l6.13,2.66a.84.84,0,0,1-.33,1.6Zm-40.69-1A.84.84,0,0,1,1206,958c1-2,2.07-4,3.13-5.94a.83.83,0,0,1,1.46.81c-1,1.89-2.09,3.86-3.1,5.88A.84.84,0,0,1,1206.72,959.19Zm20.26-7.82a.78.78,0,0,1-.33-.07l-6.13-2.63a.83.83,0,1,1,.65-1.53l6.14,2.63a.84.84,0,0,1,.44,1.1A.85.85,0,0,1,1227,951.37Z"/><path class="cls-37" d="M1272.87,1058.44l-21-9.26a5.93,5.93,0,0,1-3.28-7.14l6.49-21.23a5.91,5.91,0,0,1,8.05-3.66l25.18,11.13a5.91,5.91,0,0,1,2.8,8.26l-10.71,19.37A5.92,5.92,0,0,1,1272.87,1058.44Z"/><path class="cls-38" d="M1271.93,1053.59l-16-7a4.51,4.51,0,0,1-2.5-5.43l4.94-16.16a4.5,4.5,0,0,1,6.13-2.78l19.16,8.46a4.5,4.5,0,0,1,2.13,6.29l-8.15,14.74A4.49,4.49,0,0,1,1271.93,1053.59Z"/><path class="cls-39" d="M1631,567l90.41-70.56a3.36,3.36,0,0,0,1.17-1.7l9.56-31.21a3.44,3.44,0,0,1,1.59-2l6.21-3.53a3.45,3.45,0,0,1,2-.43l19.29,1.88a3.44,3.44,0,0,1,3.07,2.88l1.46,9a3.45,3.45,0,0,1-.57,2.51l-2.59,3.74a3.45,3.45,0,0,0-.18,3.62h0a3.45,3.45,0,0,1-.44,3.95,70.07,70.07,0,0,1-24.12,16.95,3.4,3.4,0,0,0-1.16.82l-81.28,88.32a3.44,3.44,0,0,1-4.94.14l-19.8-19.24A3.44,3.44,0,0,1,1631,567Z"/><path class="cls-40" d="M1498.26,674.87l128.64-107.8a6.66,6.66,0,0,1,8.7.11c5.42,4.82,14.47,13.51,18.67,21.27a7.32,7.32,0,0,1-1.39,8.77L1519.79,724.66Z"/><path class="cls-41" d="M1519.79,672.76s22.36,22.83,18.51,62.2a61.81,61.81,0,0,1-12.79,31.79l-112.85,145.6a15.93,15.93,0,0,1-10.65,6.07c-16.6,2-60.73,6-92-4.33a4.18,4.18,0,0,1-2.27-6l102.58-180.5,62.14-72.3S1502.11,645.08,1519.79,672.76Z"/><path class="cls-42" d="M1378.84,863.16a2.23,2.23,0,0,1-1.79-3.55c1-1.32,98.22-132.28,104.8-148.22,6-14.6-8.13-25.84-8.74-26.31a2.22,2.22,0,0,1,2.72-3.51c.18.13,17.45,13.76,10.13,31.51-6.78,16.46-101.31,143.77-105.33,149.18A2.23,2.23,0,0,1,1378.84,863.16Z"/><path class="cls-43" d="M1375.41,864.47l-47.49,58.95s-7,38.13-13,43.28-23.3,8.61-27.81,0a67.66,67.66,0,0,1-5.94-17.43l15.42,6.54s-.35-2.31-.78-5.2a.23.23,0,0,0,0-.11c-.07-.35-.15-.78-.25-1.23a71,71,0,0,1-1.25-10c-.35-7.18.61-15.4,5.82-19.46,10.38-8.1,13.06-9.39,13.06-9.39l27.5-59.47S1359.68,862.87,1375.41,864.47Z"/><path class="cls-44" d="M1165.06,845.09a4.05,4.05,0,0,0-2.85,5.79c5.47,11,21.59,35.36,54.79,27.69,42.53-9.82,172.25-107.87,201.62-134.66s68.26-60.17,87.28-55.51,7.56-6.37-5.63-15.22c-10.22-6.86-15.46-16.21-12.72-18.93a.84.84,0,0,0,.21-.89.83.83,0,0,0-.7-.57c-8.73-1.15-28.47-1.32-54.86,13.22-35.33,19.47-207.81,86-265.56,66.75a3.69,3.69,0,0,0-4.78,2.88c-2.3,13.16-5.79,54.34,28,100.67C1189.83,836.31,1176.67,842.9,1165.06,845.09Z"/><path class="cls-45" d="M1196,835.13l-1.06-2c.44-.24,43.77-23.83,53-31.46l1.42,1.71C1240,811.19,1197.8,834.15,1196,835.13Z"/><path class="cls-46" d="M1525.22,604.87l-33.72,47.62a8,8,0,0,0,.7,10.06c4.54,4.85,12.2,11.68,20.46,13.24a6.42,6.42,0,0,0,6.6-2.78l17.93-27.53S1540.63,602.24,1525.22,604.87Z"/><path class="cls-47" d="M1534.74,565.08c.68.64,28.77,55.8,28.77,55.8l-31.84,15.37-34.39-48.32S1523.32,554.34,1534.74,565.08Z"/><path class="cls-48" d="M1511.37,589.26a5.08,5.08,0,0,0,.38,4.46l15.88,26.47a5.09,5.09,0,0,0,.87,1.09c1.89,1.76,8.36,6.87,13.36-.09,4.26-5.94,8.26-11.34,12.54-13.57a5.07,5.07,0,0,1,6.85,2.26,189.21,189.21,0,0,1,10.87,25.78,5,5,0,0,1-2.94,6.19c-6.45,2.62-19.19,7.34-30.5,8.9a5.08,5.08,0,0,1-4.8-2c-4.86-6.66-18.57-25.29-23.25-30-4.35-4.33-12.37-2.7-16-1.66a5.08,5.08,0,0,1-4.06-.53c-3.66-2.21-10.07-7.71-4.21-17a5.08,5.08,0,0,0-1.57-6.9c-4.1-2.69-8.54-7.75-4.31-15.94s11.94-9,17.16-8.4a5.26,5.26,0,0,0,5.53-3.07,3.36,3.36,0,0,1,2.62-2.07,4.93,4.93,0,0,0,4-5.79c-.92-4.69-.23-10.78,7.26-14.9,13.74-7.55,25.77,4.76,28.83,15.14s-12.3,17.73-22,19C1516.82,577.47,1512.93,585.22,1511.37,589.26Z"/><path class="cls-49" d="M1516.59,628.48s-6.11-17.87-13.93-17.22-14,8.45-4.28,17.21C1510.43,639.36,1516.59,628.48,1516.59,628.48Z"/><path class="cls-50" d="M1744.05,484.81a.85.85,0,0,1-.38-.09.8.8,0,0,1-.32-1.08c.19-.35,4.76-8.51,10.49-6.75,4.48,1.38,5.74.86,5.75.86a.76.76,0,0,1,1.08.24.83.83,0,0,1-.25,1.12c-.36.23-1.91.88-7.05-.7-4.5-1.39-8.58,5.92-8.62,6A.79.79,0,0,1,1744.05,484.81Z"/><path class="cls-8" d="M400.24,1252.49c-4.56,6.76-22.71,159.71-25.55,216.2a6.69,6.69,0,0,0,6.69,7h0A6.7,6.7,0,0,0,388,1470l33.18-212.68Z"/><path class="cls-8" d="M546.13,1252.49c4.56,6.76,22.71,159.71,25.55,216.2a6.69,6.69,0,0,1-6.69,7h0a6.7,6.7,0,0,1-6.62-5.66l-33.18-212.68Z"/><path class="cls-8" d="M372.79,1240.55v1.67c-.11,12,10.23,21.84,23.17,22.06l153.4,2.61c12.76.22,23.4-9,24-20.81l.08-1.53c.64-12.32-9.82-22.7-23.13-22.94l-153.46-2.75C383.72,1218.63,372.91,1228.38,372.79,1240.55Z"/><path class="cls-51" d="M671.23,1463.14c-27.27,0-39.34-2.34-44.73-4.47a10.34,10.34,0,0,0,10.07,8h96.48a4.7,4.7,0,0,0,4.52-5.93C726.57,1461.64,703.22,1463.14,671.23,1463.14Z"/><path class="cls-52" d="M737.57,1460.75a4.77,4.77,0,0,0-.79-1.64c-7.35-9.38-22.11-24.12-42.19-23.83-29.42.41-39.68,3.6-62.54.18l-5.39,17.87a10.23,10.23,0,0,0-.16,5.34c5.39,2.13,17.46,4.47,44.73,4.47C703.22,1463.14,726.57,1461.64,737.57,1460.75Z"/><path class="cls-53" d="M638.67,1416.19l-6.62,22.52s14.67,6.67,27.57,1.31l2.53-19.5Z"/><path class="cls-54" d="M838.62,1449c-21.26,17.08-32.12,22.82-37.66,24.55a10.35,10.35,0,0,0,12.86-.1L889,1413a4.68,4.68,0,0,0-.17-7.43C880.83,1413.13,863.56,1428.92,838.62,1449Z"/><path class="cls-55" d="M888.85,1405.56a4.23,4.23,0,0,0-1.64-.78c-11.57-2.68-32.27-4.86-47.75,7.93-22.67,18.75-28.68,27.65-48.63,39.31l6.94,17.25a10.28,10.28,0,0,0,3.19,4.24c5.54-1.73,16.4-7.47,37.66-24.55C863.56,1428.92,880.83,1413.13,888.85,1405.56Z"/><path class="cls-56" d="M497.06,1159.68s163.27,13.33,196.76,29.1-27.33,236.74-27.33,236.74-9.12,4.39-29.41-1.92c0,0,20.81-163.07,5.32-198.43l-176.77-28.91Z"/><path class="cls-57" d="M774.61,1421c1.51,1.38,16.22,31,16.22,31s16.37-3.54,19.71-13.9l-14.73-26.77Z"/><path class="cls-58" d="M398.73,1158.32a82.63,82.63,0,0,0-5.1,29.81c.3,23.53,19.21,42.62,42.71,43.79l193,8.81a9.24,9.24,0,0,1,8.54,7c4.54,17.55,26.71,71.42,135.07,178.91a8.74,8.74,0,0,0,10.81,1.18L799.2,1418a3.56,3.56,0,0,0,1.16-4.8L688,1221.33a43.51,43.51,0,0,0-26.43-19.6l-164.5-42Z"/><path class="cls-59" d="M622.63,862.86s-54.37,32.25-75.45,50l43.57,24.31s23.55-27.2,46-38.53Z"/><path class="cls-60" d="M395.22,1159.68s52.11,12.7,101.84,0c0,0,69.59-93.55,96.52-119,0,0,42.94,67.77,138.53,77.37l5.33-11.91s-76.1-35.08-99.52-89-32.84-76.89-54.15-91c-13.28-8.75-21.22-14.74-25.33-18a6.81,6.81,0,0,0-7.81-.5C528,921.47,421.58,994.37,395.22,1159.68Z"/><path class="cls-42" d="M590.75,1038.23a2.2,2.2,0,0,1-1.76-.87c-16.5-21.51-26-46-26.07-46.2a2.23,2.23,0,0,1,4.16-1.6c.09.24,9.35,24.12,25.44,45.1a2.23,2.23,0,0,1-1.77,3.57Z"/><path class="cls-61" d="M726.36,1099.91l10.76-2.87,32.67-7.57a15.14,15.14,0,0,1,11.48,1.94l28.09,17.67-77.57-.13Z"/><path class="cls-62" d="M675.71,839.21c.15,1-13.93,70-13.93,70l-39.21-8.87L626.19,833S673.16,821.56,675.71,839.21Z"/><path class="cls-63" d="M635,848l-4.68,35.31a5.09,5.09,0,0,0,0,1.35c.4,2.77,2.46,12.19,12,9.5,8.63-2.45,16.55-4.55,22-2.88a5,5,0,0,1,3.42,5.75c-1.28,6.27-4.42,20.34-9,32.14a5,5,0,0,1-6,2.94c-7.44-2.17-23-7.18-34.57-14.15a5,5,0,0,1-2.42-4.47c.37-8.92,1.42-36,.54-43.61-.82-7.13-9.57-11.4-13.38-12.93a4.94,4.94,0,0,1-2.72-2.74c-1.76-4.41-4.19-14.62,8.68-18.8A5,5,0,0,0,612,829c-1.9-5.31-2.7-13.4,7.25-17.86,10.11-4.54,17.67.86,21.75,5.24a5,5,0,0,0,6.34.75,3.93,3.93,0,0,1,4.48.15,4.91,4.91,0,0,0,6.94-2.1c2.42-5,7.36-10.3,17.26-8.61,17.58,3,19.57,22.49,14.93,33.9s-23.5,7.06-33,1.31c-7.19-4.37-16.53.21-20.59,2.66A5,5,0,0,0,635,848Z"/><path class="cls-64" d="M614.65,882.77s7.22-20.23-.2-25.18-18.41-2.39-16,12.27C601.47,888.09,614.65,882.77,614.65,882.77Z"/><path class="cls-65" d="M696.4,1124.3h.38l165.71-.17a7.41,7.41,0,1,0,0-14.81l-165.71.17a7.4,7.4,0,0,0-.36,14.8Z"/><path class="cls-66" d="M926.66,962l-.16.34-69.73,150.33a7.4,7.4,0,1,0,13.43,6.23l69.73-150.33A7.41,7.41,0,0,0,926.66,962Z"/><path class="cls-8" d="M770.18,1132.61c-.72,3-69.87,262.33-87.4,328.07a11.89,11.89,0,0,0,11.38,15h0a11.81,11.81,0,0,0,11.43-9l76.75-311.2Z"/><path class="cls-8" d="M808,1132.61c.73,3,69.87,262.33,87.4,328.07a11.89,11.89,0,0,1-11.37,15h0a11.81,11.81,0,0,1-11.43-9l-76.76-311.2Z"/><path class="cls-8" d="M810.93,1124.14H767.86v34.58a9,9,0,0,0,8.89,9h5.91v77.68a6.78,6.78,0,0,0,6.73,6.81h0a6.78,6.78,0,0,0,6.74-6.81v-77.68h3a11.88,11.88,0,0,0,11.81-12Z"/><path class="cls-67" d="M662,1115.83H902.43a7.39,7.39,0,0,1,7.14,5.59l3.35,13.17a7.44,7.44,0,0,1-7.17,9.32L659,1142.47a7.43,7.43,0,0,1-7.1-9.28l2.92-11.73A7.39,7.39,0,0,1,662,1115.83Z"/><path class="cls-2" d="M538.85,496.17s.24-1.29.75-3.64a1.9,1.9,0,0,1,3.63-.26q1.51-1.09,3.57-2.49a1.9,1.9,0,1,1,2.12,3.15c-3.22,2.17-5.43,3.86-6.5,4.67-.3.23-.5.39-.61.46L538,500.77Zm3.74-15.8c1.07-4,2.23-8,3.47-12a1.9,1.9,0,0,1,3.63,1.12c-1.23,4-2.38,8-3.43,11.88a1.9,1.9,0,0,1-2.33,1.34,1.74,1.74,0,0,1-.49-.2A1.92,1.92,0,0,1,542.59,480.37Zm14.24,5.44a1.89,1.89,0,0,1,.75-2.58A122.78,122.78,0,0,1,569,477.75a1.9,1.9,0,1,1,1.47,3.5,116.62,116.62,0,0,0-11,5.32,1.93,1.93,0,0,1-1.89,0A1.89,1.89,0,0,1,556.83,485.81Zm22.75-9.91a1.91,1.91,0,0,1,1.32-2.34,84,84,0,0,1,12.46-2.49,1.9,1.9,0,0,1,.45,3.77,80.19,80.19,0,0,0-11.89,2.38,1.88,1.88,0,0,1-1.49-.2A1.91,1.91,0,0,1,579.58,475.9ZM550,456.48c1.37-3.93,2.83-7.88,4.33-11.72a1.9,1.9,0,1,1,3.54,1.38c-1.49,3.8-2.93,7.7-4.28,11.59a1.91,1.91,0,0,1-2.42,1.17,2,2,0,0,1-.36-.17A1.9,1.9,0,0,1,550,456.48Zm54.13,16a1.9,1.9,0,0,1,2-1.75,58.52,58.52,0,0,1,9,1.36c1.17.27,2.31.52,3.42.74a1.89,1.89,0,0,1-.72,3.72c-1.16-.23-2.34-.48-3.56-.76a55.69,55.69,0,0,0-8.45-1.27,2,2,0,0,1-.84-.27A1.92,1.92,0,0,1,604.09,472.51ZM648,494a1.89,1.89,0,0,1,1.93-1.1,17.73,17.73,0,0,1,6.78-3.08,1.9,1.9,0,0,1,.92,3.68c-3.54.89-5.73,2.22-7.31,4.46L647,496.07Zm-19.33-17.9a1.89,1.89,0,0,1,2-1.85,45,45,0,0,0,11.81-1.11,1.9,1.9,0,1,1,.89,3.69,49.54,49.54,0,0,1-12.81,1.22,2,2,0,0,1-.93-.27A1.9,1.9,0,0,1,628.63,476.1Zm-69.57-42.9c1.68-3.85,3.44-7.67,5.23-11.36a1.9,1.9,0,1,1,3.42,1.66c-1.77,3.65-3.51,7.42-5.17,11.22a1.9,1.9,0,0,1-2.5,1,1.55,1.55,0,0,1-.22-.12A1.89,1.89,0,0,1,559.06,433.2Zm94,49.45c1.93-4.4,3.57-8.24,4.86-11.41a1.9,1.9,0,0,1,3.52,1.43c-1.31,3.21-3,7.08-4.9,11.51a1.9,1.9,0,0,1-2.51,1l-.21-.11A1.89,1.89,0,0,1,653.05,482.65Zm14.47,7.45a1.88,1.88,0,0,1,1.66-2.1c3.63-.43,7.6-.95,12.12-1.87a1.9,1.9,0,0,1,2.23,1.49,1.88,1.88,0,0,1-1.48,2.23c-4.65.94-8.72,1.48-12.42,1.92a1.88,1.88,0,0,1-1.2-.26A1.9,1.9,0,0,1,667.52,490.1Zm-15-19.07a1.9,1.9,0,0,1,.41-2.65,31.34,31.34,0,0,0,6.65-6.76c.54-.7,1-1.26,1.35-1.64a6.15,6.15,0,0,1,.49-.45,1.8,1.8,0,0,1,2.58.33,2,2,0,0,1-.34,2.76c-.29.3-.63.76-1.07,1.32a35.71,35.71,0,0,1-7.42,7.51,1.89,1.89,0,0,1-2.65-.42ZM570,410.71c1.79-3.28,3.64-6.52,5.51-9.62l.74-1.22a1.9,1.9,0,0,1,2.6-.64h0a1.89,1.89,0,0,1,.63,2.61l-.73,1.2c-1.84,3.05-3.67,6.24-5.43,9.48a1.89,1.89,0,0,1-2.57.76l-.07-.05A1.89,1.89,0,0,1,570,410.71Zm121.85,74.74a1.9,1.9,0,0,1,1.23-2.39,115.06,115.06,0,0,0,11.42-4.33,1.9,1.9,0,1,1,1.52,3.48,122.46,122.46,0,0,1-11.78,4.47,1.9,1.9,0,0,1-2.39-1.23Zm22.88-9.55a1.89,1.89,0,0,1,.75-2.58l2.31-1.29a83.5,83.5,0,0,0,8-5.17,1.9,1.9,0,1,1,2.24,3.06,87.21,87.21,0,0,1-8.36,5.41l-2.37,1.32a1.88,1.88,0,0,1-1.89,0A1.86,1.86,0,0,1,714.75,475.9ZM583.58,392a1.9,1.9,0,0,1-.49-2.64c2.41-3.49,4.91-6.88,7.43-10.1a1.88,1.88,0,0,1,2.67-.32,1.91,1.91,0,0,1,.32,2.67c-2.48,3.15-4.93,6.48-7.29,9.91a1.9,1.9,0,0,1-2.54.55ZM735,461.67a1.9,1.9,0,0,1,0-2.68,80.63,80.63,0,0,0,7.92-9.18,1.93,1.93,0,0,1,2.66-.4,1.9,1.9,0,0,1,.4,2.65,83.77,83.77,0,0,1-8.3,9.62,1.9,1.9,0,0,1-2.32.28A2,2,0,0,1,735,461.67ZM598.75,372.35a1.91,1.91,0,0,1-.14-2.69c2.85-3.14,5.81-6.16,8.79-9a1.9,1.9,0,1,1,2.61,2.75c-2.91,2.76-5.8,5.71-8.58,8.78a1.9,1.9,0,0,1-2.39.36A3.15,3.15,0,0,1,598.75,372.35Zm150.67,67.19a86.45,86.45,0,0,0,5-11.09,1.91,1.91,0,0,1,2.44-1.12,1.89,1.89,0,0,1,1.13,2.43,92,92,0,0,1-5.18,11.57,1.89,1.89,0,0,1-2.57.78l-.09-.05A1.89,1.89,0,0,1,749.42,439.54ZM616.59,355.1a1.9,1.9,0,0,1,.3-2.67c3.32-2.64,6.76-5.11,10.22-7.36a1.9,1.9,0,1,1,2.07,3.19c-3.36,2.18-6.7,4.58-9.93,7.14a1.89,1.89,0,0,1-2.16.14A1.74,1.74,0,0,1,616.59,355.1Zm141.19,61.69a53.14,53.14,0,0,0,1.46-11.35L758.09,400a1.9,1.9,0,1,1,3.71-.78l1.12,5.25h0c.58,2.7-.8,10.35-1.39,13.1a1.91,1.91,0,0,1-2.26,1.45,1.64,1.64,0,0,1-.58-.23A1.89,1.89,0,0,1,757.78,416.79ZM637.19,341.31a1.91,1.91,0,0,1,.83-2.56,115.6,115.6,0,0,1,11.52-5.13,1.89,1.89,0,1,1,1.35,3.54,113.71,113.71,0,0,0-11.14,5,1.9,1.9,0,0,1-1.85-.06A1.93,1.93,0,0,1,637.19,341.31Zm23-9.23a1.92,1.92,0,0,1,1.36-2.32,118.08,118.08,0,0,1,12.36-2.5,1.9,1.9,0,0,1,.55,3.76,110.88,110.88,0,0,0-12,2.42,1.93,1.93,0,0,1-1.46-.21A1.91,1.91,0,0,1,660.19,332.08Zm95.31,55.79-2.58-12.15a1.9,1.9,0,1,1,3.71-.78l2.59,12.14a1.9,1.9,0,0,1-3.72.79Zm-70.86-59.81a1.89,1.89,0,0,1,1.82-2c4.1-.17,8.33-.14,12.58.09a1.9,1.9,0,1,1-.2,3.79c-4.13-.23-8.24-.26-12.22-.09a1.83,1.83,0,0,1-1.06-.27A1.91,1.91,0,0,1,684.64,328.06Zm65.69,35.51-2.58-12.15a1.9,1.9,0,1,1,3.71-.79l2.59,12.15a1.89,1.89,0,0,1-1.46,2.25,1.87,1.87,0,0,1-1.38-.23A1.91,1.91,0,0,1,750.33,363.57ZM709.4,329a1.9,1.9,0,0,1,2.15-1.61c4,.59,8.19,1.35,12.35,2.29a1.9,1.9,0,0,1-.84,3.7c-4-.91-8.11-1.66-12-2.23a1.88,1.88,0,0,1-.71-.25A1.91,1.91,0,0,1,709.4,329Zm24.26,5.15a1.89,1.89,0,0,1,2.36-1.27c3.81,1.14,7.71,2.45,11.6,3.88l1,.36.28,1.32a1.9,1.9,0,0,1-3.32,1.61c-3.57-1.3-7.14-2.49-10.63-3.54a1.52,1.52,0,0,1-.43-.19A1.89,1.89,0,0,1,733.66,334.19Z"/><path class="cls-68" d="M752.39,378.7s-6.92,54.61-47.56,53.86-81.45-11.61-95.29,1.59c0,0,33.57-102.27,136.75-73.88Z"/><path class="cls-69" d="M866.43,399.5s12.41,52.6-1.29,64.76c-13,11.56-131.15,43.49-142.65,46.57a1,1,0,0,1-1.21-.65h0a13.82,13.82,0,0,1,1.61-12.44c12.06-17.66,48.52-70.09,64.63-82.4C807,400.46,866.43,399.5,866.43,399.5Z"/><path class="cls-70" d="M762.42,492.47a1.23,1.23,0,0,0,1,.13c.65-.19,65-18.79,92.45-27.88a13,13,0,0,0,8.84-11.06c.94-9.84,1.7-24.63-.05-39.26a1.24,1.24,0,0,0-2.47.3c1.82,15.17.81,30.77,0,38.72a10.47,10.47,0,0,1-7.15,8.94c-27.36,9.08-91.7,27.66-92.35,27.85a1.24,1.24,0,0,0-.85,1.54A1.27,1.27,0,0,0,762.42,492.47Z"/><path class="cls-71" d="M824.48,281.16s-23.5-48.67-41.8-49.49c-17.4-.77-129.25,48.84-140.13,53.68a1,1,0,0,0-.53,1.27h0a13.82,13.82,0,0,0,9.09,8.65c20.49,6.13,81.83,23.88,102.1,23.3C777.68,317.86,824.48,281.16,824.48,281.16Z"/><path class="cls-70" d="M685.65,276a1.28,1.28,0,0,0,1.13.08c.62-.27,62.3-26.36,89.27-36.54a10.47,10.47,0,0,1,11.19,2.44c5.6,5.69,16.21,17.17,24.36,30.09a1.22,1.22,0,0,0,1.71.39,1.24,1.24,0,0,0,.39-1.71c-8.27-13.12-19-24.75-24.69-30.52a13,13,0,0,0-13.84-3c-27,10.2-88.74,36.32-89.36,36.58a1.25,1.25,0,0,0-.66,1.63A1.3,1.3,0,0,0,685.65,276Z"/><path class="cls-72" d="M1037.28,338.19A278.85,278.85,0,0,1,960.82,380c-94.12,33.68-169.12,42.15-190.51,44a10.63,10.63,0,0,1-9.73-4.75,186.77,186.77,0,0,1-30.44-83.8,15.39,15.39,0,0,1,6.8-14.49c20.76-13.82,82.87-52.42,173.12-84.12a279,279,0,0,1,85.14-15.66C1024.81,263.25,1033.76,310.9,1037.28,338.19Z"/><path class="cls-73" d="M995.2,221.18c57.68-1.59,101.85,14.61,116.36,20.72a5.21,5.21,0,0,1,2.57,7.26c-7.39,13.84-31.36,54-76.85,89C1033.76,310.9,1024.81,263.25,995.2,221.18Z"/><ellipse class="cls-74" cx="941.67" cy="306.32" rx="46.88" ry="50.32" transform="translate(-48.23 332.25) rotate(-19.52)"/><path class="cls-5" d="M929,266.76c-19.45,6.9-29.21,29.4-21.81,50.27s29.16,32.21,48.6,25.31,29.21-29.4,21.82-50.27S948.48,259.87,929,266.76Z"/><path class="cls-70" d="M958.37,328.7a1.24,1.24,0,0,0,1.38-.07c10.66-7.9,14.88-22.53,10.26-35.56a32.7,32.7,0,0,0-4.93-9.05,1.24,1.24,0,0,0-2,1.52,29.84,29.84,0,0,1,4.54,8.36c4.26,12,.4,25.48-9.39,32.74a1.23,1.23,0,0,0-.26,1.73A1.13,1.13,0,0,0,958.37,328.7Z"/><ellipse class="cls-75" cx="852.86" cy="337.8" rx="30.97" ry="33.24" transform="translate(-63.85 304.42) rotate(-19.52)"/><path class="cls-5" d="M844.52,311.67c-12.85,4.55-19.3,19.42-14.41,33.21s19.26,21.27,32.11,16.72,19.3-19.42,14.41-33.21S857.37,307.11,844.52,311.67Z"/><path class="cls-70" d="M863.68,353a1.24,1.24,0,0,0,1.38-.07c7.19-5.33,10-15.19,6.92-24a21.75,21.75,0,0,0-3.32-6.1,1.24,1.24,0,1,0-2,1.52,19.7,19.7,0,0,1,2.94,5.41c2.75,7.76.26,16.46-6.06,21.14a1.25,1.25,0,0,0-.26,1.74A1.13,1.13,0,0,0,863.68,353Z"/></g></svg>