<svg xmlns="http://www.w3.org/2000/svg" xmlns:xlink="http://www.w3.org/1999/xlink" viewBox="0 0 523.15 404.36"><defs><style>.cls-1{isolation:isolate;}.cls-2{fill:url(#Áåçûìÿííûé_ãðàäèåíò_109);}.cls-3{fill:url(#Áåçûìÿííûé_ãðàäèåíò_109-2);}.cls-4{fill:url(#Áåçûìÿííûé_ãðàäèåíò_109-3);}.cls-10,.cls-101,.cls-106,.cls-11,.cls-111,.cls-112,.cls-114,.cls-12,.cls-120,.cls-121,.cls-122,.cls-123,.cls-13,.cls-14,.cls-15,.cls-16,.cls-17,.cls-18,.cls-19,.cls-20,.cls-21,.cls-22,.cls-23,.cls-24,.cls-25,.cls-26,.cls-27,.cls-28,.cls-29,.cls-31,.cls-33,.cls-35,.cls-40,.cls-41,.cls-42,.cls-43,.cls-44,.cls-45,.cls-46,.cls-48,.cls-49,.cls-5,.cls-50,.cls-55,.cls-6,.cls-66,.cls-67,.cls-69,.cls-7,.cls-70,.cls-71,.cls-72,.cls-73,.cls-74,.cls-75,.cls-76,.cls-77,.cls-78,.cls-79,.cls-8,.cls-80,.cls-89,.cls-9,.cls-91,.cls-92{fill-rule:evenodd;}.cls-5{fill:url(#Áåçûìÿííûé_ãðàäèåíò_118);}.cls-6{fill:url(#Áåçûìÿííûé_ãðàäèåíò_118-2);}.cls-7{fill:url(#Áåçûìÿííûé_ãðàäèåíò_118-3);}.cls-8{fill:url(#Áåçûìÿííûé_ãðàäèåíò_51);}.cls-9{fill:url(#Áåçûìÿííûé_ãðàäèåíò_47);}.cls-10{fill:url(#Áåçûìÿííûé_ãðàäèåíò_24);}.cls-11{fill:url(#Áåçûìÿííûé_ãðàäèåíò_41);}.cls-12{fill:url(#Áåçûìÿííûé_ãðàäèåíò_24-2);}.cls-13{fill:url(#Áåçûìÿííûé_ãðàäèåíò_41-2);}.cls-14{fill:url(#Áåçûìÿííûé_ãðàäèåíò_24-3);}.cls-15{fill:url(#Áåçûìÿííûé_ãðàäèåíò_41-3);}.cls-16{fill:url(#Áåçûìÿííûé_ãðàäèåíò_24-4);}.cls-17{fill:url(#Áåçûìÿííûé_ãðàäèåíò_24-5);}.cls-18{fill:url(#Áåçûìÿííûé_ãðàäèåíò_41-4);}.cls-19{fill:url(#Áåçûìÿííûé_ãðàäèåíò_24-6);}.cls-20{fill:url(#Áåçûìÿííûé_ãðàäèåíò_24-7);}.cls-21{fill:url(#Áåçûìÿííûé_ãðàäèåíò_24-8);}.cls-22{fill:url(#Áåçûìÿííûé_ãðàäèåíò_24-9);}.cls-23{fill:url(#Áåçûìÿííûé_ãðàäèåíò_24-10);}.cls-24{fill:url(#Áåçûìÿííûé_ãðàäèåíò_24-11);}.cls-25{fill:url(#Áåçûìÿííûé_ãðàäèåíò_41-5);}.cls-26{fill:url(#Áåçûìÿííûé_ãðàäèåíò_35);}.cls-27{fill:url(#Áåçûìÿííûé_ãðàäèåíò_24-12);}.cls-28{fill:url(#Áåçûìÿííûé_ãðàäèåíò_41-6);}.cls-114,.cls-29{fill:#ad8ea9;}.cls-29,.cls-39,.cls-51,.cls-52,.cls-53,.cls-93,.cls-94,.cls-97{opacity:0.8;}.cls-100,.cls-101,.cls-102,.cls-103,.cls-114,.cls-29,.cls-30,.cls-32,.cls-34,.cls-36,.cls-37,.cls-38,.cls-39,.cls-47,.cls-51,.cls-52,.cls-53,.cls-54,.cls-58,.cls-59,.cls-60,.cls-74,.cls-81,.cls-82,.cls-83,.cls-84,.cls-85,.cls-90,.cls-93,.cls-94,.cls-97{mix-blend-mode:multiply;}.cls-100,.cls-101,.cls-30,.cls-36,.cls-37,.cls-38,.cls-47,.cls-54,.cls-81,.cls-82,.cls-83,.cls-84,.cls-85,.cls-90{opacity:0.91;}.cls-30{fill:url(#Áåçûìÿííûé_ãðàäèåíò_73);}.cls-31{fill:url(#Áåçûìÿííûé_ãðàäèåíò_94);}.cls-32{fill:url(#Áåçûìÿííûé_ãðàäèåíò_73-2);}.cls-33{fill:url(#Áåçûìÿííûé_ãðàäèåíò_94-2);}.cls-34{fill:url(#Áåçûìÿííûé_ãðàäèåíò_73-3);}.cls-35{fill:url(#Áåçûìÿííûé_ãðàäèåíò_40);}.cls-36{fill:url(#Áåçûìÿííûé_ãðàäèåíò_73-4);}.cls-37{fill:url(#Áåçûìÿííûé_ãðàäèåíò_73-5);}.cls-38{fill:url(#Áåçûìÿííûé_ãðàäèåíò_73-6);}.cls-39{fill:url(#Áåçûìÿííûé_ãðàäèåíò_153);}.cls-40{fill:url(#Áåçûìÿííûé_ãðàäèåíò_68);}.cls-41{fill:url(#Áåçûìÿííûé_ãðàäèåíò_93);}.cls-42{fill:#b53d27;}.cls-43{fill:url(#Áåçûìÿííûé_ãðàäèåíò_26);}.cls-44{fill:url(#Áåçûìÿííûé_ãðàäèåíò_26-2);}.cls-45{fill:url(#Áåçûìÿííûé_ãðàäèåíò_93-2);}.cls-46{fill:url(#Áåçûìÿííûé_ãðàäèåíò_182);}.cls-101,.cls-47{fill:#935b9d;}.cls-48{fill:url(#Áåçûìÿííûé_ãðàäèåíò_184);}.cls-49{fill:#d2726c;}.cls-50{fill:url(#Áåçûìÿííûé_ãðàäèåíò_40-2);}.cls-51{fill:url(#Áåçûìÿííûé_ãðàäèåíò_153-2);}.cls-52{fill:url(#Áåçûìÿííûé_ãðàäèåíò_285);}.cls-53{fill:url(#Áåçûìÿííûé_ãðàäèåíò_285-2);}.cls-54{fill:url(#Áåçûìÿííûé_ãðàäèåíò_73-7);}.cls-55{fill:url(#Áåçûìÿííûé_ãðàäèåíò_16);}.cls-56{fill:url(#Áåçûìÿííûé_ãðàäèåíò_145);}.cls-57{fill:url(#Áåçûìÿííûé_ãðàäèåíò_145-2);}.cls-109,.cls-58,.cls-59,.cls-60{opacity:0.5;}.cls-58{fill:url(#Áåçûìÿííûé_ãðàäèåíò_2);}.cls-59{fill:url(#Áåçûìÿííûé_ãðàäèåíò_2-2);}.cls-60{fill:url(#Áåçûìÿííûé_ãðàäèåíò_2-3);}.cls-61{fill:url(#Áåçûìÿííûé_ãðàäèåíò_145-3);}.cls-62{fill:url(#Áåçûìÿííûé_ãðàäèåíò_145-4);}.cls-63{fill:url(#Áåçûìÿííûé_ãðàäèåíò_151);}.cls-64{fill:url(#Áåçûìÿííûé_ãðàäèåíò_152);}.cls-104,.cls-105,.cls-107,.cls-108,.cls-110,.cls-65,.cls-77,.cls-79,.cls-80,.cls-87,.cls-88,.cls-98,.cls-99{opacity:0.7;}.cls-104,.cls-105,.cls-107,.cls-108,.cls-109,.cls-110,.cls-65,.cls-77,.cls-79,.cls-80,.cls-86,.cls-87,.cls-88,.cls-95,.cls-96,.cls-98,.cls-99{mix-blend-mode:screen;}.cls-65{fill:url(#Áåçûìÿííûé_ãðàäèåíò_178);}.cls-66{fill:url(#Áåçûìÿííûé_ãðàäèåíò_33);}.cls-67{fill:url(#Áåçûìÿííûé_ãðàäèåíò_77);}.cls-68{fill:url(#Áåçûìÿííûé_ãðàäèåíò_153-3);}.cls-69{fill:url(#Áåçûìÿííûé_ãðàäèåíò_68-2);}.cls-70{fill:url(#Áåçûìÿííûé_ãðàäèåíò_132);}.cls-71{fill:url(#Áåçûìÿííûé_ãðàäèåíò_124);}.cls-72{fill:#50182a;}.cls-73{fill:#4b1124;}.cls-74{fill:#9a2463;opacity:0.6;}.cls-75{fill:url(#Áåçûìÿííûé_ãðàäèåíò_133);}.cls-76{fill:#755689;}.cls-113,.cls-77{fill:#fff;}.cls-78{fill:url(#Áåçûìÿííûé_ãðàäèåíò_133-2);}.cls-79{fill:url(#Áåçûìÿííûé_ãðàäèåíò_186);}.cls-80{fill:url(#Áåçûìÿííûé_ãðàäèåíò_186-2);}.cls-81{fill:url(#Áåçûìÿííûé_ãðàäèåíò_73-8);}.cls-82{fill:url(#Áåçûìÿííûé_ãðàäèåíò_73-9);}.cls-83{fill:url(#Áåçûìÿííûé_ãðàäèåíò_73-10);}.cls-84{fill:#93789d;}.cls-85{fill:url(#Áåçûìÿííûé_ãðàäèåíò_73-11);}.cls-86{opacity:0.33;fill:url(#Áåçûìÿííûé_ãðàäèåíò_167);}.cls-87{fill:url(#Áåçûìÿííûé_ãðàäèåíò_172);}.cls-88{fill:url(#Áåçûìÿííûé_ãðàäèåíò_172-2);}.cls-89{fill:url(#Áåçûìÿííûé_ãðàäèåíò_177);}.cls-90{fill:url(#Áåçûìÿííûé_ãðàäèåíò_73-12);}.cls-91{fill:url(#Áåçûìÿííûé_ãðàäèåíò_68-3);}.cls-92{fill:url(#Áåçûìÿííûé_ãðàäèåíò_84);}.cls-93{fill:url(#Áåçûìÿííûé_ãðàäèåíò_153-4);}.cls-94{fill:url(#Áåçûìÿííûé_ãðàäèåíò_153-5);}.cls-95{opacity:0.2;fill:url(#Áåçûìÿííûé_ãðàäèåíò_176);}.cls-114,.cls-96{opacity:0.4;}.cls-96{fill:url(#Áåçûìÿííûé_ãðàäèåíò_163);}.cls-97{fill:url(#Áåçûìÿííûé_ãðàäèåíò_153-6);}.cls-98{fill:url(#Áåçûìÿííûé_ãðàäèåíò_179);}.cls-99{fill:url(#Áåçûìÿííûé_ãðàäèåíò_181);}.cls-100{fill:url(#Áåçûìÿííûé_ãðàäèåíò_73-13);}.cls-102{fill:url(#Áåçûìÿííûé_ãðàäèåíò_73-14);}.cls-103{fill:url(#Áåçûìÿííûé_ãðàäèåíò_73-15);}.cls-104{fill:url(#Áåçûìÿííûé_ãðàäèåíò_185);}.cls-105{fill:url(#Áåçûìÿííûé_ãðàäèåíò_185-2);}.cls-106{fill:url(#Áåçûìÿííûé_ãðàäèåíò_201);}.cls-107{fill:url(#Áåçûìÿííûé_ãðàäèåíò_179-2);}.cls-108{fill:url(#Áåçûìÿííûé_ãðàäèåíò_208);}.cls-109{fill:url(#Áåçûìÿííûé_ãðàäèåíò_210);}.cls-110{fill:url(#Áåçûìÿííûé_ãðàäèåíò_210-2);}.cls-111{fill:#633640;}.cls-112{fill:url(#Áåçûìÿííûé_ãðàäèåíò_90);}.cls-115{fill:#79598a;}.cls-116{fill:url(#Áåçûìÿííûé_ãðàäèåíò_123);}.cls-117{fill:url(#Áåçûìÿííûé_ãðàäèåíò_123-2);}.cls-118{fill:url(#Áåçûìÿííûé_ãðàäèåíò_123-3);}.cls-119{fill:url(#Áåçûìÿííûé_ãðàäèåíò_123-4);}.cls-120{fill:url(#Áåçûìÿííûé_ãðàäèåíò_123-5);}.cls-121{fill:url(#Áåçûìÿííûé_ãðàäèåíò_123-6);}.cls-122{fill:url(#Áåçûìÿííûé_ãðàäèåíò_170);}.cls-123{fill:url(#Áåçûìÿííûé_ãðàäèåíò_170-2);}</style><radialGradient id="Áåçûìÿííûé_ãðàäèåíò_109" cx="225.53" cy="138.74" r="163.71" gradientUnits="userSpaceOnUse"><stop offset="0" stop-color="#98ffef"/><stop offset="0.98" stop-color="#77daff"/></radialGradient><radialGradient id="Áåçûìÿííûé_ãðàäèåíò_109-2" cx="430.27" cy="113.06" r="54.91" xlink:href="#Áåçûìÿííûé_ãðàäèåíò_109"/><radialGradient id="Áåçûìÿííûé_ãðàäèåíò_109-3" cx="39.69" cy="111.13" r="33.99" gradientTransform="translate(96 3.62) rotate(45)" xlink:href="#Áåçûìÿííûé_ãðàäèåíò_109"/><linearGradient id="Áåçûìÿííûé_ãðàäèåíò_118" x1="230.86" y1="117.69" x2="230.86" y2="73.35" gradientUnits="userSpaceOnUse"><stop offset="0.02" stop-color="#f0ecf4"/><stop offset="1" stop-color="#fff"/></linearGradient><linearGradient id="Áåçûìÿííûé_ãðàäèåíò_118-2" x1="91.78" y1="114.92" x2="121.88" y2="114.92" xlink:href="#Áåçûìÿííûé_ãðàäèåíò_118"/><linearGradient id="Áåçûìÿííûé_ãðàäèåíò_118-3" x1="330.71" y1="50.13" x2="330.71" y2="20.68" xlink:href="#Áåçûìÿííûé_ãðàäèåíò_118"/><linearGradient id="Áåçûìÿííûé_ãðàäèåíò_51" x1="55.44" y1="217.11" x2="55.44" y2="58.79" gradientTransform="matrix(-1, 0, 0, 1, 425.31, 0)" gradientUnits="userSpaceOnUse"><stop offset="0.02" stop-color="#8c74b1"/><stop offset="1" stop-color="#dcd8e9"/></linearGradient><linearGradient id="Áåçûìÿííûé_ãðàäèåíò_47" x1="58.93" y1="357.91" x2="58.93" y2="99.89" gradientTransform="matrix(-1, 0, 0, 1, 425.31, 0)" gradientUnits="userSpaceOnUse"><stop offset="0.02" stop-color="#8268aa"/><stop offset="1" stop-color="#a9a1ca"/></linearGradient><linearGradient id="Áåçûìÿííûé_ãðàäèåíò_24" x1="25.15" y1="364.76" x2="516.32" y2="364.76" gradientUnits="userSpaceOnUse"><stop offset="0" stop-color="#948abc"/><stop offset="0.98" stop-color="#b7a9ce"/></linearGradient><linearGradient id="Áåçûìÿííûé_ãðàäèåíò_41" x1="-91.01" y1="332.77" x2="400.16" y2="332.77" gradientTransform="matrix(-1, 0, 0, 1, 425.31, 0)" gradientUnits="userSpaceOnUse"><stop offset="0.02" stop-color="#d8cfe4"/><stop offset="1" stop-color="#f5f4f9"/></linearGradient><linearGradient id="Áåçûìÿííûé_ãðàäèåíò_24-2" x1="80.94" y1="313.02" x2="460.7" y2="313.02" xlink:href="#Áåçûìÿííûé_ãðàäèåíò_24"/><linearGradient id="Áåçûìÿííûé_ãðàäèåíò_41-2" x1="-35.39" y1="295.44" x2="344.36" y2="295.44" xlink:href="#Áåçûìÿííûé_ãðàäèåíò_41"/><linearGradient id="Áåçûìÿííûé_ãðàäèåíò_24-3" x1="116.21" y1="282.28" x2="428.83" y2="282.28" xlink:href="#Áåçûìÿííûé_ãðàäèåíò_24"/><linearGradient id="Áåçûìÿííûé_ãðàäèåíò_41-3" x1="-3.52" y1="272.97" x2="309.1" y2="272.97" xlink:href="#Áåçûìÿííûé_ãðàäèåíò_41"/><linearGradient id="Áåçûìÿííûé_ãðàäèåíò_24-4" x1="137.81" y1="264.39" x2="404.51" y2="264.39" xlink:href="#Áåçûìÿííûé_ãðàäèåíò_24"/><linearGradient id="Áåçûìÿííûé_ãðàäèåíò_24-5" x1="154.4" y1="251.17" x2="391.22" y2="251.17" xlink:href="#Áåçûìÿííûé_ãðàäèåíò_24"/><linearGradient id="Áåçûìÿííûé_ãðàäèåíò_41-4" x1="34.08" y1="246.01" x2="270.91" y2="246.01" xlink:href="#Áåçûìÿííûé_ãðàäèåíò_41"/><linearGradient id="Áåçûìÿííûé_ãðàäèåíò_24-6" x1="168.45" y1="352.45" x2="146.97" y2="192.28" gradientTransform="matrix(-1, 0, 0, 1, 425.31, 0)" xlink:href="#Áåçûìÿííûé_ãðàäèåíò_24"/><linearGradient id="Áåçûìÿííûé_ãðàäèåíò_24-7" x1="170.01" y1="356.73" x2="147.44" y2="188.4" gradientTransform="matrix(-1, 0, 0, 1, 425.31, 0)" xlink:href="#Áåçûìÿííûé_ãðàäèåíò_24"/><linearGradient id="Áåçûìÿííûé_ãðàäèåíò_24-8" x1="169.19" y1="355.65" x2="146.64" y2="187.49" gradientTransform="matrix(-1, 0, 0, 1, 425.31, 0)" xlink:href="#Áåçûìÿííûé_ãðàäèåíò_24"/><linearGradient id="Áåçûìÿííûé_ãðàäèåíò_24-9" x1="171.2" y1="353.76" x2="148.82" y2="186.84" gradientTransform="matrix(-1, 0, 0, 1, 425.31, 0)" xlink:href="#Áåçûìÿííûé_ãðàäèåíò_24"/><linearGradient id="Áåçûìÿííûé_ãðàäèåíò_24-10" x1="170.78" y1="349.73" x2="148.94" y2="186.9" gradientTransform="matrix(-1, 0, 0, 1, 425.31, 0)" xlink:href="#Áåçûìÿííûé_ãðàäèåíò_24"/><linearGradient id="Áåçûìÿííûé_ãðàäèåíò_24-11" x1="172.11" y1="353.69" x2="149.53" y2="185.26" gradientTransform="matrix(-1, 0, 0, 1, 425.31, 0)" xlink:href="#Áåçûìÿííûé_ãðàäèåíò_24"/><linearGradient id="Áåçûìÿííûé_ãðàäèåíò_41-5" x1="47.98" y1="235.59" x2="259.12" y2="235.59" xlink:href="#Áåçûìÿííûé_ãðàäèåíò_41"/><linearGradient id="Áåçûìÿííûé_ãðàäèåíò_35" x1="109.96" y1="190.18" x2="109.96" y2="61.7" gradientTransform="matrix(-1, 0, 0, 1, 425.31, 0)" gradientUnits="userSpaceOnUse"><stop offset="0" stop-color="#b2a5c9"/><stop offset="0.98" stop-color="#fdfdfd"/></linearGradient><linearGradient id="Áåçûìÿííûé_ãðàäèåíò_24-12" x1="174.87" y1="364.96" x2="150.52" y2="183.36" gradientTransform="matrix(-1, 0, 0, 1, 425.31, 0)" xlink:href="#Áåçûìÿííûé_ãðàäèåíò_24"/><linearGradient id="Áåçûìÿííûé_ãðàäèåíò_41-6" x1="20.83" y1="256.78" x2="287.49" y2="256.78" xlink:href="#Áåçûìÿííûé_ãðàäèåíò_41"/><linearGradient id="Áåçûìÿííûé_ãðàäèåíò_73" x1="112.92" y1="240.71" x2="216.87" y2="240.71" gradientUnits="userSpaceOnUse"><stop offset="0.02" stop-color="#d1a1d6"/><stop offset="0.99" stop-color="#bd89c4"/></linearGradient><linearGradient id="Áåçûìÿííûé_ãðàäèåíò_94" x1="191.94" y1="257.01" x2="191.94" y2="241.36" gradientUnits="userSpaceOnUse"><stop offset="0" stop-color="#aea8c2"/><stop offset="0.98" stop-color="#8c74b1"/></linearGradient><linearGradient id="Áåçûìÿííûé_ãðàäèåíò_73-2" x1="185.54" y1="249.55" x2="197.85" y2="249.55" xlink:href="#Áåçûìÿííûé_ãðàäèåíò_73"/><linearGradient id="Áåçûìÿííûé_ãðàäèåíò_94-2" x1="118.18" y1="325.67" x2="118.18" y2="308.65" xlink:href="#Áåçûìÿííûé_ãðàäèåíò_94"/><linearGradient id="Áåçûìÿííûé_ãðàäèåíò_73-3" x1="112.17" y1="317.16" x2="124.2" y2="317.16" xlink:href="#Áåçûìÿííûé_ãðàäèåíò_73"/><linearGradient id="Áåçûìÿííûé_ãðàäèåíò_40" x1="191.28" y1="147.32" x2="191.28" y2="126.71" gradientUnits="userSpaceOnUse"><stop offset="0.02" stop-color="#ff9f7a"/><stop offset="1" stop-color="#ffb06d"/></linearGradient><linearGradient id="Áåçûìÿííûé_ãðàäèåíò_73-4" x1="179.07" y1="146.44" x2="180.72" y2="137.1" xlink:href="#Áåçûìÿííûé_ãðàäèåíò_73"/><linearGradient id="Áåçûìÿííûé_ãðàäèåíò_73-5" x1="198.35" y1="134" x2="199.05" y2="130" xlink:href="#Áåçûìÿííûé_ãðàäèåíò_73"/><linearGradient id="Áåçûìÿííûé_ãðàäèåíò_73-6" x1="200.11" y1="135.88" x2="200.62" y2="132.95" xlink:href="#Áåçûìÿííûé_ãðàäèåíò_73"/><linearGradient id="Áåçûìÿííûé_ãðàäèåíò_153" x1="188.26" y1="147.54" x2="191.74" y2="127.78" gradientUnits="userSpaceOnUse"><stop offset="0.01" stop-color="#b060f4"/><stop offset="1" stop-color="#ffeadb"/></linearGradient><linearGradient id="Áåçûìÿííûé_ãðàäèåíò_68" x1="177.9" y1="150.21" x2="177.9" y2="139.12" gradientTransform="translate(-9.76 10) rotate(-3.85)" gradientUnits="userSpaceOnUse"><stop offset="0.02" stop-color="#e1dbeb"/><stop offset="0.17" stop-color="#e7e2f1"/><stop offset="0.56" stop-color="#f0ecfb"/><stop offset="1" stop-color="#f3f0fe"/></linearGradient><radialGradient id="Áåçûìÿííûé_ãðàäèåíò_93" cx="170.31" cy="142.73" r="5.82" gradientTransform="translate(-9.76 10) rotate(-3.85)" gradientUnits="userSpaceOnUse"><stop offset="0" stop-color="#4b3272"/><stop offset="0.99" stop-color="#432160"/></radialGradient><linearGradient id="Áåçûìÿííûé_ãðàäèåíò_26" x1="200.73" y1="271.5" x2="200.73" y2="260.98" gradientUnits="userSpaceOnUse"><stop offset="0" stop-color="#ffb827"/><stop offset="1" stop-color="#ff6b22"/></linearGradient><linearGradient id="Áåçûìÿííûé_ãðàäèåíò_26-2" x1="127.74" y1="343.59" x2="127.74" y2="329.3" xlink:href="#Áåçûìÿííûé_ãðàäèåíò_26"/><radialGradient id="Áåçûìÿííûé_ãðàäèåíò_93-2" cx="131.02" cy="215.01" r="61.76" gradientTransform="matrix(1, 0, 0, 1, 0, 0)" xlink:href="#Áåçûìÿííûé_ãðàäèåíò_93"/><linearGradient id="Áåçûìÿííûé_ãðàäèåíò_182" x1="110.66" y1="328.8" x2="144.27" y2="328.8" gradientUnits="userSpaceOnUse"><stop offset="0.01" stop-color="#570e33"/><stop offset="1" stop-color="#8d4009"/></linearGradient><linearGradient id="Áåçûìÿííûé_ãðàäèåíò_184" x1="183.13" y1="259.33" x2="218.19" y2="259.33" xlink:href="#Áåçûìÿííûé_ãðàäèåíò_182"/><linearGradient id="Áåçûìÿííûé_ãðàäèåíò_40-2" x1="164.63" y1="88.85" x2="164.63" y2="44.05" xlink:href="#Áåçûìÿííûé_ãðàäèåíò_40"/><linearGradient id="Áåçûìÿííûé_ãðàäèåíò_153-2" x1="164.07" y1="87.57" x2="164.07" y2="63.46" xlink:href="#Áåçûìÿííûé_ãðàäèåíò_153"/><linearGradient id="Áåçûìÿííûé_ãðàäèåíò_285" x1="178.04" y1="70.04" x2="180.86" y2="54.05" gradientUnits="userSpaceOnUse"><stop offset="0" stop-color="#ffeadb"/><stop offset="0.99" stop-color="#b060f4"/></linearGradient><linearGradient id="Áåçûìÿííûé_ãðàäèåíò_285-2" x1="172.69" y1="73.56" x2="174.16" y2="65.2" xlink:href="#Áåçûìÿííûé_ãðàäèåíò_285"/><linearGradient id="Áåçûìÿííûé_ãðàäèåíò_73-7" x1="161.72" y1="85.02" x2="164.34" y2="70.14" xlink:href="#Áåçûìÿííûé_ãðàäèåíò_73"/><linearGradient id="Áåçûìÿííûé_ãðàäèåíò_16" x1="163.9" y1="77.6" x2="163.9" y2="40.73" gradientUnits="userSpaceOnUse"><stop offset="0.01" stop-color="#721d3b"/><stop offset="1" stop-color="#a63624"/></linearGradient><linearGradient id="Áåçûìÿííûé_ãðàäèåíò_145" x1="172.46" y1="66.29" x2="174.31" y2="55.8" gradientUnits="userSpaceOnUse"><stop offset="0.01" stop-color="#ae3438"/><stop offset="0.99" stop-color="#e06e31"/></linearGradient><linearGradient id="Áåçûìÿííûé_ãðàäèåíò_145-2" x1="176.24" y1="59.67" x2="177.22" y2="54.07" xlink:href="#Áåçûìÿííûé_ãðàäèåíò_145"/><linearGradient id="Áåçûìÿííûé_ãðàäèåíò_2" x1="170.39" y1="44.62" x2="171.05" y2="40.85" gradientUnits="userSpaceOnUse"><stop offset="0.01" stop-color="#be6888"/><stop offset="1" stop-color="#8e81f4"/></linearGradient><linearGradient id="Áåçûìÿííûé_ãðàäèåíò_2-2" x1="160.23" y1="79.05" x2="166.23" y2="45.03" xlink:href="#Áåçûìÿííûé_ãðàäèåíò_2"/><linearGradient id="Áåçûìÿííûé_ãðàäèåíò_2-3" x1="166.55" y1="48.37" x2="167.11" y2="45.19" xlink:href="#Áåçûìÿííûé_ãðàäèåíò_2"/><linearGradient id="Áåçûìÿííûé_ãðàäèåíò_145-3" x1="169.81" y1="48.26" x2="183.13" y2="48.26" xlink:href="#Áåçûìÿííûé_ãðàäèåíò_145"/><linearGradient id="Áåçûìÿííûé_ãðàäèåíò_145-4" x1="160.52" y1="42.99" x2="170.43" y2="42.99" xlink:href="#Áåçûìÿííûé_ãðàäèåíò_145"/><linearGradient id="Áåçûìÿííûé_ãðàäèåíò_151" x1="170.79" y1="56.79" x2="172.45" y2="47.38" gradientUnits="userSpaceOnUse"><stop offset="0.01" stop-color="#ae3438"/><stop offset="0.99" stop-color="#b54f31"/></linearGradient><linearGradient id="Áåçûìÿííûé_ãðàäèåíò_152" x1="150.13" y1="53.12" x2="151.51" y2="45.3" gradientUnits="userSpaceOnUse"><stop offset="0.01" stop-color="#e06e31"/><stop offset="0.99" stop-color="#ae3438"/></linearGradient><linearGradient id="Áåçûìÿííûé_ãðàäèåíò_178" x1="169.81" y1="51.5" x2="183.33" y2="51.5" gradientUnits="userSpaceOnUse"><stop offset="0"/><stop offset="0.08" stop-color="#081a1c"/><stop offset="0.34" stop-color="#1f676b"/><stop offset="0.57" stop-color="#32a3ab"/><stop offset="0.77" stop-color="#3fcfd8"/><stop offset="0.91" stop-color="#47eaf5"/><stop offset="1" stop-color="#4af4ff"/></linearGradient><radialGradient id="Áåçûìÿííûé_ãðàäèåíò_33" cx="129.15" cy="175.33" r="9.01" xlink:href="#Áåçûìÿííûé_ãðàäèåíò_94"/><radialGradient id="Áåçûìÿííûé_ãðàäèåíò_77" cx="131.5" cy="114.8" r="40.64" gradientUnits="userSpaceOnUse"><stop offset="0" stop-color="#543c79"/><stop offset="0.99" stop-color="#432160"/></radialGradient><linearGradient id="Áåçûìÿííûé_ãðàäèåíò_153-3" x1="132.61" y1="175.45" x2="148.14" y2="87.38" xlink:href="#Áåçûìÿííûé_ãðàäèåíò_153"/><linearGradient id="Áåçûìÿííûé_ãðàäèåíò_68-2" x1="157.57" y1="85.48" x2="157.57" y2="82.02" gradientTransform="matrix(1, 0, 0, 1, 0, 0)" xlink:href="#Áåçûìÿííûé_ãðàäèåíò_68"/><linearGradient id="Áåçûìÿííûé_ãðàäèåíò_132" x1="106.59" y1="225.85" x2="178.3" y2="225.85" gradientTransform="matrix(1, -0.07, 0.07, 1, -15.18, 7.4)" gradientUnits="userSpaceOnUse"><stop offset="0.01" stop-color="#570e33"/><stop offset="1" stop-color="#893100"/></linearGradient><linearGradient id="Áåçûìÿííûé_ãðàäèåíò_124" x1="121.92" y1="204.75" x2="178.3" y2="204.75" gradientTransform="matrix(1, -0.07, 0.07, 1, -15.18, 7.4)" gradientUnits="userSpaceOnUse"><stop offset="0" stop-color="#8d4009"/><stop offset="0.99" stop-color="#cc5a33"/></linearGradient><linearGradient id="Áåçûìÿííûé_ãðàäèåíò_133" x1="153.28" y1="230.67" x2="153.28" y2="222.72" xlink:href="#Áåçûìÿííûé_ãðàäèåíò_94"/><linearGradient id="Áåçûìÿííûé_ãðàäèåíò_133-2" x1="148.62" y1="241.55" x2="148.62" y2="236.13" xlink:href="#Áåçûìÿííûé_ãðàäèåíò_94"/><linearGradient id="Áåçûìÿííûé_ãðàäèåíò_186" x1="164.76" y1="216.71" x2="176.81" y2="216.71" xlink:href="#Áåçûìÿííûé_ãðàäèåíò_178"/><linearGradient id="Áåçûìÿííûé_ãðàäèåíò_186-2" x1="160.12" y1="240.27" x2="170.34" y2="240.27" xlink:href="#Áåçûìÿííûé_ãðàäèåíò_178"/><linearGradient id="Áåçûìÿííûé_ãðàäèåíò_73-8" x1="172.16" y1="119.92" x2="172.39" y2="118.63" xlink:href="#Áåçûìÿííûé_ãðàäèåíò_73"/><linearGradient id="Áåçûìÿííûé_ãðàäèåíò_73-9" x1="144.33" y1="187.9" x2="160.71" y2="95" xlink:href="#Áåçûìÿííûé_ãðàäèåíò_73"/><linearGradient id="Áåçûìÿííûé_ãðàäèåíò_73-10" x1="150.85" y1="97.84" x2="153.63" y2="82.09" xlink:href="#Áåçûìÿííûé_ãðàäèåíò_73"/><linearGradient id="Áåçûìÿííûé_ãðàäèåíò_73-11" x1="191.45" y1="193.07" x2="211.65" y2="193.07" xlink:href="#Áåçûìÿííûé_ãðàäèåíò_73"/><linearGradient id="Áåçûìÿííûé_ãðàäèåíò_167" x1="166.78" y1="172.6" x2="218.02" y2="172.6" gradientUnits="userSpaceOnUse"><stop offset="0"/><stop offset="0.08" stop-color="#11121c"/><stop offset="0.34" stop-color="#42476b"/><stop offset="0.57" stop-color="#6971ab"/><stop offset="0.77" stop-color="#858fd8"/><stop offset="0.91" stop-color="#97a2f5"/><stop offset="1" stop-color="#9da9ff"/></linearGradient><linearGradient id="Áåçûìÿííûé_ãðàäèåíò_172" x1="132.77" y1="309.51" x2="132.77" y2="256.88" gradientUnits="userSpaceOnUse"><stop offset="0" stop-color="#4af4ff"/><stop offset="0.09" stop-color="#47eaf5"/><stop offset="0.23" stop-color="#3fcfd8"/><stop offset="0.43" stop-color="#32a3ab"/><stop offset="0.66" stop-color="#1f676b"/><stop offset="0.92" stop-color="#081a1c"/><stop offset="1"/></linearGradient><linearGradient id="Áåçûìÿííûé_ãðàäèåíò_172-2" x1="212.46" y1="233.46" x2="212.46" y2="178.32" xlink:href="#Áåçûìÿííûé_ãðàäèåíò_172"/><linearGradient id="Áåçûìÿííûé_ãðàäèåíò_177" x1="154.03" y1="196.07" x2="154.03" y2="178.34" gradientUnits="userSpaceOnUse"><stop offset="0" stop-color="#f4867c"/><stop offset="0.98" stop-color="#ff9f68"/></linearGradient><linearGradient id="Áåçûìÿííûé_ãðàäèåíò_73-12" x1="152.35" y1="196.51" x2="155.41" y2="179.16" xlink:href="#Áåçûìÿííûé_ãðàäèåíò_73"/><linearGradient id="Áåçûìÿííûé_ãðàäèåíò_68-3" x1="153.56" y1="180.67" x2="153.56" y2="178.03" gradientTransform="matrix(1, 0, 0, 1, 0, 0)" xlink:href="#Áåçûìÿííûé_ãðàäèåíò_68"/><linearGradient id="Áåçûìÿííûé_ãðàäèåíò_84" x1="166.01" y1="179.99" x2="166.01" y2="86.78" gradientUnits="userSpaceOnUse"><stop offset="0" stop-color="#644e85"/><stop offset="0.99" stop-color="#4b2b67"/></linearGradient><linearGradient id="Áåçûìÿííûé_ãðàäèåíò_153-4" x1="157.2" y1="176.59" x2="164.63" y2="134.41" xlink:href="#Áåçûìÿííûé_ãðàäèåíò_153"/><linearGradient id="Áåçûìÿííûé_ãðàäèåíò_153-5" x1="157.34" y1="176.61" x2="161.16" y2="154.89" xlink:href="#Áåçûìÿííûé_ãðàäèåíò_153"/><linearGradient id="Áåçûìÿííûé_ãðàäèåíò_176" x1="154.03" y1="108.3" x2="188.12" y2="108.3" gradientUnits="userSpaceOnUse"><stop offset="0"/><stop offset="0.08" stop-color="#071c1c"/><stop offset="0.34" stop-color="#1c6b6b"/><stop offset="0.57" stop-color="#2dabab"/><stop offset="0.77" stop-color="#39d8d8"/><stop offset="0.91" stop-color="#40f5f5"/><stop offset="1" stop-color="#43ffff"/></linearGradient><linearGradient id="Áåçûìÿííûé_ãðàäèåíò_163" x1="151.17" y1="139.28" x2="153.11" y2="128.28" gradientUnits="userSpaceOnUse"><stop offset="0" stop-color="#6a6f77"/><stop offset="0.15" stop-color="#61656d"/><stop offset="0.42" stop-color="#484b51"/><stop offset="0.76" stop-color="#1f2123"/><stop offset="1"/></linearGradient><linearGradient id="Áåçûìÿííûé_ãðàäèåíò_153-6" x1="146.53" y1="179.49" x2="150.52" y2="156.91" xlink:href="#Áåçûìÿííûé_ãðàäèåíò_153"/><linearGradient id="Áåçûìÿííûé_ãðàäèåíò_179" x1="166.75" y1="104.53" x2="187.85" y2="104.53" xlink:href="#Áåçûìÿííûé_ãðàäèåíò_178"/><linearGradient id="Áåçûìÿííûé_ãðàäèåíò_181" x1="174.35" y1="171.59" x2="218" y2="171.59" xlink:href="#Áåçûìÿííûé_ãðàäèåíò_178"/><linearGradient id="Áåçûìÿííûé_ãðàäèåíò_73-13" x1="131.69" y1="326.13" x2="131.7" y2="326.13" xlink:href="#Áåçûìÿííûé_ãðàäèåíò_73"/><linearGradient id="Áåçûìÿííûé_ãðàäèåíò_73-14" x1="110.66" y1="330.2" x2="144.27" y2="330.2" xlink:href="#Áåçûìÿííûé_ãðàäèåíò_73"/><linearGradient id="Áåçûìÿííûé_ãðàäèåíò_73-15" x1="183.13" y1="260.61" x2="218.19" y2="260.61" xlink:href="#Áåçûìÿííûé_ãðàäèåíò_73"/><linearGradient id="Áåçûìÿííûé_ãðàäèåíò_185" x1="204.27" y1="261.97" x2="215.52" y2="261.97" xlink:href="#Áåçûìÿííûé_ãðàäèåíò_178"/><linearGradient id="Áåçûìÿííûé_ãðàäèåíò_185-2" x1="135.4" y1="331.21" x2="141.88" y2="331.21" xlink:href="#Áåçûìÿííûé_ãðàäèåíò_178"/><linearGradient id="Áåçûìÿííûé_ãðàäèåíò_201" x1="152.99" y1="134.78" x2="180.57" y2="134.78" gradientUnits="userSpaceOnUse"><stop offset="0" stop-color="#d40e27"/><stop offset="1" stop-color="#ff4025"/></linearGradient><linearGradient id="Áåçûìÿííûé_ãðàäèåíò_179-2" x1="170.8" y1="140.91" x2="174.12" y2="122.07" xlink:href="#Áåçûìÿííûé_ãðàäèåíò_178"/><linearGradient id="Áåçûìÿííûé_ãðàäèåíò_208" x1="132.12" y1="149.8" x2="132.12" y2="106.72" gradientUnits="userSpaceOnUse"><stop offset="0"/><stop offset="0.08" stop-color="#1c090d"/><stop offset="0.34" stop-color="#6b2233"/><stop offset="0.57" stop-color="#ab3651"/><stop offset="0.77" stop-color="#d84567"/><stop offset="0.91" stop-color="#f54e74"/><stop offset="1" stop-color="#ff5179"/></linearGradient><linearGradient id="Áåçûìÿííûé_ãðàäèåíò_210" x1="114.88" y1="317.86" x2="114.88" y2="262.97" gradientUnits="userSpaceOnUse"><stop offset="0" stop-color="#ff5179"/><stop offset="0.09" stop-color="#f54e74"/><stop offset="0.23" stop-color="#d84567"/><stop offset="0.43" stop-color="#ab3651"/><stop offset="0.66" stop-color="#6b2233"/><stop offset="0.92" stop-color="#1c090d"/><stop offset="1"/></linearGradient><linearGradient id="Áåçûìÿííûé_ãðàäèåíò_210-2" x1="189.84" y1="244.99" x2="189.84" y2="203.29" xlink:href="#Áåçûìÿííûé_ãðàäèåíò_210"/><radialGradient id="Áåçûìÿííûé_ãðàäèåíò_90" cx="270.66" cy="296.79" r="156.74" gradientUnits="userSpaceOnUse"><stop offset="0" stop-color="#ff5627"/><stop offset="1" stop-color="#e03347"/></radialGradient><radialGradient id="Áåçûìÿííûé_ãðàäèåíò_123" cx="476.79" cy="240.99" r="18.21" xlink:href="#Áåçûìÿííûé_ãðàäèåíò_90"/><radialGradient id="Áåçûìÿííûé_ãðàäèåíò_123-2" cx="463.02" cy="199.99" r="11.61" gradientTransform="translate(279.7 -265.8) rotate(45)" xlink:href="#Áåçûìÿííûé_ãðàäèåíò_90"/><radialGradient id="Áåçûìÿííûé_ãðàäèåíò_123-3" cx="424.99" cy="240.44" r="8.88" xlink:href="#Áåçûìÿííûé_ãðàäèåíò_90"/><radialGradient id="Áåçûìÿííûé_ãðàäèåíò_123-4" cx="407.84" cy="206.91" r="7.63" gradientTransform="translate(267.41 -224.74) rotate(45)" xlink:href="#Áåçûìÿííûé_ãðàäèåíò_90"/><radialGradient id="Áåçûìÿííûé_ãðàäèåíò_123-5" cx="399.66" cy="219.99" r="5.97" xlink:href="#Áåçûìÿííûé_ãðàäèåíò_90"/><radialGradient id="Áåçûìÿííûé_ãðàäèåíò_123-6" cx="350.44" cy="187.25" r="4.97" xlink:href="#Áåçûìÿííûé_ãðàäèåíò_90"/><linearGradient id="Áåçûìÿííûé_ãðàäèåíò_170" x1="418.14" y1="110.16" x2="418.14" y2="106.44" gradientUnits="userSpaceOnUse"><stop offset="0" stop-color="#e03347"/><stop offset="1" stop-color="#ff5627"/></linearGradient><linearGradient id="Áåçûìÿííûé_ãðàäèåíò_170-2" x1="383.9" y1="143.35" x2="383.9" y2="135.93" xlink:href="#Áåçûìÿííûé_ãðàäèåíò_170"/></defs><title>Artboard 2</title><g class="cls-1"><g id="career"><circle class="cls-2" cx="244.49" cy="170.35" r="163.71"/><circle class="cls-3" cx="436.63" cy="123.66" r="54.91"/><circle class="cls-4" cx="43.63" cy="117.69" r="33.99" transform="translate(-70.44 65.32) rotate(-45)"/><path class="cls-5" d="M158.08,117.69H303.61s.92-7.68-7.35-11.24-16.24,8.9-16.24,8.9-7-36-42.21-41.54-43,40.38-43,40.38-1.37-6.1-5.15-5.63-5.83,7.26-5.83,7.26S168.91,102.89,158.08,117.69Z"/><path class="cls-6" d="M121.88,117.69H91.78S111.77,105.2,121.88,117.69Z"/><path class="cls-7" d="M254.49,49.29l152.44.84s-3.33-10.49-19.24-2.35c0,0-4.93-26.52-29.37-27.09S327.25,47.6,327.25,47.6s-7.39-6.26-14.78-5.88-8.72,6.06-8.72,6.06-10.61-22.35-25.39-23.87S254.49,49.29,254.49,49.29Z"/><polygon class="cls-8" points="341.91 58.79 342.09 210.88 376.89 217.11 397.83 93.01 341.91 58.79"/><polygon class="cls-9" points="426.64 357.91 408.59 99.89 379.45 118.76 308.9 178.34 306.12 196.07 426.64 357.91"/><polygon class="cls-10" points="508.5 385.95 516.32 343.59 25.15 343.58 29.28 378.48 508.5 385.95"/><polygon class="cls-11" points="516.32 343.59 460.21 325.57 84.54 321.94 25.15 343.58 516.32 343.59"/><polygon class="cls-12" points="460.21 325.57 460.7 300.46 80.94 300.46 84.54 321.94 460.21 325.57"/><polygon class="cls-13" points="80.94 300.46 118.28 290.42 428.55 290.42 460.7 300.46 80.94 300.46"/><polygon class="cls-14" points="118.14 290.42 116.21 274.14 428.83 275.36 428.55 290.42 118.14 290.42"/><polygon class="cls-15" points="116.21 274.14 140.79 271.46 404.51 270.58 428.83 275.36 116.21 274.14"/><polygon class="cls-16" points="404.51 270.58 404.48 257.28 137.81 257.84 139.12 271.5 404.51 270.58"/><polygon class="cls-17" points="391.23 256.56 391.23 247.11 154.4 245.78 154.73 256.56 391.23 256.56"/><polygon class="cls-18" points="391.23 247.11 377.33 245.78 166.52 244.91 154.4 245.78 391.23 247.11"/><polygon class="cls-19" points="377.33 245.78 377.33 235.73 166.19 236.82 166.48 244.91 377.33 245.78"/><polygon class="cls-20" points="365.77 237.43 365.77 227.29 178.1 227.89 178.47 238.74 365.77 237.43"/><polygon class="cls-21" points="358.5 221.39 359.23 229.79 188.11 229.79 188.03 220.34 358.5 221.39"/><polygon class="cls-22" points="348.26 214.13 348.48 223.09 196.25 224.29 195.97 214.13 348.26 214.13"/><polygon class="cls-23" points="341.42 208.89 341.91 216.46 204.03 217.11 204.03 207.96 341.42 208.89"/><polygon class="cls-24" points="334.92 203.86 335.29 209.94 210.57 208.02 210.57 203.11 334.92 203.86"/><polygon class="cls-25" points="166.19 236.82 178.39 235.64 365.77 234.37 377.33 235.73 166.19 236.82"/><polygon class="cls-26" points="222.11 198.31 383.25 92.71 341.91 58.79 347.81 59.19 408.59 99.89 321.33 192 321.33 192 321.33 196.07 321.16 199.84 312 201.84 222.11 198.31"/><polygon class="cls-27" points="327.84 204.73 327.84 198.31 216.87 198.31 216.87 204.7 327.84 204.73"/><polygon class="cls-28" points="404.48 257.28 391.23 255.71 152.23 256.56 137.81 257.84 404.48 257.28"/><polygon class="cls-29" points="180.53 273.74 189.84 272.97 214.24 272.97 203.5 274.51 203.26 290.42 168.31 300.46 169.12 322.85 127.47 343.59 127.47 378.85 43.63 378.85 46.08 343.59 130.9 322.48 132.77 300.46 179.04 290.42 180.53 273.74"/><path class="cls-30" d="M207.68,233.46s-5.08,3.41-6,4.37a45.62,45.62,0,0,0-3.49,5.76c.29-1.27,10.07-43.19,9.37-45.61s-11.28-1.1-16.07,5.31c.82-3.49,8.44-15.24,8.44-15.24-4.73.49-26.54,5.2-26.54,5.2-4.73,1.23-18.21,7.38-18.21,7.38-1.84,12.53-12.24,43.69-16.54,56.25a25.55,25.55,0,0,0-4.48,4.1c-1.93,2.51-8.59,38.14-7.19,48.53a12.31,12.31,0,0,0-3.5,1.23,10.25,10.25,0,0,0-2.15,2.31c1.73-10.19,6.34-38.26,6.19-48.5A12.69,12.69,0,0,0,112.92,263c.7-1.4,4.9-5.43,7.71-11s9.94-50.9,9.94-50.9l-1.28-3,2.55-14.84,37.66-13.91a29.63,29.63,0,0,1,4.07-.94l-5.26,6.38s-1.84,2.89,13,2.73,35.55-1.84,35.55-1.84S201.55,222,207.68,233.46Z"/><path class="cls-31" d="M198.34,247.79l-.49,1.73h0l0,.19s.19,4.18-1.57,6.21a3,3,0,0,1-2.08,1.08s-.15-.3-.4-.77c-.8-1.45-2.51-4.47-3.35-4.77a18.46,18.46,0,0,0-4.26-.35s-.7-1.23-.58-1.7,1-.87,1-.87l1-3.3.48-1.55,9.47-2.34s0,.63-.11,1.51-.13,2.24-.1,3.25a4.83,4.83,0,0,0,.21,1.67Z"/><path class="cls-32" d="M197.85,249.53l0,.19s.19,4.18-1.57,6.21l-2.48.31c-.8-1.45-2.51-4.47-3.35-4.77a18.46,18.46,0,0,0-4.26-.35s-.7-1.23-.58-1.7,1-.87,1-.87l1-3.3,5.54-2.22,4.3-.16c-.07,1-.13,2.24-.1,3.25v0s-1.4,2.42-7.79,2.49l-1.41.55s8,1.59,9.79.33Z"/><path class="cls-33" d="M123.84,325.27c-1.23,1.53-11.4-1.82-11.4-1.82l-.27-5.92,10.51-8.88-.17,4.55s1.18,0,1.31.39-1,2.55-1,2.55S125.06,323.73,123.84,325.27Z"/><path class="cls-34" d="M123.84,325.27c-1.23,1.53-11.4-1.82-11.4-1.82l-.27-5.92,10.51-8.88-.17,4.55a19.92,19.92,0,0,1-7.08,7.3c.45-.2,7.48-3.54,8.39-6.91.14.35-1,2.55-1,2.55S125.06,323.73,123.84,325.27Z"/><path class="cls-35" d="M206.83,134.1s.47.7.23,1.07-1.55.46-3.61.9h0l-.39.08-.28.07-.14,0c-1.43.33-3.1.75-4.86,1.33a31.61,31.61,0,0,0-9.06,5.07l1,.35a31.59,31.59,0,0,0,4.47-1,18.38,18.38,0,0,0,2.69-1.62s3.47-.35,5,1.38l-.46,1.26a16.38,16.38,0,0,0-7.32,1.31,56.47,56.47,0,0,1-7,3,.88.88,0,0,1-.33,0,6.36,6.36,0,0,1-.61-.23l-.37-.18c-1.09-.51-2.58-1.37-3.66-1.91l-.45-.23a.33.33,0,0,1-.12-.05l-.3-.12a0,0,0,0,0,0,0,.59.59,0,0,0-.23-.07.38.38,0,0,0-.17,0,9,9,0,0,0-1.9.5c-.93.3-2,.7-2.78,1l-1.08.41,1.84-8.16.7-.24.41-.14.41-.14c1-.34,2.27-.79,3-1.08,1.31-.54,8.35-8.1,10.06-8.84a27.27,27.27,0,0,1,6-1,1.7,1.7,0,0,1-.24,1.08,36.79,36.79,0,0,1-3.55,1.61h0a13.55,13.55,0,0,0-1.75.82,13.56,13.56,0,0,0-1.63,1.77,22.94,22.94,0,0,1,5.46-2.34l.55-.12c2.81-.49,8.9.49,8.9.49s.29,1.26-.19,1.69a9.84,9.84,0,0,1,2.34.65C207.74,132.69,207.43,133.75,206.83,134.1Z"/><path class="cls-36" d="M182.35,145.08a6,6,0,0,0-1.54-.65,9,9,0,0,0-1.9.5c-.93.3-2,.7-2.78,1l1.74-8.08.23-1.05,2.12.22h0C181.63,139.28,182.35,145.08,182.35,145.08Z"/><path class="cls-37" d="M205.25,131.1a56.14,56.14,0,0,0-7.16,0,21.91,21.91,0,0,0-6,1.81s6.56-2.54,12.86-1.21A1.32,1.32,0,0,0,205.25,131.1Z"/><path class="cls-38" d="M206.83,134.1a25.65,25.65,0,0,0-7.25-.72,13.34,13.34,0,0,0-5.69,1.4,42.88,42.88,0,0,1,7.22-1C203.83,133.75,206.83,134.1,206.83,134.1Z"/><path class="cls-39" d="M202.61,136.26c-1.43.33-3.1.75-4.86,1.33a31.61,31.61,0,0,0-9.06,5.07s-2.12,3.24-2,4.61a6.36,6.36,0,0,1-.61-.23l-.37-.18c-1.09-.51-2.58-1.37-3.66-1.91l-.45-.23a.33.33,0,0,1-.12-.05l-.3-.12a0,0,0,0,0,0,0,1.19,1.19,0,0,0-.23-.07.38.38,0,0,0-.17,0,9,9,0,0,0-1.9.5l-1.32-7,.41-.14.41-.14c1-.34,2.27-.79,3-1.08,1.31-.54,8.35-8.1,10.06-8.84l-.62.93,1.87.49,1,.25a13.55,13.55,0,0,0-1.75.82,13.56,13.56,0,0,0-1.63,1.77,22.94,22.94,0,0,1,5.46-2.34c0,.51.09,1.59.55,1.78,0,0,0,1.94.67,2.29,0,0,0,2.68,1.73,2.89A14.8,14.8,0,0,0,202.61,136.26Z"/><path class="cls-40" d="M177.43,136.89l2.16-.2s1.35,6.24-1.48,10.37l-2.94,1.05S177.92,139.25,177.43,136.89Z"/><path class="cls-41" d="M170.74,136.6l7.35.19s0,9.26-3.3,13.21l-6.48.43S170.29,140.32,170.74,136.6Z"/><path class="cls-42" d="M200.33,270.15l-3.45-.26-2-.15s.22-.45.55-1c.63-1,1.66-2.47,2.6-2.48.75,0,1.35,1,1.75,2h0A15.23,15.23,0,0,1,200.33,270.15Z"/><path class="cls-43" d="M218.19,261h0a4.78,4.78,0,0,1-.26.62c-4.15,9-17.59,8.54-17.59,8.54s-1.36-1.84-2-1.75c-.37.05-1,.84-1.46,1.49-.33.47-.58.87-.58.87-4.29,1.67-12.26,0-12.26,0l-.77-3,12.33-4.85,5.88-.5Z"/><path class="cls-42" d="M130.9,340.34l-4.29-.25-1.82-.1a7.58,7.58,0,0,1,.1-.77c.22-1.24.9-3.5,2.85-2.77a4.93,4.93,0,0,1,2.68,2.52A5.85,5.85,0,0,1,130.9,340.34Z"/><path class="cls-44" d="M144.27,329.3c-1.4,9.81-13.37,11-13.37,11a5.44,5.44,0,0,0-3.43-1.23l-.86,1-1.89,2.17c-4.68,2.69-13.09.47-13.09.47l-.42-2.64v-.4l2.52-4.32L130.66,332Z"/><path class="cls-45" d="M218.05,178.32c-.54,3.92-2.55,11-4.71,20.19-2.84,12.05-5.49,33.55-5.65,34.88v.07s-5.08,3.41-6,4.37a45.62,45.62,0,0,0-3.49,5.76h0v0c-4.21,4.55-11.77,2.52-11.77,2.52l.3-1.15c2.92-6.54,4-38.19,4.78-41.7s8.44-15.24,8.44-15.24c-4.73.49-26.54,5.2-26.54,5.2-4.73,1.23-18.21,7.38-18.21,7.38-1.63,11.08-9.95,36.73-14.83,51.2h0c-.64,1.89-1.21,3.59-1.71,5a1,1,0,0,0,0,.15c-1.12,3.28-1.82,5.23-1.82,5.23-4.34,11.87-9.32,44-9.77,47,0,.07,0,.14,0,.22a12.31,12.31,0,0,0-3.5,1.23,10.25,10.25,0,0,0-2.15,2.31c-.93,1.24-1.7,2.47-1.7,2.47-2.93,2.63-8,2.34-8,2.34l-.27-1.82c-3-22.59.88-51.67,1.58-53.07s4.28-4.83,7-9.77c.24-.41.47-.84.68-1.26,2.8-5.61,9.94-50.9,9.94-50.9l-1.28-3,2.55-14.84,37.66-13.91a29.63,29.63,0,0,1,4.07-.94l.78-.12h.07c14.61-2,35.84,3.33,41.92,6.07l0,0a3.78,3.78,0,0,1,1.63,1A6.46,6.46,0,0,1,218.05,178.32Z"/><path class="cls-46" d="M144.27,329.3c-1.17,7.59-12.61,10.26-12.61,10.26s-.53-.28-1.24-.59c-1-.46-2.46-1-3.13-.81a15.47,15.47,0,0,0-2.4,1.06c-.87.45-1.59.87-1.59.87a27.23,27.23,0,0,1-12.09,0,7,7,0,0,1-.53-2.8c.14-1.23,1.76-13.84,1.76-13.84s6.15-.1,8.07-1.68c.44-.36,2.27,2.88,2.57,2.39,1-1.65-.26-7.35-.26-7.35s5.35,6.59,8.87,9.32h0a6.25,6.25,0,0,0,1.77,1.06,12.21,12.21,0,0,0,6.66-.24A5.35,5.35,0,0,1,144.27,329.3Z"/><path class="cls-47" d="M162.83,182.85c-2.44,4.57-2.53,6.08-2.53,6.08s7.68,3.74,13,4.32c-4.73,1.23-18.21,7.38-18.21,7.38-1.63,11.08-9.95,36.73-14.83,51.2h0A137.9,137.9,0,0,0,120,253.2c.24-.41.47-.84.68-1.26,2.8-5.61,9.94-50.9,9.94-50.9l-1.28-3,2.55-14.84,37.66-13.91a29.63,29.63,0,0,1,4.07-.94l.78-.12,0,.12-1.32.78S165.27,178.28,162.83,182.85Z"/><path class="cls-48" d="M218.19,261a4,4,0,0,1-.27.63,11.92,11.92,0,0,1-5.33,5c-4.41,2.29-12.5,1.86-12.5,1.86l-.34-.22h0a6.18,6.18,0,0,0-1.4-.75c-.17.05-2.1,1.05-2.1,1.05l-.85.14c-5.7.84-12.12-1-12.12-1-.93-5.5,2.87-16.64,2.87-16.64s4.69-1.29,6.56-.59,2.9,3.63,4,3.63c.83,0,1.15-4.44,1.15-4.44a41,41,0,0,0,5.3,6.25,9.27,9.27,0,0,0,2.92,1.92c3.5,1.22,9,1.17,9,1.17A3.53,3.53,0,0,1,218.19,261Z"/><path class="cls-49" d="M179.43,69.12a30.92,30.92,0,0,0,1.23,3.21c.47.86.68,1.24.66,1.46a2.27,2.27,0,0,1-1.61,1.84C178.43,76,179.43,69.12,179.43,69.12Z"/><path class="cls-50" d="M180.71,63.86s-1.4,3.45-1.35,4.68.74,3.07.73,3.72c0,2.88-1.34,10.13-5.16,14.3a8,8,0,0,1-.64.66,21.59,21.59,0,0,1-7.54-2.63v1.57s-2.37,0-5.57.19c-4,.28-9.28.94-12.78,2.5a34.16,34.16,0,0,0,1.74-3.38,29.75,29.75,0,0,0,2.08-6,17.36,17.36,0,0,0,.3-1.85h0a13,13,0,0,0,.07-2.15,17,17,0,0,0-1.21-5.24c-1.15-3-2.7-6.07-3-12.54,0,0,6.57-10.51,14.28-13.23s17.57,9.5,17.57,9.5A37.17,37.17,0,0,1,180.71,63.86Z"/><path class="cls-51" d="M174.93,86.56l1.54,1-15.29-1.22-11-.88a29.75,29.75,0,0,0,2.08-6,17.36,17.36,0,0,0,.3-1.85h0l16-4.75s-.21-5.28,1.28-7.26a5.6,5.6,0,0,1,3.82-2.13c-2.63,1-3.84,5.66-3.84,5.66l2.67-.41a7.82,7.82,0,0,1,2.7-3.33A11.28,11.28,0,0,1,173.82,73c.22-.08,3.5-1.31,4.11,1.12s-3.41,12.15-3.41,12.15Z"/><path class="cls-52" d="M180.82,59.19a26.55,26.55,0,0,0-2.51,4.73,2,2,0,0,0,2.4-.06l-1.35,4.67-2.82,1.24s1.83-12.09,3.7-15.83A28.8,28.8,0,0,1,180.82,59.19Z"/><path class="cls-53" d="M172.47,68.71a8.43,8.43,0,0,0-.95,4.64s.42-3.24,1.87-4.64c0,0-.57,1.49,0,2.32,0,0,2.57-2.63,1.77-5.65A9.86,9.86,0,0,0,172.47,68.71Z"/><path class="cls-54" d="M166.75,84.59l.43-7s-4.86-1-15,1.86a15.26,15.26,0,0,0,.37-4,17,17,0,0,0-1.21-5.24l3.84-1.67,14.16,4.54s.49,2.83,2.14,2.56c0,0-.24,6.44,2.77,11.58A21.59,21.59,0,0,1,166.75,84.59Z"/><path class="cls-55" d="M180.82,59.19a26.84,26.84,0,0,0-.58-5.25s-1.4,5.25-2.51,9.51a46.8,46.8,0,0,0-1.34,7.94l-.64.35s.81-7.18-.53-8.23-6.54,1.75-5.84,9.57c0,0-8.53,4.67-17.42,4.52a7.38,7.38,0,0,0-.06-3.16c-.83-3.76-5.52-10.64-5-22.37l-2.35-1.65c.27.09,3,1,9-2.15,6.3-3.27,15.59-7.71,16.87-7.53s5.84,4.2,5.84,4.2S182,48.39,183,49.68,180.82,59.19,180.82,59.19Z"/><path class="cls-56" d="M179.5,56.71s-2.41,2.95-8.31,3.71c0,0-3.27,2-3.91,5,0,0,1.93-3.12,4.55-3.49s5.69-.1,6.53-.84Z"/><path class="cls-57" d="M180.07,54.57s-3.37,3.52-6.68,4.6c0,0,4.15-1,6.11-2.46Z"/><path class="cls-58" d="M176.27,44.94a46.17,46.17,0,0,0-11.64-1.34s4.69-1.46,5.8-2.86C170.43,40.74,172.71,41.5,176.27,44.94Z"/><path class="cls-59" d="M183,49.68a4.06,4.06,0,0,1-.7,3,23.51,23.51,0,0,0-4.55-4.56,14.57,14.57,0,0,0-5-2,15,15,0,0,1,5.12,3.25,18.71,18.71,0,0,1-12.81,6.35s2.89-1.71,3.68-3.41a35.79,35.79,0,0,0-11.56,4s-3-2.06-3.55-3.24l.78-2.15-2.8,2.11a12.88,12.88,0,0,1-4.77-1c-.52,11.73,4.17,18.61,5,22.37A7.38,7.38,0,0,1,152,77.6c8.89.15,17.42-4.52,17.42-4.52-.7-7.82,4.5-10.62,5.84-9.57s.53,8.23.53,8.23l.64-.35a46.8,46.8,0,0,1,1.34-7.94c1.11-4.26,2.51-9.51,2.51-9.51a26.84,26.84,0,0,1,.58,5.25S184.1,51,183,49.68Zm-14.48,8.7a16.28,16.28,0,0,1-4.66-.76c5-.42,6.55-2,6.55-2S170.2,58.2,168.56,58.38Z"/><path class="cls-60" d="M161.18,47.43a4.33,4.33,0,0,1,3.45-2.14c2.58-.3,7.84.89,7.84.89S163,47,161.18,47.43Z"/><path class="cls-61" d="M169.81,43.82s8.38-.52,13.23,5.86a3.54,3.54,0,0,1-.7,3A29.53,29.53,0,0,0,169.81,43.82Z"/><path class="cls-62" d="M160.52,45.24s9-2.12,9.91-4.5C170.43,40.74,168.56,40.41,160.52,45.24Z"/><path class="cls-63" d="M168.8,52.38s-1.93,2.75-3.68,3.41c0,0,10.73-1.1,12.81-6.35a4.93,4.93,0,0,0-4.54-1.58C170.55,48.39,168.8,52.38,168.8,52.38Z"/><path class="cls-64" d="M144.55,50.42a8.52,8.52,0,0,0,7.12,2.66l5.7-6.75S148.69,51.51,144.55,50.42Z"/><path class="cls-65" d="M169.81,43.82s8.56,2.79,12.53,8.89l-1.52,6.48s3-5.25,2.43-9.47C183.25,49.72,180.07,44.27,169.81,43.82Z"/><path class="cls-66" d="M118.87,182.85a80,80,0,0,0,16.41-2.18c7.59-2,2.45-11.94,2.45-11.94l-5.25-.92Z"/><path class="cls-67" d="M183.87,111.59a111.43,111.43,0,0,1-7.6,16.5c-3.39,5.84-6.69,24.87-6.16,26.36.41,1.17,2.25,2.79,3.09,3.89l.1.13a1.87,1.87,0,0,1,.31.62c.18,1-2.19,3.95-2.1,4.48a15.88,15.88,0,0,0,1.18,2.16c.42.71.89,1.47,1.26,2.08l0,0c.46.72.78,1.24.78,1.24l-5.25.24c-12.38,14.35-39.71,14-39.71,14l.7-8.23c-3.85,4.08-12.45,8.23-12.45,8.23s13.69-28.06,13.53-46.05c0-.24,0-.38,0-.38a28.89,28.89,0,0,0-.25-3.32c-2.45-17.52-1.57-34-1.05-34.57s.58-.35,4.79-2.1a24.77,24.77,0,0,0,2.47-1.24l.17-.08h0a104.59,104.59,0,0,0,9-6V86.4c8.75-5.48,20-1.81,20-1.81A83.83,83.83,0,0,1,187.48,87C188.92,94.56,186.71,103.8,183.87,111.59Z"/><path class="cls-68" d="M130.6,175.1l-.22-.12c5-9.59,6.35-25.28,7.7-40.46.7-7.94,1.37-15.44,2.53-21.52,3.29-17.35,10.19-25.07,10.26-25.14l.18.17c-.06.07-6.92,7.74-10.2,25-1.15,6.07-1.82,13.56-2.52,21.49C137,149.74,135.57,165.46,130.6,175.1Z"/><path class="cls-69" d="M148.39,85.48l1.25-2.1s11.45-3.75,17.11,1.21C166.75,84.59,157.29,81.63,148.39,85.48Z"/><path class="cls-70" d="M176.71,208.47s.92,11.79-2.06,19.94l-4.31.29s-4.26,16.11-10,23.13c0,0-25.7-1.94-46.67-7.7l-6.8-5.53s6.39-29,12.52-43.29C119.35,195.31,149.67,205.77,176.71,208.47Z"/><path class="cls-71" d="M119.35,195.31s27.48,9.18,45.41,9.41c0,0,4.19,1.36,12,3.75,0,0-25.08-1.86-47.47-9.61Z"/><path class="cls-72" d="M157.7,195.37s2.89,2.28,1,9.8a5,5,0,0,0,3.81.3s.14-8.26-.77-11.38Z"/><path class="cls-73" d="M113.63,244.13s10.29-26.22,13.74-44.33l2,1.38s1.08,11.64-.18,19.1l1.51,1.19s1.43-16.22-1.48-22.61l-9.89-3.55s-5.17,10.86-12.52,43.29Z"/><path class="cls-72" d="M136,200s.54.93,4.68,1.62c0,0,3.48-6.33,6.08-7.78l0-6.06S139.43,193.52,136,200Z"/><path class="cls-74" d="M168.41,233l-49.06,3.62-5.72,7.48-6.8-5.53,5.48-22s-1.45,13.85-.53,14.22c2.45,1,8.72-9.66,11-15.89a133.55,133.55,0,0,0,4.57-15.14l2,1.38a81.46,81.46,0,0,1-.18,19.1l1.51,1.19a204.13,204.13,0,0,0,39.62,7.23Z"/><path class="cls-75" d="M151.39,222.72l5,1.14a13.81,13.81,0,0,1-1.52,6.81l-4.79-.88v-1.35l.87-5.34Z"/><path class="cls-76" d="M151.39,222.72a9.92,9.92,0,0,1-1.27,7.07v-1.35l.87-5.34Z"/><path class="cls-77" d="M151.57,222.86s.15,2.87,1.24,3.51a3.12,3.12,0,0,0,3,.32c.63-.42.62-2.7.62-2.7Z"/><polygon class="cls-74" points="146.49 236.13 142.4 241.95 147.66 242.84 150.84 237.75 146.49 236.13"/><path class="cls-78" d="M145.58,240.81a15.09,15.09,0,0,0,2.73-4.68l3.36,1a8.29,8.29,0,0,1-2.25,4.44Z"/><path class="cls-76" d="M148.31,236.13h-1.82L145,240.55l.55.26S148,238.33,148.31,236.13Z"/><path class="cls-79" d="M164.76,204.72l10.28,3.6a31.37,31.37,0,0,1-4.7,20.38c1.87-.09,4.31-.29,4.31-.29s2.7-6.29,2.06-19.94Z"/><path class="cls-80" d="M160.3,251.83l-.18-2.64s6.74-10.86,10.22-20.49C170.34,228.7,167,242.84,160.3,251.83Z"/><path class="cls-81" d="M173.16,118.76a19.82,19.82,0,0,1-1.78,1C172.36,119.23,173,118.86,173.16,118.76Z"/><path class="cls-82" d="M176.27,128.09c-3.39,5.84-6.69,24.87-6.16,26.36-1.47,4.24-8.76,11.3-8.76,11.3,9.29-2.18,11.85-7.41,11.85-7.41l.1.13a1.87,1.87,0,0,1,.31.62c.18,1-2.19,3.95-2.1,4.48a15.88,15.88,0,0,0,1.18,2.16l-5.91,3.35,7.17-1.27,0,0c.46.72.78,1.24.78,1.24l-5.25.24c-12.38,14.35-39.71,14-39.71,14l.7-8.23c-3.85,4.08-12.45,8.23-12.45,8.23s13.69-28.06,13.53-46.05c.08,2.37.65,15,3.94,15,2.92,0,11.56-16.55,15.87-25.55,4.39-9.18,6.73-32.17,6.73-32.17l-.54,16.21A37.46,37.46,0,0,1,166,97.69l17.87,13.9A111.43,111.43,0,0,1,176.27,128.09Z"/><path class="cls-83" d="M146.73,86.4v3.15a104.59,104.59,0,0,1-9,6L151,87.94a36.92,36.92,0,0,1,15.79-3.35S155.48,80.92,146.73,86.4Z"/><path class="cls-84" d="M127.14,271.5s-6.78,31.76-15,46C112.17,317.53,125.07,280,127.14,271.5Z"/><path class="cls-85" d="M199.89,188.05l11.76-5.2s-2.71,10.78-4.13,12.46-11.86-1.25-16.07,8A110.79,110.79,0,0,1,199.89,188.05Z"/><path class="cls-86" d="M173.57,168.38a67.93,67.93,0,0,0-6.79,8.59S193.71,178,218,175.39C218,175.39,201.54,166.12,173.57,168.38Z"/><path class="cls-87" d="M138.6,256.88a1,1,0,0,0,0,.15c-1.12,3.28-1.82,5.23-1.82,5.23-4.34,11.87-9.32,44-9.77,47,0,.07,0,.14,0,.22s1.54-36.47,6.35-46.4C133.28,263.11,135.49,258.16,138.6,256.88Z"/><path class="cls-88" d="M218.05,178.32c-.54,3.92-2.55,11-4.71,20.19-2.84,12.05-5.49,33.55-5.65,34.88v.07C203.55,209.6,216.55,181.45,218.05,178.32Z"/><path class="cls-89" d="M162.53,192.72,161,195.38l-.39.69-3-.27-1-.46-5.47-.16-.83.69-3.61-.34-1-1.1,1-.55,0-6.06-1.27-3.17a45.44,45.44,0,0,1,2-5.17l3.17-1.14,9.17,1.64S162.62,187.2,162.53,192.72Z"/><path class="cls-90" d="M161.65,194.28l-1,1.79-3-.27-1-.46-5.47-.16-.83.69-3.61-.34-1-1.1,1-.55,0-6.06-1.27-3.17a45.44,45.44,0,0,1,2-5.17l3.17-1.14,9.17,1.64s-2.21,2.45-9.85,2.87l-1.29.42v10.82l2.19.39.41-.39h6.33l.94.65Z"/><path class="cls-91" d="M146.82,179.33v.89A41.58,41.58,0,0,0,160.3,180l-.16-1.95A72,72,0,0,1,146.82,179.33Z"/><path class="cls-92" d="M185.26,107.48s-11.12,11.14-17.6,25.85q-.58,1.32-1.11,2.76c-3.64,9.95-5.14,23.69-4.38,38.83V175c0,.84.09,1.68.14,2.52,0,0-9.32,3.85-15.82,2,0,0-5.13-27.33-.34-41.12h0c.06-.07.27-.36.61-.84.08-.12.18-.26.29-.4,2.7-3.9,10.7-16.2,12.29-27.94,0,0,7.54-19.35,22-22.07h0a18.88,18.88,0,0,1,6.16-.11A41.23,41.23,0,0,1,185.26,107.48Z"/><path class="cls-93" d="M166.55,136.09c-3.64,9.95-5.14,23.69-4.38,38.83V175a21.44,21.44,0,0,0,.14,2.52s-5.66-14.72-6.12-23.47,10.56-19.23,10.56-19.23Z"/><path class="cls-94" d="M162.31,177.49S156.45,163,156.19,154c0,0,3,10.77,5.79,13Z"/><path class="cls-95" d="M187.48,87s-4.37-3.89-17.14,8.54S154,130.19,154,130.19s8.41-.87,19.13-9.73,13.65-18.11,13.65-18.11S189.23,90.83,187.48,87Z"/><path class="cls-96" d="M146.15,138.36s2.59,1,6.84-1.67a12.29,12.29,0,0,0,5.15-7.52S151.52,128.2,146.15,138.36Z"/><path class="cls-97" d="M146.82,179.33s-2.77-12.2-.67-23.19c0,0,2.27,18.63,4.81,23.84A9.64,9.64,0,0,1,146.82,179.33Z"/><path class="cls-98" d="M166.75,84.59s14.13.75,18.16,4.26c0,0,1.24,11.36-2.56,18.92a176.16,176.16,0,0,1-10.08,16.73s7.3-11.3,12.2-16.2c0,0,4.7-6.64,3-21.32A69.46,69.46,0,0,0,166.75,84.59Z"/><path class="cls-99" d="M218,175.38c-.7-.21-23.6-7.36-43.65-7.12h.07c14.61-2,35.84,3.33,41.92,6.07l0,0C216.93,174.67,217.47,175,218,175.38Z"/><path class="cls-100" d="M131.7,326.14h0Z"/><path class="cls-101" d="M158.14,134.79l-10,12.48s7.29,6,14.67,5.23l1.78-9Z"/><path class="cls-102" d="M144.27,329.3c-1.4,9.81-13.37,11-13.37,11l-4.29-.25-1.89,2.17c-4.68,2.69-13.09.47-13.09.47l-.42-2.64a7,7,0,0,1-.53-2.8c.14-1.23,1.76-13.84,1.76-13.84s6.15-.1,8.07-1.68c.44-.36,2.27,2.88,2.57,2.39,1-1.65-.26-7.35-.26-7.35s5.35,6.59,8.87,9.32c-.25-.11-4.43-2.11-5.28-1.85-.69.2,1.37,4.67,4.25,7.73a11.18,11.18,0,0,0,2.66,2.16C137.45,336.46,143.13,333.44,144.27,329.3Z"/><path class="cls-103" d="M218.19,261a4,4,0,0,1-.27.63c-4.15,9-17.59,8.54-17.59,8.54l-3.45-.26c-.33.47-.58.87-.58.87-4.29,1.67-12.26,0-12.26,0l-.77-3c-.93-5.5,2.87-16.64,2.87-16.64s4.69-1.29,6.56-.59,2.9,3.63,4,3.63c.83,0,1.15-4.44,1.15-4.44a41,41,0,0,0,5.3,6.25c-.27,0-3.22-.19-4.76,1.57-.73.83.79,2.93,3.14,4.87,2.82,2.32,6.85,4.42,9.62,3.83a10.61,10.61,0,0,0,7.08-5.25Z"/><path class="cls-104" d="M204.27,261a14.37,14.37,0,0,0,6.39,2.34,5.26,5.26,0,0,0,4.86-2.71S211.84,262.67,204.27,261Z"/><path class="cls-105" d="M141.82,328.8a10.28,10.28,0,0,1-6.42,4.65S142.64,335,141.82,328.8Z"/><path class="cls-106" d="M180.54,122.68s-.06.17-.2.48c-1.37,3.39-4.6,9.35-5.12,12.52,0,0-5.84,11.45-17.87,13.43L153,143.62l6.47-10.29s11.54-1.66,16.92-6.69c0,0,2.35-3.53,3.81-6.18A3.87,3.87,0,0,1,180.54,122.68Z"/><path class="cls-107" d="M180.34,123.16c-1.37,3.39-4.6,9.35-5.12,12.52,0,0-10.28,5-10.59,4.06s4.6-5.6,9.66-9.55A20.3,20.3,0,0,0,180.34,123.16Z"/><path class="cls-108" d="M129.69,106.72s.83,16.38,4.16,23.47S130,149.8,130,149.8a100,100,0,0,0,1.53-13C131.66,131.51,128.77,116.62,129.69,106.72Z"/><path class="cls-109" d="M112.92,263s-1.7,36.95.79,40.2c0,0,2.37.27,6-7.78,0,0-5,16.64-8,22.47C111.61,317.86,107.49,295.78,112.92,263Z"/><path class="cls-110" d="M186.67,245a71.88,71.88,0,0,0,5.73-18.74c1.8-10.93-1-23-1-23S189.84,230.67,186.67,245Z"/><polygon class="cls-111" points="57.68 334.06 49.42 268.99 53.55 268.99 60.23 334.06 57.68 334.06"/><polygon class="cls-111" points="483.79 339.8 492.05 274.73 487.92 274.73 481.24 339.8 483.79 339.8"/><path class="cls-112" d="M491.2,281.38l-4.34,34.2S454,316.94,405,318c-72.77,1.52-181.24,2.3-271.26-3.22q-5.77-.35-11.43-.73-11.94-.83-23.32-1.81c-15.94-1.37-31-3-44.7-4.92l-4.16-32.77h.08l.25,0,.2,0,.52,0,.29,0c3.14.28,11.75,1,25.19,1.94l1.5.11h0c9,.62,20.1,1.34,33,2.08q8.31.47,17.64,1c65.14,3.37,166.32,6.69,286.78,4C440.05,283.24,465.3,282.46,491.2,281.38Z"/><path class="cls-113" d="M236.09,309.12l1.9-4.31a12,12,0,0,0,5.8,1.6c1.68,0,2.28-.35,2.28-1,0-2.2-9.71-.42-9.71-7,0-3.26,2.74-5.91,8.18-5.91a13.93,13.93,0,0,1,6.62,1.53l-1.78,4.28a10.79,10.79,0,0,0-4.89-1.3c-1.73,0-2.28.5-2.28,1.1,0,2.11,9.7.35,9.7,6.82,0,3.21-2.74,5.92-8.17,5.92A15.68,15.68,0,0,1,236.09,309.12Z"/><path class="cls-113" d="M257.22,297.57h-5.14V293h16.2v4.59h-5.14v13h-5.92Z"/><path class="cls-113" d="M280.88,307.47h-6.67L273,310.53h-6L274.69,293h5.82l7.67,17.55h-6.12Zm-1.63-4.26-1.7-4.42-1.71,4.42Z"/><path class="cls-113" d="M296.65,306.11H295v4.42h-5.91V293h8.45c4.88,0,8,2.55,8,6.62a5.87,5.87,0,0,1-3.31,5.51l3.69,5.42h-6.32Zm.55-8.57H295v4.11h2.16c1.63,0,2.41-.78,2.41-2S298.83,297.54,297.2,297.54Z"/><path class="cls-113" d="M311.36,297.57h-5.14V293h16.2v4.59h-5.14v13h-5.92Z"/><path class="cls-114" d="M99,312.2c-15.94-1.37-31-3-44.7-4.92l-4.16-32.77h.08l.25,0,27.7,2.13h0Z"/><path class="cls-114" d="M133.72,314.74q-5.77-.35-11.43-.73l-11.11-35.25q8.31.47,17.64,1Z"/><path class="cls-114" d="M491.2,281.38l-4.34,34.2S454,316.94,405,318l10.62-34.19C440.05,283.24,465.3,282.46,491.2,281.38Z"/><polygon class="cls-115" points="471.85 234.6 460.28 204.88 461.02 205.03 423.19 244.38 422.84 244.74 422.61 244.29 404.72 210.08 405.24 210.09 398.07 222.11 397.92 222.36 397.68 222.2 348.38 189.28 348.22 189.17 348.33 189.02 383.83 139.59 383.83 139.58 383.84 139.57 418.13 108.29 418.13 108.31 409.07 106.72 418.14 108.28 418.17 108.29 418.15 108.31 383.96 139.71 383.97 139.69 348.63 189.23 348.59 188.97 397.99 221.73 397.59 221.82 404.73 209.78 405 209.32 405.25 209.8 423.25 243.96 422.67 243.88 460.38 204.41 460.86 203.9 461.12 204.56 472.78 234.24 471.85 234.6"/><circle class="cls-116" cx="472.31" cy="247.11" r="18.21"/><circle class="cls-117" cx="460.7" cy="204.73" r="11.61" transform="translate(-9.83 385.73) rotate(-45)"/><circle class="cls-118" cx="422.81" cy="244.13" r="8.88"/><circle class="cls-119" cx="404.98" cy="210.42" r="7.63" transform="translate(-30.17 348) rotate(-45)"/><path class="cls-120" d="M403.8,222.32a6,6,0,1,1-6-6A6,6,0,0,1,403.8,222.32Z"/><path class="cls-121" d="M353.45,189.13a5,5,0,1,1-5-5A5,5,0,0,1,353.45,189.13Z"/><path class="cls-122" d="M420,108.3a1.86,1.86,0,1,1-1.86-1.86A1.86,1.86,0,0,1,420,108.3Z"/><path class="cls-123" d="M387.61,139.64a3.71,3.71,0,1,1-3.71-3.71A3.71,3.71,0,0,1,387.61,139.64Z"/><path class="cls-113" d="M473.84,241.49v10.27h-3.46V244.1h-1.77v-2.61Z"/><path class="cls-113" d="M463.87,205.62v1.95h-6V206l2.69-2.49c.51-.48.59-.77.59-1s-.25-.59-.72-.59a1.22,1.22,0,0,0-1.1.7l-1.9-1a3.42,3.42,0,0,1,3.23-1.73c1.77,0,3,.92,3,2.33a2.94,2.94,0,0,1-1.27,2.38l-1.07,1Z"/><path class="cls-113" d="M425.29,245.1c0,1-.84,2.09-2.79,2.09a5.27,5.27,0,0,1-2.4-.55l.7-1.51a3.36,3.36,0,0,0,1.63.44c.46,0,.79-.16.79-.47s-.2-.42-.72-.42h-.81v-1.26l.9-.91h-2.17V241H425v1.26l-1.14,1.15A1.73,1.73,0,0,1,425.29,245.1Z"/><path class="cls-113" d="M406.65,211.85h-.6v.78h-1.48v-.78h-2.34v-1l1.92-2.78h1.56l-1.7,2.56h.61V210h1.43v.69h.6Z"/><path class="cls-113" d="M399.65,223c0,.72-.55,1.41-1.84,1.41a3.42,3.42,0,0,1-1.59-.36l.46-1a2.16,2.16,0,0,0,1.07.29c.31,0,.54-.11.54-.31s-.13-.29-.62-.29H396.5l.21-2.45h2.68v1h-1.57l0,.4h.2C399.2,221.71,399.65,222.28,399.65,223Z"/><path class="cls-113" d="M349.82,189.75a1.28,1.28,0,0,1-1.41,1.22,1.54,1.54,0,0,1-1.66-1.71,1.78,1.78,0,0,1,1.92-1.91,2,2,0,0,1,1.07.27l-.42.81a1,1,0,0,0-.63-.18.7.7,0,0,0-.75.59,1.2,1.2,0,0,1,.69-.19A1.12,1.12,0,0,1,349.82,189.75Zm-1.13.06a.36.36,0,1,0-.71,0,.36.36,0,0,0,.71,0Z"/></g></g></svg>