<svg xmlns="http://www.w3.org/2000/svg" viewBox="0 0 466.67 414.67"><defs><style>.cls-1{isolation:isolate;}.cls-2{fill:#cedcfd;}.cls-3{fill:#faedec;}.cls-4{fill:#a5b9f6;}.cls-5{opacity:0.25;}.cls-18,.cls-32,.cls-33,.cls-34,.cls-35,.cls-36,.cls-37,.cls-6{fill:none;}.cls-6{stroke:#fff;}.cls-32,.cls-33,.cls-34,.cls-35,.cls-36,.cls-6{stroke-linecap:round;stroke-linejoin:round;}.cls-7{fill:#6287f6;}.cls-8{fill:#bf4d17;}.cls-9{fill:#ff6822;}.cls-10,.cls-39{fill:#fff;}.cls-11{fill:#8f3b14;}.cls-12{fill:#4c7ed6;}.cls-13{fill:#e2d6d6;}.cls-13,.cls-17,.cls-22,.cls-31{mix-blend-mode:multiply;}.cls-14{fill:#6ca0fa;}.cls-15{fill:#3d3a3a;}.cls-16{fill:#333030;}.cls-17{fill:#eee1e1;}.cls-18{stroke:#ff6822;stroke-width:2.24px;}.cls-18,.cls-37{stroke-miterlimit:10;}.cls-19{fill:#ebc827;}.cls-20{fill:#fbe5c6;}.cls-21{fill:#d1b223;}.cls-23{fill:#f2e5e5;}.cls-24{fill:#072c6e;}.cls-25{fill:#21103f;}.cls-26{fill:#ff4d2c;}.cls-27{fill:#d68952;}.cls-28{fill:#eb975a;}.cls-29{fill:#0f0f0f;}.cls-30{fill:#e0d4d4;}.cls-31{fill:#a9b3d1;}.cls-32,.cls-33,.cls-34,.cls-35,.cls-36{stroke:#a5b9f6;stroke-width:0.75px;}.cls-33{stroke-dasharray:3.79 11.36;}.cls-34{stroke-dasharray:3.92 11.76;}.cls-35{stroke-dasharray:4.02 12.05;}.cls-36{stroke-dasharray:4 12;}.cls-37{stroke:#4c7ed6;stroke-width:7px;}.cls-38{fill:#d0eaff;}.cls-39{opacity:0.35;}</style></defs><title>Mesa de trabajo 1</title><g class="cls-1"><g id="BACKGROUND"><path class="cls-2" d="M138,276.11c-4.11,1.38-9.18,2.15-14.77-1.17-6-3.56-10-10.29-13.41-16.48-4.51-8.13-8.68-15-16.54-19.26-5.66-3.09-11.7-4.81-17.09-9.87-6.28-5.88-9.24-14.17-10.21-21.07-1.12-8,.07-15.33-2.65-23.9a31.68,31.68,0,0,0-8.8-13.78c-3.11-2.9-6.45-5.31-9.54-8.23-10-9.44-13.15-22.63-8-28.66,3.26-7.1,12.37-8.53,22.46-1.48,8.07,5.64,12.56,14.59,18.31,22.64,6.22,8.71,12.93,12.22,20.82,15.29,5.36,2.1,11.07,4.13,16.26,8.69s8.4,10.78,11,16.78c3.17,7.33,6,15.91,12.66,21.64,3.59,3.07,7.53,4.88,11.09,8.1a36.88,36.88,0,0,1,6.33,7.62c9.55,15.08,5.7,28.29-1.84,34.73C149.54,271.56,143.77,274.16,138,276.11Z"/><path class="cls-3" d="M52.84,143.1q12.78,18.36,25.74,36.61l-16.26-8.49c-1-.54-1.72,1.15-.69,1.69l18.72,9.77a.87.87,0,0,0,.43.1q10.88,15.28,21.88,30.5l-29.23-9.61c-1.11-.36-1.8,1.32-.69,1.68l31.19,10.26a.86.86,0,0,0,.44,0q10.2,14.08,20.52,28.1l-24-8.92c-1.1-.4-1.79,1.28-.69,1.69l26.63,9.89q6.9,9.39,13.85,18.75l-24.09-9.22c-1.09-.41-1.79,1.27-.69,1.69L140.26,267a.86.86,0,0,0,1.14-.54.79.79,0,0,0,.26.08q8,10.78,16.07,21.52c.7.94,2.13-.18,1.43-1.12Q151,276,142.91,265.12a214.53,214.53,0,0,0,4.28-25.82.91.91,0,0,0-1.81-.22,215.24,215.24,0,0,1-3.91,24.1q-6.47-8.73-12.89-17.47a.79.79,0,0,0-.56-.8l0,0-.6-.82,2.94-26.35a.91.91,0,0,0-1.81-.22q-1.35,12.19-2.72,24.39Q115.6,228,105.5,214.11q1.45-14.24,2.89-28.47a.91.91,0,0,0-1.81-.22q-1.33,13.23-2.68,26.48-11.18-15.48-22.24-31a.88.88,0,0,0,.19-.45l1.61-13.65a.91.91,0,0,0-1.81-.22l-1.44,12.3q-13-18.39-25.94-36.88C53.6,141,52.17,142.14,52.84,143.1Z"/><path class="cls-2" d="M103.3,311.25c-9.5-2.89-19.15-5.8-29.16-6.21s-20.61,2-27.76,8.38-9.75,17.38-4.23,25c6.56,9,20.44,10,32.34,10.33,16.66.48,35.4,2.54,45.55,14.54,5.2,6.15,7.36,14.17,13,20,9.7,9.92,26.71,10.44,40.85,7.07s27.43-9.84,41.93-11.45c16.18-1.79,32.28,2.62,48.4,4.75,55.43,7.29,111.6-8.26,145.55-49,5-6,9.66-13.73,6.51-20.66-4-8.82-14.22-15.19-24.7-14.63-25.63,1.36-51.41,2.11-76.94-.25-22.84-2.12-45.13-7.55-67.8-10.85-53.73-7.8-92.08,6.72-143.56,23"/><path class="cls-4" d="M361.61,267.78c2.51-6,5.08-12.3,4.6-18.8-.44-6-.53-12.73-2.39-18.47a49,49,0,0,1-2.06-17.89c1.12-18.9,9.11-18.12,12.12-17.17s4.73,3.71,5.64,8.51c.74,3.86.87,22.44,6.37,18.83,6.36-4.18,3.18-23.11,3.27-29.59.14-9.7,2.44-20.4,8.65-28.09,3.06-3.79,7.94-7,12.59-5.53,2.78.87,4.86,3.25,6.21,5.83,4.08,7.79,2.55,16.77.51,24.9-.85,3.4-9.53,19.86-.7,17,2.11-.68,18-17.61,22-3.23,1.42,5.06-3.53,11.24-11.66,19.28-5.08,5-24.58,19.09-22.63,24.63s12.27-5.39,12.53,5.45c.14,6.08-7,11.57-12,14.64-2.36,1.46-5,2.44-7.26,4-2.67,1.91-5.68,6-2.93,9.1,1.2,1.35,3.19,1.81,4.34,3.2a5.16,5.16,0,0,1,.48,5.22,12,12,0,0,1-3.47,4.23c-9,7.62-21.26,10.53-33,10s-23.19-4.12-34.2-8.3"/><g class="cls-5"><path class="cls-6" d="M406.3,170.38s-2.38,64.06-34.13,108.67"/><path class="cls-6" d="M429.86,208.72s-18.54,19.72-35.52,24.77"/><path class="cls-6" d="M371.89,203.69c.41,9.95,3.76,37.39,15.05,49.13"/><path class="cls-6" d="M409.2,256.7S402,265.14,376.85,272"/><path class="cls-6" d="M394.08,287s-12.87,4.37-25.71-.73"/></g><path class="cls-4" d="M345.63,299.78H292.28c-10.41,0-8.72-12.35,20.24-6.85-7.11-3.25-7.15-7.6-6.55-8.76s2.59-1.75,3.78-1.65c3.69.32,6.48,2.58,9.71,4.38a20.72,20.72,0,0,1-9.23-17.73c.06-1.91.48-4,1.89-5.26a7.78,7.78,0,0,1,6.27-2c3.91.78,11.09,7.3,14,10.07-14.59-13.42-20.15-34.57-10.81-39.39,15.73-8.13,27.61,37.89,27.61,37.89s-7.82-34.58,5.3-34.78,2.45,40.17,2.45,40.17"/><path class="cls-4" d="M84.47,289.19c-2.38-5.66-4.8-11.6-4.35-17.73.42-5.67.51-12,2.25-17.42a46,46,0,0,0,1.95-16.87c-1.06-17.83-8.59-17.09-11.43-16.2s-4.46,3.5-5.32,8c-.7,3.64-.83,21.17-6,17.76-6-3.94-3-21.79-3.08-27.91-.14-9.15-2.31-19.24-8.16-26.49-2.89-3.58-7.49-6.58-11.87-5.21-2.63.81-4.59,3.06-5.87,5.5-3.84,7.34-2.4,15.81-.48,23.48.81,3.2,9,18.72.66,16.05-2-.64-16.94-16.61-20.75-3.05-1.34,4.77,3.33,10.61,11,18.19,4.79,4.73,23.18,18,21.34,23.23s-11.57-5.09-11.82,5.14c-.13,5.73,6.62,10.91,11.29,13.8,2.23,1.38,4.72,2.31,6.84,3.83,2.53,1.8,5.37,5.65,2.77,8.57-1.13,1.28-3,1.72-4.09,3a4.84,4.84,0,0,0-.45,4.92,11.08,11.08,0,0,0,3.26,4c8.48,7.19,20.06,9.94,31.16,9.47s21.87-3.88,32.26-7.83"/><g class="cls-5"><path class="cls-6" d="M42.31,197.33s2.25,60.41,32.2,102.49"/><path class="cls-6" d="M20.09,233.49s17.49,18.6,33.5,23.36"/><path class="cls-6" d="M74.77,228.75c-.39,9.38-3.55,35.26-14.2,46.33"/><path class="cls-6" d="M39.58,278.74s6.77,8,30.51,14.44"/><path class="cls-6" d="M53.84,307.27s12.14,4.12,24.24-.68"/></g><path class="cls-4" d="M99.53,319.37h50.32c9.82,0,8.22-11.64-19.09-6.46,6.7-3.06,6.74-7.17,6.17-8.26s-2.43-1.65-3.56-1.55c-3.47.29-6.11,2.42-9.16,4.12a19.54,19.54,0,0,0,8.71-16.72,6.91,6.91,0,0,0-1.78-5,7.32,7.32,0,0,0-5.92-1.9c-3.68.73-10.46,6.89-13.16,9.5,13.76-12.66,19-32.61,10.19-37.16-14.83-7.66-26,35.74-26,35.74s7.38-32.61-5-32.8S88.9,296.8,88.9,296.8"/><path class="cls-4" d="M204.49,212.85c-2.59-6.19-5.24-12.67-4.75-19.36.46-6.2.55-13.1,2.46-19a50.27,50.27,0,0,0,2.13-18.41c-1.16-19.47-9.38-18.66-12.48-17.69s-4.88,3.82-5.81,8.76c-.76,4-.9,23.11-6.56,19.39-6.54-4.3-3.27-23.79-3.37-30.47-.14-10-2.51-21-8.9-28.92-3.16-3.9-8.18-7.18-13-5.69-2.87.89-5,3.34-6.4,6-4.2,8-2.63,17.26-.53,25.63.88,3.5,9.82,20.44.72,17.52-2.17-.7-18.5-18.13-22.65-3.33-1.46,5.22,3.63,11.59,12,19.86,5.23,5.17,25.31,19.65,23.3,25.36s-12.63-5.55-12.9,5.61c-.14,6.26,7.22,11.92,12.33,15.07,2.42,1.51,5.14,2.52,7.47,4.18,2.75,2,5.85,6.17,3,9.36-1.24,1.4-3.29,1.87-4.47,3.3a5.31,5.31,0,0,0-.5,5.38,12.37,12.37,0,0,0,3.57,4.35c9.25,7.85,21.9,10.84,34,10.33s23.87-4.24,35.21-8.54"/><g class="cls-5"><path class="cls-6" d="M158.46,112.56s2.46,65.95,35.15,111.89"/><path class="cls-6" d="M134.21,152s19.09,20.3,36.57,25.5"/><path class="cls-6" d="M193.9,146.86c-.42,10.25-3.88,38.49-15.5,50.58"/><path class="cls-6" d="M155.49,201.44s7.38,8.69,33.3,15.76"/><path class="cls-6" d="M171.05,232.58s13.25,4.5,26.47-.75"/></g><path class="cls-4" d="M220.94,245.79h54.93c10.71,0,9-12.71-20.84-7,7.31-3.35,7.36-7.82,6.74-9s-2.66-1.8-3.9-1.7c-3.79.33-6.67,2.65-10,4.51a21.32,21.32,0,0,0,9.5-18.25c-.06-2-.49-4.09-1.94-5.42a8,8,0,0,0-6.46-2.08c-4,.8-11.42,7.52-14.37,10.37,15-13.82,20.75-35.59,11.13-40.56-16.2-8.36-28.43,39-28.43,39s8.06-35.6-5.45-35.81-2.53,41.36-2.53,41.36"/><path class="cls-7" d="M80.22,134.38a.75.75,0,0,0,0-1.5.75.75,0,0,0,0,1.5Z"/><path class="cls-7" d="M87,129.44a.75.75,0,0,0,0-1.5.75.75,0,0,0,0,1.5Z"/><path class="cls-7" d="M212.41,179.47a.75.75,0,0,0,0-1.5.75.75,0,0,0,0,1.5Z"/><path class="cls-7" d="M76.52,123.26a.75.75,0,0,0,0-1.5.75.75,0,0,0,0,1.5Z"/><path class="cls-7" d="M369.31,264.1a.75.75,0,0,0,0-1.5.75.75,0,0,0,0,1.5Z"/><path class="cls-7" d="M376.1,270.89a.75.75,0,0,0,0-1.5.75.75,0,0,0,0,1.5Z"/><path class="cls-7" d="M361.28,277.07a.75.75,0,0,0,0-1.5.75.75,0,0,0,0,1.5Z"/><path class="cls-7" d="M342.75,89.29a.75.75,0,0,0,0-1.5.75.75,0,0,0,0,1.5Z"/><path class="cls-7" d="M353.25,91.76a.75.75,0,0,0,0-1.5.75.75,0,0,0,0,1.5Z"/><path class="cls-7" d="M343.37,99.79a.75.75,0,0,0,0-1.5.75.75,0,0,0,0,1.5Z"/><path class="cls-7" d="M227.24,145.5a.75.75,0,0,0,0-1.5.75.75,0,0,0,0,1.5Z"/><path class="cls-7" d="M229.09,135.61a.75.75,0,0,0,0-1.5.75.75,0,0,0,0,1.5Z"/><path class="cls-7" d="M236.5,146.11a.75.75,0,0,0,0-1.5.75.75,0,0,0,0,1.5Z"/><path class="cls-7" d="M224.15,315.37a.75.75,0,0,0,0-1.5.75.75,0,0,0,0,1.5Z"/><path class="cls-7" d="M229.71,323.4a.75.75,0,0,0,0-1.5.75.75,0,0,0,0,1.5Z"/><path class="cls-7" d="M380.43,326.48a.75.75,0,0,0,0-1.5.75.75,0,0,0,0,1.5Z"/><path class="cls-7" d="M360,162.17a.75.75,0,0,0,0-1.5.75.75,0,0,0,0,1.5Z"/><path class="cls-7" d="M92.58,101.64a.75.75,0,0,0,0-1.5.75.75,0,0,0,0,1.5Z"/><path class="cls-7" d="M169.17,59a.75.75,0,0,0,0-1.5.75.75,0,0,0,0,1.5Z"/><path class="cls-7" d="M224.15,36.16a.75.75,0,0,0,0-1.5.75.75,0,0,0,0,1.5Z"/><path class="cls-7" d="M243.92,51a.75.75,0,0,0,0-1.5.75.75,0,0,0,0,1.5Z"/><path class="cls-7" d="M82.69,319.07a.75.75,0,0,0,0-1.5.75.75,0,0,0,0,1.5Z"/><path class="cls-7" d="M54.28,298.07a.75.75,0,0,0,0-1.5.75.75,0,0,0,0,1.5Z"/><path class="cls-7" d="M56.75,302.39a.75.75,0,0,0,0-1.5.75.75,0,0,0,0,1.5Z"/><path class="cls-7" d="M51.81,305.48a.75.75,0,0,0,0-1.5.75.75,0,0,0,0,1.5Z"/><path class="cls-7" d="M339,356.13a.75.75,0,0,0,0-1.5.75.75,0,0,0,0,1.5Z"/><path class="cls-7" d="M80.22,251.74a.75.75,0,0,0,0-1.5.75.75,0,0,0,0,1.5Z"/><path class="cls-7" d="M69.72,371a.75.75,0,0,0,0-1.5.75.75,0,0,0,0,1.5Z"/><path class="cls-7" d="M209.32,362.93a.75.75,0,0,0,0-1.5.75.75,0,0,0,0,1.5Z"/><path class="cls-7" d="M397.11,371a.75.75,0,0,0,0-1.5.75.75,0,0,0,0,1.5Z"/><path class="cls-7" d="M243.3,38a.75.75,0,0,0,0-1.5.75.75,0,0,0,0,1.5Z"/><path class="cls-7" d="M297,125.11a.75.75,0,0,0,0-1.5.75.75,0,0,0,0,1.5Z"/><path class="cls-7" d="M315.57,112.14a.75.75,0,0,0,0-1.5.75.75,0,0,0,0,1.5Z"/><path class="cls-7" d="M36.68,159.7a.75.75,0,0,0,0-1.5.75.75,0,0,0,0,1.5Z"/><path class="cls-7" d="M403.28,142.41a.75.75,0,0,0,0-1.5.75.75,0,0,0,0,1.5Z"/><path class="cls-2" d="M229.43,121.68a176.44,176.44,0,0,1,85.15,125.79c.24,1.6-3.11-.12-3.41-.23a127.83,127.83,0,0,1-83.55-124.36C227.65,122,228.55,121.16,229.43,121.68Z"/><path class="cls-3" d="M233.94,136.48l62,86.91L267.47,206.6c-1-.57-2,.88-1,1.45L298.4,226.9q9.54,13.38,19.07,26.75c.66.92,2-.23,1.33-1.14l-18.74-26.29a.7.7,0,0,0-.39-.6l-.06,0-64.34-90.24C234.61,134.42,233.29,135.57,233.94,136.48Z"/><path class="cls-3" d="M246.3,173.75a.88.88,0,0,0-1,1.45l26.23,17.31a.88.88,0,0,0,1-1.45Z"/><path class="cls-3" d="M253.23,144.9l2.61,19-22.38-16.84c-.9-.68-1.87.78-1,1.46l23.63,17.78c.87.65,1.77-.64,1.08-1.34a.88.88,0,0,0,.43-.89L255,144.56C254.8,143.44,253.08,143.78,253.23,144.9Z"/><path class="cls-3" d="M273.44,167.5l-.94,21.95a.88.88,0,0,0,1.75.11l.94-21.95A.88.88,0,0,0,273.44,167.5Z"/><path class="cls-3" d="M294.3,202.59a78.58,78.58,0,0,1,1.85,20,.88.88,0,0,0,1.75.11A80.62,80.62,0,0,0,296,202.26C295.77,201.16,294.05,201.49,294.3,202.59Z"/><path class="cls-2" d="M263.44,257.46c-3.54-4.45-6.74-10.35-5.15-18.72,1.71-9,8.24-16.85,14.33-23.85,8-9.18,14.56-17.36,16.33-28.95,1.28-8.35.71-16.55,4.54-25.44,4.44-10.35,13.33-17.69,21.39-22,9.4-5,18.9-6.75,28.24-13.92a41.4,41.4,0,0,0,13.05-17c2.18-5.12,3.66-10.3,5.88-15.41,7.17-16.49,22-26.28,31.73-22.62,10.18.84,16,11.43,11.83,27-3.35,12.45-12.37,22-19.72,32.64-7.95,11.54-9.28,21.36-9.55,32.44-.19,7.54-.15,15.47-3.46,23.9s-9.51,15.15-15.75,21c-7.61,7.17-16.94,14.43-21,25.23-2.17,5.79-2.64,11.45-5,17.27a48.39,48.39,0,0,1-6.57,11.19c-14.3,18.47-32.29,19.62-43.58,13.22C274.2,269.68,268.42,263.74,263.44,257.46Z"/><path class="cls-3" d="M389.27,93.37q-16.92,23.92-33.6,48,1.59-11.9,3.2-23.79c.2-1.53-2.18-1.61-2.38-.1l-3.69,27.4a1,1,0,0,0,.07.57q-14,20.2-27.81,40.53-.6-20.13-1.19-40.26c-.05-1.53-2.43-1.64-2.38-.11q.63,21.49,1.27,43a1.22,1.22,0,0,0,.15.56Q310.1,208,297.46,226.93q.14-16.76.28-33.52c0-1.53-2.37-1.63-2.38-.1q-.17,18.6-.31,37.21-8.49,12.67-16.92,25.4l.61-33.76a1.19,1.19,0,0,0-2.38-.11q-.32,17.08-.62,34.15a1.12,1.12,0,0,0,1.17,1.16,1.09,1.09,0,0,0,0,.36q-9.72,14.65-19.34,29.38c-.84,1.28,1.18,2.55,2,1.26q9.74-14.89,19.56-29.71a281,281,0,0,0,33.7-6.24,1.2,1.2,0,0,0-.54-2.33,279.23,279.23,0,0,1-31.4,5.93q7.86-11.83,15.75-23.66a1,1,0,0,0,.74-1v-.06l.75-1.11L331.92,222a1.2,1.2,0,0,0-.53-2.33l-31.25,7.51q12.54-18.71,25.17-37.35l36.34-9.14a1.19,1.19,0,0,0-.53-2.32l-33.8,8.49q14.07-20.64,28.27-41.2a1.14,1.14,0,0,0,.64,0l17.53-4.11a1.19,1.19,0,0,0-.53-2.32L357.44,143q16.81-24.27,33.85-48.37C392.18,93.38,390.15,92.12,389.27,93.37Z"/></g><g id="OBJECTS"><polygon class="cls-8" points="372.68 293.42 262.04 357.87 260.84 333.29 371.56 270.5 372.68 293.42"/><polygon class="cls-9" points="260.84 333.29 146.22 297.88 268.88 244.28 371.56 270.5 260.84 333.29"/><polygon class="cls-10" points="147.4 322.19 262.03 357.59 260.84 333.29 146.22 297.88 147.4 322.19"/><polygon class="cls-8" points="146.34 300.37 260.96 335.78 260.84 333.29 146.22 297.88 146.34 300.37"/><polygon class="cls-8" points="147.42 322.46 262.04 357.87 261.92 355.38 147.3 319.98 147.42 322.46"/><polygon class="cls-11" points="253.83 352.95 261.92 355.38 260.96 335.78 252.85 333.27 253.83 352.95"/><polygon class="cls-11" points="157.4 317.81 161.27 315.58 165.49 320.25 165.16 313.41 157.05 310.91 157.4 317.81"/><polygon class="cls-10" points="357.36 262.25 260.31 318.69 259.27 297.47 356.43 243.18 357.36 262.25"/><polygon class="cls-12" points="356.51 245.02 259.38 299.67 259.27 297.47 356.43 243.18 356.51 245.02"/><polygon class="cls-12" points="357.43 263.62 260.32 318.99 260.22 316.78 357.33 261.77 357.43 263.62"/><polygon class="cls-13" points="357.59 266.88 261.02 322.56 260.33 319.03 353.69 265.74 357.59 266.88"/><polygon class="cls-14" points="356.43 243.18 266.21 220.6 159.87 267.02 164.5 273.26 164.26 268.49 259.27 297.47 356.43 243.18"/><path class="cls-10" d="M163.69,289.09l96.08,29.68a.39.39,0,0,0,.53-.36l-1-20.45-94-29a3.55,3.55,0,0,0-4.74,3.32l.68,13.83A3.37,3.37,0,0,0,163.69,289.09Z"/><polygon class="cls-12" points="245.16 310.13 248.51 308.2 252.15 312.23 251.86 300.77 244.86 298.61 245.16 310.13"/><polygon class="cls-12" points="168.89 290.6 160.9 288.15 159.87 267.02 167.85 269.47 168.89 290.6"/><polygon class="cls-12" points="162.62 288.72 160.9 288.15 159.87 267.02 161.58 267.59 162.62 288.72"/><polygon class="cls-12" points="159.97 269.17 259.38 299.61 259.27 297.47 159.87 267.02 159.97 269.17"/><polygon class="cls-12" points="160.87 288.19 260.37 318.95 260.26 316.81 160.76 286.16 160.87 288.19"/><polygon class="cls-13" points="161.28 291.41 261.02 322.56 260.25 318.95 165.28 289.54 161.28 291.41"/><path class="cls-15" d="M220.91,252.46c3.42,4.67-.49,17.26-10,31.2a126.49,126.49,0,0,1-39.45,36.79C135.81,341.25,100.67,340.37,94,331L60.82,282.29,189.75,207S220.65,252.12,220.91,252.46Z"/><polygon class="cls-16" points="218.17 188.84 147.76 284.19 144 278.67 214.61 183.62 218.17 188.84"/><polygon class="cls-15" points="214.61 183.62 176.09 235.47 143.99 278.67 38.39 302.43 33.9 303.14 108.89 209.02 214.61 183.62"/><polygon class="cls-16" points="37.28 308.12 147.78 284.21 144 278.67 33.9 303.14 37.28 308.12"/><path class="cls-13" d="M214.61,183.61l-38.52,51.86-2.1,2.85c6.25-40.87-65.1-29.3-65.1-29.3Z"/><path class="cls-17" d="M220.91,252.46c3.42,4.67-.49,17.26-10,31.2,0,0,3-19.13-5.06-30.93C195.1,237,181,239.42,181,239.42l16-21.76S220.65,252.12,220.91,252.46Z"/><path class="cls-9" d="M131.56,237.41a2.23,2.23,0,0,1,.06,2.14,9.86,9.86,0,0,1-4.27,4.31c-3.4,2-7,2.32-8.1.74-.79-1.16,0-3,1.85-4.71a13.85,13.85,0,0,1,2.36-1.73C126.86,236.17,130.48,235.84,131.56,237.41Z"/><path class="cls-18" d="M125.41,241,91,286.44s-6.9,6.5-12.33,23.12"/><path class="cls-8" d="M131.56,237.41a2.23,2.23,0,0,1,.06,2.14,10.55,10.55,0,0,0-10.52.34,13.85,13.85,0,0,1,2.36-1.73C126.86,236.17,130.48,235.84,131.56,237.41Z"/><path class="cls-9" d="M88.32,328.84c2.75,11.2,2.86,20.72.25,21.26s-7-8.08-9.71-19.28S76,310.1,78.62,309.56c.73-.16,1.59.4,2.51,1.52C83.53,314,86.34,320.75,88.32,328.84Z"/><path class="cls-8" d="M88.32,328.84c2.75,11.2,2.86,20.72.25,21.26.13-24.8-9.89-36.91-9.89-36.91l2.45-2.11C83.53,314,86.34,320.75,88.32,328.84Z"/><path class="cls-9" d="M83.53,309.3A4.28,4.28,0,0,1,82,313.68a4.93,4.93,0,0,1-2.1,1,4.88,4.88,0,0,1-5.81-3.39A4.3,4.3,0,0,1,75.52,307a5,5,0,0,1,8,2.33Z"/><path class="cls-8" d="M83.53,309.3A4.28,4.28,0,0,1,82,313.68a3.64,3.64,0,0,1-.21-.56c-1.61-5.84-5.32-6.16-6.25-6.15a5,5,0,0,1,8,2.33Z"/><rect class="cls-19" x="346.5" y="182.77" width="15.61" height="122.12" transform="translate(-55.88 114.48) rotate(-17.03)"/><rect class="cls-15" x="351.29" y="182.94" width="1.73" height="122.59" transform="translate(-56.1 113.88) rotate(-17.03)"/><rect class="cls-15" x="355.44" y="181.67" width="1.73" height="122.6" transform="translate(-55.54 115.03) rotate(-17.03)"/><rect class="cls-15" x="364.34" y="301.74" width="15.98" height="3.11" transform="translate(-72.51 122.37) rotate(-17.03)"/><path class="cls-9" d="M365.6,304.66h16a0,0,0,0,1,0,0v1.6a3.91,3.91,0,0,1-3.91,3.91H369.5a3.91,3.91,0,0,1-3.91-3.91v-1.6A0,0,0,0,1,365.6,304.66Z" transform="translate(-73.66 122.92) rotate(-17.03)"/><polygon class="cls-20" points="343.88 183.16 328.96 187.73 331.61 177.28 332.78 172.65 336.19 175.88 343.88 183.16"/><polygon class="cls-15" points="336.19 175.88 331.61 177.28 332.78 172.65 336.19 175.88"/><path class="cls-21" d="M110,115.23h0a2.64,2.64,0,0,0-.85-3.64L93.73,102a2.64,2.64,0,0,0-3.64.85l-1.4,2.25-1.13,1.81L65.05,143.08a2.64,2.64,0,0,0,.85,3.64L119.39,180a2.64,2.64,0,0,0,3.64-.85l22.24-35.74a2.64,2.64,0,0,0-.85-3.64l-33.6-20.91A2.64,2.64,0,0,1,110,115.23Z"/><path class="cls-19" d="M119.39,180,65.9,146.72a2.64,2.64,0,0,1-.85-3.64l26.2-33.28a2.64,2.64,0,0,1,3.64-.85l53.49,33.29a2.63,2.63,0,0,1,.84,3.64L123,179.16A2.64,2.64,0,0,1,119.39,180Z"/><g class="cls-22"><path class="cls-23" d="M244.09,241.63c-2.39-1.89-6.26.53-6.59,3.56s1.74,5.81,4.16,7.66c7.18,5.48,17.08,5.15,26.1,4.58l16.35-1c4.21-.26,9-.84,11.43-4.3,2.79-4,.5-10-3.77-12.35s-9.64-1.59-14,.46c-3.88,1.81-7.46,4.6-11.71,5-7.58.78-18-7-25-4"/></g><path class="cls-8" d="M306.32,133.43c-1.51.35-6.89.43-11.9.84-1-2.8-2.51-8.92-4.68-16.68a10.58,10.58,0,0,0-5.08-5.46c-1.53-.68-3.81.57-3.15,3.53a68.5,68.5,0,0,0,2.72,9.37c2.66,7.54,4.58,11.15,5.78,12.94a2.92,2.92,0,0,0,.61.83,1.52,1.52,0,0,0,.45.35,2.78,2.78,0,0,0,1.62.42c4.62-.17,4.31-.33,10.25-2.09,4.12-1.23,3.44-.33,4.27-1.39C307.88,135.22,307.53,133.15,306.32,133.43Z"/><path class="cls-9" d="M267.84,125.42a73.26,73.26,0,0,1,1.86,11.79,29.88,29.88,0,0,1-.63,8.74c-.36,1.73-.82,3.43-1.34,5.12-.19.64-1.82,5.79-1.92,6.35l23.92,1.63c.09-4.7-4.24-19.79,0-29.08,2.95-6.43-.36-6.86-2.24-12.51-.46-1.39-3.8-4.16-5.14-4.6a13.77,13.77,0,0,0-2.21-.46c-4-.61-12.46-2.89-13.75,2.81-.35,1.55.25,6.49.81,8.16C267.45,124.05,267.66,124.73,267.84,125.42Z"/><path class="cls-24" d="M288.7,206.37a10.63,10.63,0,0,0,.06-1.35,17.45,17.45,0,0,0,.13-2.4c0-3.63.43-19.08.68-28.32h0a146.76,146.76,0,0,0,.16-15.25l-23.92-1.63a41.32,41.32,0,0,0-1.44,8.74c-.65,3.62-4.23,29.68-5.2,34.46-.05.25-.08.48-.12.72-5.19,7.78-9.1,37.37-10.07,42.49-.13.68.25.64.66.59,1.2-.15.78-1.29,2.46-1.07.89.11,1.06,1.35,1.06,1.35,2.32-6.86,10.11-31,13.67-38.24a9.14,9.14,0,0,0,.91-3c2.86-8,7.39-21.7,8.67-27.63.68,6.78,2.28,22.1,3.67,29.26-3.14,9.7.12,30.15-.38,41.77,1.38-2,2.57-2.37,3.12-2.29a2,2,0,0,1,1.32.86C285,229.87,287.81,214.4,288.7,206.37Z"/><path class="cls-25" d="M284.44,245.44a8.12,8.12,0,0,0,3.21,2.8c1.76.93,5.57,1.58,3.39,2.14a12.72,12.72,0,0,1-5.88-.32,25.43,25.43,0,0,0-4-.51c-2-.15-2-.27-1.55-2.46C280.23,244.08,283.67,243.66,284.44,245.44Z"/><path class="cls-25" d="M253.14,244.25c.24.55.35,3.15,2.1,4.08s5.57,1.57,3.39,2.14a12.85,12.85,0,0,1-5.88-.32c-1.25-.29-1.36-1.68-2.84-1.79-2-.14-2-.27-1.55-2.46C248.93,242.89,252.37,242.48,253.14,244.25Z"/><path class="cls-26" d="M271.45,122.4l1,.58-2,6C270.78,127,271.11,124.83,271.45,122.4Z"/><path class="cls-27" d="M273.76,101.82c0,.26-.83,5.76-1.19,10-.18,2.07,1.18,4.15,2.68,4.3h.06c1.47.1,3.33-1.63,3.34-3.68a74.11,74.11,0,0,1,.46-7.53Z"/><path class="cls-28" d="M271.16,97.62c.15,4.76.22,5.81,2.14,7.88a11.13,11.13,0,0,0,7.06,3.32c2.42.16,4.38-2.27,5.06-4.23a34.39,34.39,0,0,0,1.38-12c-.17-2.64-3.18-6-6.52-6.27S270.8,86,271.16,97.62Z"/><path class="cls-29" d="M286.8,89.84a8.69,8.69,0,0,0-3.51-3.35,9.45,9.45,0,0,0-8.51-1,27.33,27.33,0,0,0-2.6-.87l.07-.11c-.05,0-5.1-2.76-9.16-1-2.26,1-3.8,3.19-4.58,6.51l.12,0a8.54,8.54,0,0,0,.08,5.47c.66,1.76,1.87,3.26,2.52,5a7.59,7.59,0,0,1-3.7,9.67c1.27,1.09,3.27.76,4.68-.15s2.32-2.91,3.61-4c2.16-1.8,2-7.14,4.82-6.93l4.25-2.9c3.42-.75,7.67-1.73,10-3.64a4.37,4.37,0,0,1,1.92,2.12C287.24,96.19,287.76,91.88,286.8,89.84Zm-24.33-4.69a8.56,8.56,0,0,0-3.36,3.71,7.81,7.81,0,0,1,4.08-5.06c3.16-1.4,6.94,0,8.36.66C268.43,83.68,265.2,83.58,262.47,85.15Z"/><path class="cls-28" d="M272.56,97.78c.56,1.68.29,3.27-.58,3.56s-2.05-.83-2.6-2.51-.29-3.27.58-3.56S272,96.1,272.56,97.78Z"/><polygon class="cls-30" points="305.1 142.48 291.09 145.5 291.09 126.78 305.1 123.77 305.1 142.48"/><path class="cls-28" d="M286.11,136.1a8.74,8.74,0,0,1,3.65-1.88c1-.11-.72,1.28-1.52,2S285.16,136.85,286.11,136.1Z"/><path class="cls-28" d="M287.67,136.08c2.92-.47,4.4-1.2,5.74-.69s-.59,2.38-1.59,2.7-4.47,1.67-5.51,1S285.51,136.42,287.67,136.08Z"/><path class="cls-8" d="M285.76,136c-1.53.29-10.73,0-16.06.08.34-3.24,1.27-9,2.25-16.14a10.56,10.56,0,0,0-2.48-7c-1.13-1.22-3.72-1-4.3,2a67.12,67.12,0,0,0-1.23,9.68c-.66,9.33-.1,13.34.36,15.1a1.57,1.57,0,0,0,.7.94,3,3,0,0,0,2.13.92c4.81,0,6.58,0,12.83-1.59,4.34-1.07,5.69-.07,6.59-1.14C287.29,137.92,287,135.75,285.76,136Z"/><path class="cls-28" d="M304.94,134.66a10.16,10.16,0,0,1,.46-3.24c.22-.65,1-1.13,1.5-.54s1.28,2.57.93,3.57a3.53,3.53,0,0,1-1.77,1.94C305.33,136.72,304.93,136,304.94,134.66Z"/><polygon class="cls-14" points="350.46 127.25 343.37 120.97 384.62 109.53 370.25 144.37 358.69 134.01 353.87 138.44 350.46 127.25"/><polygon class="cls-31" points="384.62 109.53 358.69 134.01 353.87 138.44 350.46 127.25 384.62 109.53"/><polygon class="cls-9" points="135.85 51.57 140.29 43.2 97.65 46.94 123.32 74.54 130.52 60.79 136.58 63.25 135.85 51.57"/><polygon class="cls-31" points="97.65 46.94 130.52 60.79 136.58 63.25 135.85 51.57 97.65 46.94"/><path class="cls-32" d="M348.63,142.57l-1.73,1"/><path class="cls-33" d="M337.22,149.53A66.06,66.06,0,0,0,326,158.74c-6.4,6.75-10.91,15.88-10,25.13.55,5.6,3,10.79,5.05,16s3.74,10.89,2.69,16.41a14.45,14.45,0,0,1-4.33,7.82"/><path class="cls-32" d="M314.48,226.77a9.4,9.4,0,0,1-2,.2"/><path class="cls-32" d="M143.53,68.6c.42.52.83,1.05,1.23,1.58"/><path class="cls-34" d="M151.17,80a28,28,0,0,1,2.39,7c1.32,6.93-1.25,15.11-7.64,18.11-8.54,4-17.93-2.6-25.8-7.79A100.38,100.38,0,0,0,85.38,82.88C76.52,81,67,80.46,58.66,83.88,49,87.82,42,96.68,38,106.32s-5.38,20.12-6.74,30.47c-.69,5.31-1.38,10.7-.55,16s3.39,10.55,7.92,13.39c6.65,4.18,15.23,2.17,23.07,2.61a35.5,35.5,0,0,1,33.53,33.9"/><path class="cls-32" d="M95,208.54c-.08.66-.17,1.32-.29,2"/><path class="cls-32" d="M159.36,364.68a6,6,0,0,1,0-2"/><path class="cls-35" d="M168.05,355.68c4.22-.07,8.23,2.38,11.13,5.5,3.07,3.3,5.2,7.33,7.72,11.05a61.15,61.15,0,0,0,89.15,13.22c10.81-8.76,18.3-20.91,28.08-30.81,7.87-8,18.38-14.64,29.21-15.2"/><path class="cls-32" d="M339.34,339.77c.66.11,1.31.25,2,.41"/><path class="cls-36" d="M262,42.24c5.27-1.2,10.2,3.29,12.67,8.1s3.71,10.34,7.23,14.43c6,7,16.53,7.49,25.76,7.26s19.61-.2,26.15,6.32"/><rect class="cls-15" x="189.27" y="104.51" width="2.05" height="25.94" transform="translate(60.92 -64.93) rotate(22.96)"/><path class="cls-14" d="M175.42,152.94h0a5.21,5.21,0,0,1-2.77-6.83l9.4-22.18a5.2,5.2,0,0,1,6.83-2.76h0a5.21,5.21,0,0,1,2.77,6.83l-9.4,22.18A5.2,5.2,0,0,1,175.42,152.94Z"/><circle class="cls-37" cx="205.42" cy="82.13" r="26.41" transform="translate(68.13 255.61) rotate(-73.44)"/><circle class="cls-38" cx="205.56" cy="81.69" r="22.55" transform="translate(-8.91 135.85) rotate(-35.85)"/><ellipse class="cls-39" cx="202.4" cy="71.89" rx="8.88" ry="7.34"/></g></g></svg>