<svg xmlns="http://www.w3.org/2000/svg" viewBox="0 0 2885.4 2000"><defs><style>.cls-1{isolation:isolate;}.cls-2{fill:#fadec0;}.cls-3{fill:#fff5ed;}.cls-4{fill:#ffb27d;}.cls-5{fill:#233862;}.cls-6{fill:#f99746;}.cls-7{fill:#ed7d2b;}.cls-8{fill:#163560;}.cls-9{fill:#ed975d;}.cls-10{fill:#fff;}.cls-11{fill:#2b478b;}.cls-12{fill:#2a4e96;}.cls-13{fill:#ed985f;}.cls-14{fill:#2c3a64;}.cls-15{fill:#bc3f3f;}.cls-16{fill:#a02e2e;}.cls-17{fill:#ab2e2e;}.cls-18{fill:#77a4e5;}.cls-19{fill:#5d8dd4;}.cls-20{fill:#8eb2e5;mix-blend-mode:screen;}.cls-21{fill:#2e3552;}</style></defs><title>Artboard 17</title><g class="cls-1"><g id="Layer_1" data-name="Layer 1"><path class="cls-2" d="M2644.75,1829.49s213.86-507.91-31.38-907.45c-450.53-734-799.92-230.4-1133.51-450.31C997.58,153.79,208,207.46,273.26,1076.54c28.81,383.53-274.55,383.67-88.69,753.73Z"/><path class="cls-3" d="M1838.16,1644.5a100,100,0,0,0-97.6,78.12,52.32,52.32,0,0,0-66.35-4.22,72.9,72.9,0,0,0,.38-7.43,71.54,71.54,0,0,0-71.55-71.54q-3.11,0-6.14.26V1390.84l-96.41-107.79L1370.55,1454v138.37c-2.08-.13-4.17-.21-6.28-.21a99.48,99.48,0,0,0-99.49,99.48c0,1.7,0,3.38.13,5.05a83.66,83.66,0,0,0-45,.12,100.8,100.8,0,0,0-198.88,31.46,49.89,49.89,0,1,0-25.18,93h879.67v-.35c12.07,0,62.62-21.1,62.62-76.34A100,100,0,0,0,1838.16,1644.5Z"/><polygon class="cls-4" points="2364.79 1794.13 2368.95 1764.14 2351.46 1749.53 2345.95 1789.22 2364.79 1794.13"/><path class="cls-5" d="M2306.71,1820.91H2378s1.71-10.87-2-19.11c-3.57-7.91-9.12-12.79-9.62-18.85-4.53,4.66-10.11,7.66-20.42,6.28-1.26,2-8.15,13-12.37,16C2328.92,1808.61,2308.15,1807.42,2306.71,1820.91Z"/><path class="cls-6" d="M2321,1389.24c4.66,37.51,8.47,72.87,11.58,105.83C2349.21,1670.66,2346,1778,2346,1778s1.19,3.17,11.48,3.22A59.08,59.08,0,0,0,2369,1780s37.15-114.66,34.28-179.91a99.63,99.63,0,0,0-2.9-21.12c-8.91-33.38,33-161-12.56-208.6S2318.89,1372,2321,1389.24Z"/><path class="cls-7" d="M2321,1389.24c4.66,37.51,8.47,72.87,11.58,105.83l70.61,105a99.63,99.63,0,0,0-2.9-21.12c-8.91-33.38,33-161-12.56-208.6S2318.89,1372,2321,1389.24Z"/><path class="cls-4" d="M2264.93,1031.5s1.72-8.57,3.65-15.11c.86-2.89-5.11-21.9-9.24-24.24s-14.89,10.46-11.84,20.29c1.56,5,4.13,21.47,4.13,21.47Z"/><path class="cls-4" d="M2264.93,1031.5s2.24-5,4.27-5.78,4.2-8.93,5.69-12.15c0,0-1.44-2.1-3.95.61-1.54,1.65-5,6.5-5,6.5Z"/><path class="cls-4" d="M2559.24,1060.32c.43.9,1,2.52,1.58,4,0-.41,0-.82,0-1.22,0-3,11.3-19.45,15.93-20.47s11.18,14.35,5.39,22.86c-3,4.37-10.24,19.33-10.24,19.33l-12-6.21s-.69-5.41-2.39-6.77-1.4-9.77-1.89-13.28C2555.63,1058.59,2557.63,1057,2559.24,1060.32Z"/><path class="cls-4" d="M2484.35,1785.14c1-9.61,1.26-34.9,1.26-34.9s-25.77-8.23-24.82-2.58c4.66,27.8,3.4,41.57,3.4,41.57l10.42,6.22Z"/><path class="cls-6" d="M2342.56,1387.46s99.53,272.83,119.12,391.18c0,0,4.54,3.12,13,2.08,9.6-1.17,12.23-7.84,12.23-7.84s18-141.84-17.76-191.09c-24.55-33.83,10.59-182.42-46.59-194.33S2342.56,1387.46,2342.56,1387.46Z"/><path class="cls-8" d="M2359.51,1178.3a31.48,31.48,0,0,0,1.5,3.33,27,27,0,0,0,2.9,4.45,39.42,39.42,0,0,1-1.21-5.16h0c-.16-.9-.3-1.88-.42-2.93a109.85,109.85,0,0,1-.25-19.6,107.4,107.4,0,0,0,1.67,19.44c.15.83.32,1.66.52,2.48a45.68,45.68,0,0,0,2.46,7.84c.18.46.39.92.61,1.37,6.65,5.93,14.59,15,22.69,25.44,5.57,7.16,11.21,15,16.54,22.85q3.09,4.56,6,9.08h0c.83,1.27,1.63,2.52,2.42,3.78,0,0,0,0,0,0,1,1.56,1.94,3.09,2.88,4.62,2.61,4.24,5,8.34,7.21,12.24.5.89,1,1.76,1.45,2.62,6.72,12.34,10.73,22.12,9.82,25.88l1.23-.86c.23-.14.48-.32.76-.51,2.75-1.91,8.17-5.63,15-10.29l.45-1.38,3.43-10.62c.75,2.38.25,6.61-.26,9.57,10.76-7.28,24.18-16.24,36.35-24h0c9.1-5.82,17.47-11,23.52-14.32a154,154,0,0,0-3.81-15.4c3.55,1.57,6.94,9,8.54,13,.41-.21.8-.38,1.16-.53,0,0,.66-30.42-39.06-59.12-20.82-15-35.58-22.18-32.47-36.88s5.8-79.54-40-69.29c0,0-6.49-4.13-9.68-4.12a8.53,8.53,0,0,1,3.57,2.39c-5-1-12.22-1.74-18.73.77-3.57,1.38-7.52,5.85-11.37,12.32h0c-.23.42-.48.83-.73,1.27-1.63,2.85-3.22,6.06-4.76,9.52a158.89,158.89,0,0,0-7.24,20h0c-.68,2.35-1.32,4.71-1.9,7.11a1.55,1.55,0,0,0-.08.36h0C2355.59,1144.17,2354.14,1164.6,2359.51,1178.3Z"/><path class="cls-4" d="M2368.85,1190.7c-.16,0,12.83,9.45,23.85,8.13,10.36-1.24,18.79-13.18,18.66-13.23-4.1-1.47-4.45-7.44-.66-32.33l-2,.09-33,1.58s-.77,10.2-2.16,19.7C2372.41,1182.63,2370.8,1190.12,2368.85,1190.7Z"/><path class="cls-9" d="M2375.74,1154.94s-.77,10.2-2.16,19.7c18,2.16,29.93-12.79,35.16-21.28Z"/><path class="cls-8" d="M2412.57,1150.36s11.61-13.45,15.75-25.82c3-8.83,3.35-43.12-31.15-43.31a46.39,46.39,0,0,0-20.1,4.37c-8.07,3.86-20.24,13-12.77,44.07l1.6,10.36Z"/><path class="cls-10" d="M2316.88,1382.22s42.94,25.52,96.86,12.4c.63-.16,44.4-7.14,44.4-7.14-.76-2.06-6.41-35.86-7.15-37.75-9.57-24.69-27-158.66-41.65-165.27-3.73,4.07-14.39,6.85-23.51,6-10.51-.93-14-5.47-13.15-10.35-11.63,5.5-20.56,10.6-20.56,10.6C2341.49,1206.68,2316.88,1382.22,2316.88,1382.22Z"/><path class="cls-4" d="M2368.41,1163.05s42.34,7,46.3-19.42,12.09-43.33-14.77-48.93-33.64,3.7-37.11,12.21S2357.5,1160.54,2368.41,1163.05Z"/><path class="cls-8" d="M2380.71,1091.18s7,32.74,24.15,40,25.6,3.61,25.6,3.61a172.81,172.81,0,0,1-4-36S2391.67,1077.72,2380.71,1091.18Z"/><path class="cls-8" d="M2383.21,1094.13s-9.71,5.63-12.82,12-6.13,20.13-10.1,19.06c0,0-5.62-22.38,6-32.85C2378.59,1081.3,2383.21,1094.13,2383.21,1094.13Z"/><path class="cls-11" d="M2251.34,1032.11c1.72-.61,4.26-2,7.57-2.34a23.21,23.21,0,0,1,6.65.7s12,74.25,12.83,78.18,51.24,60.65,64.81,60.42c12.26-.2,26.78,9.26,29.48,11.08,0,0-28.55,60.36-30,71.7-1.55,12.33-16.33,202.33-16.33,202.33s.88,8.84-15.64,4.08-20.64-8.68-20.64-8.68,15.17-149.57,18.35-196.09a89.35,89.35,0,0,1,2.9-17.35,17.58,17.58,0,0,0-2.84-15c-20.88-28.66-53.85-75.1-55.69-85C2250.12,1121.72,2251.34,1032.11,2251.34,1032.11Z"/><path class="cls-5" d="M2425,1820.91h71.29s1.71-10.87-2-19.11c-3.57-7.91-9.12-12.79-9.63-18.85-4.53,4.66-10.1,7.66-20.41,6.28-1.26,2-8.15,13-12.37,16C2447.16,1808.61,2426.38,1807.42,2425,1820.91Z"/><path class="cls-11" d="M2376,1257.71c2.4-14.79,33.08-74.15,33.08-74.15s19.39-5.8,32.15-1.18,78.81-32.66,80.92-36.1,37.49-69.34,37.49-69.34,2.93-1.7,7.63.75a8.6,8.6,0,0,1,4.67,7.16s-27.3,83-34.56,95.82c-4.38,7.74-41.2,34.69-69.75,54.87a17.91,17.91,0,0,0-7.41,17c3.83,28.38,4.81,44.36,9.23,93.06,3.66,40.39,5.06,118.6,5.06,118.6s-31.95,11-54,12.52-26.86-21.78-26.86-21.78S2373.51,1272.91,2376,1257.71Z"/><path class="cls-10" d="M2382.28,1150a18.88,18.88,0,0,1-11.21,2.11c-4.16-.63-5.11-5.56-5.11-5.56a16.38,16.38,0,0,1,7.51,0A31.82,31.82,0,0,1,2382.28,1150Z"/><path class="cls-4" d="M722.35,1085.26s-17.09-17.15-6.8-24.46,16.52-4.94,18.35-.46,2,24.09,2,24.09Z"/><path class="cls-6" d="M767.66,1212.73a383.59,383.59,0,0,1-55.7,21.83,331.78,331.78,0,0,1-44.63,10.27c-3.57.57-7,1.05-10.36,1.45-35.19,4.27-56.36.37-56.36.37s3.75-78.76,29.74-78.88c29.68-.13,95.67,8.51,98.54-.21,3.24-9.84-11.88-82.23-11.88-82.23,11-8.53,20.84-5.28,20.84-5.28S798,1198.11,767.66,1212.73Z"/><path class="cls-7" d="M767.66,1212.73a383.59,383.59,0,0,1-55.7,21.83,331.78,331.78,0,0,1-44.63,10.27c-14.66-22.58-27.28-46.29-7.4-35.41C695,1228.62,767.66,1212.73,767.66,1212.73Z"/><path class="cls-5" d="M585,1791.79s-2.27,26.31,3.29,29l71.17-.15s0-8.21-11.43-10-31.52-8.52-34.92-23.42S585,1791.79,585,1791.79Z"/><path class="cls-12" d="M637.21,1473.38c-.35,17.2-1.18,34.95-2.8,50.89C626.73,1600,624,1691.38,622.92,1709c-1.91,30.6-8,79.49-8,79.49s-12,11.38-35.36,6c0,0-19.36-70.41-23.69-144.55-.07-1.21-.13-2.44-.19-3.66-.51-9.8-1-21-1.57-33.09-3.56-81-7.43-201.2-7.43-201.2L636,1391S638.09,1430.49,637.21,1473.38Z"/><path class="cls-5" d="M637.21,1473.38c-22.63,39-65.78,111-83.06,139.76-3.56-81-7.43-201.2-7.43-201.2L636,1391S638.09,1430.49,637.21,1473.38Z"/><path class="cls-4" d="M411.08,1397.73s-14.54,17.09-15.84,21.83-3.64,21.81-2.39,26.94,10.91-14.3,14.42-16.38-2.64,7.73-1.43,9.37,8.14-5.72,10.84-8.21,2.44-15.9,5.69-23.83S411.08,1397.73,411.08,1397.73Z"/><path class="cls-5" d="M407.67,1761.89s-12.67,11.56-10.2,19.78,13.9,13.68,15.45,23.72,7.72,15.52,13.28,15.52h26.52s4.09-7.07-5.8-9.2-13.61-13.92-13-24.87-.93-25.56-.93-25.56l-21-4.86Z"/><path class="cls-12" d="M622,1413.77s-83.6,178.88-128.09,257.37-58.4,100.39-58.4,100.39-25.49-10-27.8-16.89c0,0,17-151.52,46.8-188.46,16.84-20.87,36.62-83.5,37.54-105.41s20.46-74.18,20.46-74.18Z"/><path class="cls-6" d="M646.4,1422.21s-33.25,22.22-80.3,20.16c-20.65-.9-61.61-6.76-68.22-23.18-1.56-3.86-.42-8.75,1.91-16.26,6-19.52,20.13-56.7,15.88-139.12a135.43,135.43,0,0,1,.55-21.63c4.43-40.6,27.7-64.64,50.19-72.5,54.84-19.16,73.12,7.39,73.12,7.39s24.24,19.21,27.9,59.29C674.73,1316.54,646.4,1422.21,646.4,1422.21Z"/><path class="cls-4" d="M583.57,1180.79s28.54,7.25,53.37-4.89c0,0,4.76-2.89.36-8.17a80.2,80.2,0,0,0-.16-8.79,125.19,125.19,0,0,0-1.06-14.1l-19.58-11-21-9.9a99.31,99.31,0,0,1,2,13.57C600.55,1168.52,583.57,1180.79,583.57,1180.79Z"/><path class="cls-13" d="M599.8,1137.42s14.67,19.07,37.34,21.52c-.27-9.06-1.47-18.26-1.47-18.26l-19.17-6.86Z"/><path class="cls-4" d="M652.47,1139s-44.16,19.83-56-7.4-25.58-43,2.11-56.82,37.74-5.8,44,2.32S663.65,1133.14,652.47,1139Z"/><path class="cls-14" d="M564.78,1080.1c-.55-.37-1.62-.5-3.8,0a9,9,0,0,1,3.71-2.2c-.34-3.11-.16-8.83,4.65-11.49a6.69,6.69,0,0,0-1.89,5.49c4.33-7.71,15.93-15.56,52-22.18,47.62-8.71,40.18,25.23,35.09,30.39s-22.88-.55-33.89,3.33-8.83,20.71-12.05,23.95-2.77-1.1-8.56-2.06-4,7.73-1,12.89-2.17,14.39-2.17,14.39l-9.22-5.81c-9.22-5.82-24.67-36.72-23.26-44.56C564.53,1081.51,564.65,1080.81,564.78,1080.1Z"/><polygon class="cls-12" points="712.82 1079.73 638.41 1103.28 634.46 1092.21 707.07 1063.63 712.82 1079.73"/><polygon class="cls-12" points="769.72 1064.33 688.84 1090.42 681.65 1070.3 760.73 1039.18 769.72 1064.33"/><polygon class="cls-5" points="824.99 1049.13 756.51 1070.23 746.8 1043.06 813.13 1015.93 824.99 1049.13"/><path class="cls-5" d="M827.39,1053.48h0a4,4,0,0,0,2.43-5.12l-12.47-34.89a4,4,0,0,0-5.12-2.43h0a4,4,0,0,0-2.42,5.12l12.46,34.9A4,4,0,0,0,827.39,1053.48Z"/><path class="cls-12" d="M638.91,1105.75h0a3.56,3.56,0,0,1-4.55-2.16l-3.23-9a3.56,3.56,0,0,1,2.15-4.56h0a3.56,3.56,0,0,1,4.55,2.16l3.24,9.06A3.56,3.56,0,0,1,638.91,1105.75Z"/><path class="cls-7" d="M499.79,1402.93c6-19.52,20.13-56.7,15.88-139.12a135.43,135.43,0,0,1,.55-21.63h0c18-1.55,45.63,18,45.63,18S544.87,1363.73,499.79,1402.93Z"/><path class="cls-6" d="M582.48,1165.08s-46.28,8-70.42,37.42-63,71-72.15,85.57-34.66,113.57-34.66,113.57,1.68,3.18,8.71,5a16.58,16.58,0,0,0,11.61-1s33.76-57.79,46.47-86.65c5.28-12,96.59-59.5,130.92-54.58C616.44,1266.41,582.48,1165.08,582.48,1165.08Z"/><path class="cls-4" d="M711.63,1058.5s10,1.16,15.28-2.11,3.83-5.41,3.83-5.41S712.09,1052.86,711.63,1058.5Z"/><path class="cls-15" d="M627.38,1197.36S607.07,1325.59,463,1362.92l-15.7,31,27.58,4.67S638.91,1351,636.7,1195.09Z"/><polygon class="cls-16" points="624.24 1176.89 617.58 1177.55 617.58 1187.17 627.38 1197.36 636.7 1195.1 636.7 1181.73 630 1176.89 624.24 1176.89"/><path class="cls-7" d="M597.46,1152.2s-7.39,2.59-20.48,12.88c0,0,14.64,31.07,45.52,34.79,0,0-.5-14.42,1.74-23C624.24,1176.9,599.08,1168.93,597.46,1152.2Z"/><path class="cls-7" d="M624.24,1176.9s15.07,8,16.18,20.46c0,0,5.59-9.08,4.09-15.45a31.78,31.78,0,0,0-7.21-14.18S638.19,1176,624.24,1176.9Z"/><path class="cls-6" d="M1430.74,1282c-73.9,39.29-87.44,150.23-42,226.65,12.57-59.64,42.16-91.87,42.16-91.87-18.69,128.63,41.89,205.88,41.89,205.88,116.1-114.64,67.82-251.37,67.82-251.37,35.8,53.54,28.13,103.51,28.13,103.51,82.15-109.32-12.72-190.55-12.72-190.55C1472.82,1265.69,1430.74,1282,1430.74,1282Z"/><path class="cls-7" d="M1456,1273.45c-38.7,29.66-21.19,79-21.19,79,14.51-34.82,24.57-44,24.57-44-16.44,63.85,23,122.7,23,122.7,66.93-63.69,35.94-125.92,35.94-125.92,26.84,12.33,26.2,47.8,26.2,47.8,18.39-44.25-12.08-77.63-12.08-77.63C1497.65,1271,1456,1273.45,1456,1273.45Z"/><path class="cls-12" d="M1488.86,1048.93H1348.24a106,106,0,0,0-104.17,86.63L1211,1314.06a6.11,6.11,0,0,0,9.38,6.22l268.53-177.12Z"/><path class="cls-5" d="M1397.37,1151.55c-12.16-56.56-83-91.88-83-91.88,37.86,121.94-40.41,192.5-97.93,225l-5.45,29.36a6.11,6.11,0,0,0,9.38,6.22l184.26-121.53A359.25,359.25,0,0,0,1397.37,1151.55Z"/><path class="cls-12" d="M1488.86,1048.93h140.63a106,106,0,0,1,104.17,86.63l33.12,178.5a6.11,6.11,0,0,1-9.38,6.22l-268.54-177.12Z"/><path class="cls-5" d="M1757.4,1320.28a6.11,6.11,0,0,0,9.38-6.22l-33.12-178.5a105.53,105.53,0,0,0-16.12-39.6c26.11,131.09,7.37,186-50.74,148.39S1594.18,1169.27,1600,1126c-24.29,17.53-40.68,36.91-50.64,57Z"/><path class="cls-15" d="M1432,1271.55h113.79c63.25-63.25,165.6-265.07,165.6-485.42,0-262.32-222.5-384-222.5-384s-222.49,121.72-222.49,384C1266.37,1006.48,1365.41,1205,1432,1271.55Z"/><path class="cls-17" d="M1558.51,1148.84c-62,74.93-105.07,95.44-180.76,49.32,18.73,31.62,37.5,56.67,54.22,73.39h113.79c63.25-63.25,165.6-265.07,165.6-485.42,0-262.32-222.5-384-222.5-384C1738.44,577.61,1666.86,1013.41,1558.51,1148.84Z"/><circle class="cls-5" cx="1490.69" cy="717.24" r="127.51"/><circle class="cls-12" cx="1482.63" cy="712.4" r="127.51"/><circle class="cls-6" cx="1482.63" cy="605.15" r="9.19"/><circle class="cls-6" cx="1482.63" cy="819.66" r="9.19" transform="translate(155.52 1872.66) rotate(-67.37)"/><circle class="cls-6" cx="1375.37" cy="712.4" r="9.19"/><circle class="cls-6" cx="1589.88" cy="712.4" r="9.19" transform="translate(326.05 1911.56) rotate(-67.63)"/><path class="cls-6" d="M1413.29,630.07a9.19,9.19,0,1,1-13,0A9.18,9.18,0,0,1,1413.29,630.07Z"/><path class="cls-6" d="M1565,781.75a9.19,9.19,0,1,0,0,13A9.19,9.19,0,0,0,1565,781.75Z"/><path class="cls-6" d="M1400.29,781.75a9.19,9.19,0,1,1,0,13A9.19,9.19,0,0,1,1400.29,781.75Z"/><path class="cls-6" d="M1552,630.07a9.19,9.19,0,1,0,13,0A9.18,9.18,0,0,0,1552,630.07Z"/><circle class="cls-18" cx="1486.82" cy="714.98" r="85.26" transform="translate(-70.09 1260.75) rotate(-45)"/><path class="cls-19" d="M1401.56,715a85.28,85.28,0,0,1,127.68-74,85.27,85.27,0,1,0-89,145.37A85.21,85.21,0,0,1,1401.56,715Z"/><path class="cls-20" d="M1416.23,739a93,93,0,0,1,93-93c1,0,2,0,3,0A73.69,73.69,0,0,0,1416.28,742C1416.25,741,1416.23,740,1416.23,739Z"/><path class="cls-12" d="M1556.05,1284.27H1421.68a12.72,12.72,0,0,1-12.73-12.72h0a12.73,12.73,0,0,1,12.73-12.72h134.37a12.72,12.72,0,0,1,12.72,12.72h0A12.71,12.71,0,0,1,1556.05,1284.27Z"/><path class="cls-5" d="M1556.05,1258.83h-2.17a12.72,12.72,0,0,1-9.44,21.25h-132.2a12.7,12.7,0,0,0,9.44,4.19h134.37a12.71,12.71,0,0,0,12.72-12.72h0A12.72,12.72,0,0,0,1556.05,1258.83Z"/><path class="cls-21" d="M113.83,1824.64v1.79c0,2.86,1.35,5.22,3,5.22H2754.09c1.65,0,3-2.36,3-5.22v-1.79c0-2.86-1.35-5.22-3-5.22H116.83C115.18,1819.42,113.83,1821.78,113.83,1824.64Z"/></g></g></svg>