<svg width="57" height="57" viewBox="0 0 57 57" fill="none" xmlns="http://www.w3.org/2000/svg">
<g clip-path="url(#clip0)">
<path d="M47 15.1H46.9L45.6 16.5C48.5 20.4 50.2 25.3 50.2 30.6C50.2 43.8 39.4 54.6 26.2 54.6C13 54.6 2 43.7 2 30.5C2 17.3 12.8 6.5 26 6.5C31.2 6.5 36.1 8.2 40 11.1L41.1 10.1V9.3C36.9 6.2 31.7 4.5 26 4.5C11.6 4.5 0 16.2 0 30.5C0 44.8 11.7 56.5 26 56.5C40.3 56.5 52 44.8 52 30.5C52.1 24.7 50.2 19.4 47 15.1Z" fill="white"/>
<path d="M41.2 20.7L39.7 22.2C41.2 24.6 42 27.5 42 30.5C42 39.4 34.8 46.6 25.9 46.6C17 46.6 10 39.3 10 30.5C10 21.7 17.2 14.4 26 14.4C29 14.4 31.9 15.2 34.3 16.7L35.7 15.2C32.9 13.4 29.5 12.3 25.9 12.3C16.1 12.4 8 20.5 8 30.5C8 40.5 16.1 48.6 26.1 48.6C36.1 48.6 44.2 40.5 44.2 30.5C44.1 26.9 43 23.5 41.2 20.7Z" fill="white"/>
<path d="M36.0002 26L34.5002 27.5C34.8002 28.4 35.0002 29.4 35.0002 30.5C35.0002 35.4 31.0002 39.4 26.1002 39.4C21.2002 39.4 17.2002 35.4 17.2002 30.5C17.2002 25.6 21.2002 21.6 26.1002 21.6C27.1002 21.6 28.2002 21.8 29.1002 22.1L30.6002 20.6C29.2002 20 27.7002 19.6 26.1002 19.6C20.1002 19.6 15.2002 24.5 15.2002 30.5C15.2002 36.5 20.1002 41.4 26.1002 41.4C32.1002 41.4 37.0002 36.5 37.0002 30.5C36.9002 28.9 36.6002 27.3 36.0002 26Z" fill="white"/>
<path d="M26.7 31.3C26.5 31.5 26.2 31.6 26 31.6C25.7 31.6 25.5 31.5 25.3 31.3C24.9 30.9 24.9 30.3 25.3 29.9C24.9 30.3 24.9 30.9 25.3 31.3C25.5 31.5 25.7 31.6 26 31.6C26.2 31.6 26.5 31.5 26.7 31.3Z" fill="white"/>
<path d="M26.0002 33.3C27.5466 33.3 28.8002 32.0464 28.8002 30.5C28.8002 28.9536 27.5466 27.7 26.0002 27.7C24.4538 27.7 23.2002 28.9536 23.2002 30.5C23.2002 32.0464 24.4538 33.3 26.0002 33.3Z" fill="white"/>
<path d="M54.3004 4.1H52.1004V2C52.1004 1.2 51.6004 0.5 50.9004 0.2C50.7004 0 50.4004 0 50.1004 0C49.6004 0 49.1004 0.2 48.7004 0.6L44.5004 4.7C44.2004 5.1 44.0004 5.6 44.0004 6.1V10.2C44.0004 10.5 44.0004 10.7 44.1004 10.9L25.2004 29.9C24.8004 30.3 24.8004 30.9 25.2004 31.3C25.4004 31.5 25.6004 31.6 25.9004 31.6C26.2004 31.6 26.4004 31.5 26.6004 31.3L45.6004 12.3C45.7004 12.3 45.8004 12.3 45.9004 12.3H50.1004C50.6004 12.3 51.1004 12.1 51.5004 11.7L55.7004 7.6C56.1004 7.2 56.3004 6.7 56.3004 6.1C56.3004 5 55.5004 4.1 54.3004 4.1ZM50.1004 10.2H46.0004V6.1L50.1004 2V6.1H54.3004L50.1004 10.2Z" fill="white"/>
</g>
<defs>
<clipPath id="clip0">
<rect width="56.3" height="56.5" fill="white"/>
</clipPath>
</defs>
</svg>
