<svg width="140" height="55" viewBox="0 0 140 55" fill="none" xmlns="http://www.w3.org/2000/svg">
<path d="M6.46988 36.0527C6.46988 36.6278 6.83672 37.0933 7.57038 37.4492C8.42637 37.8564 9.31582 38.1755 10.227 38.4024C11.2882 38.6818 12.3339 39.0263 13.359 39.4343C14.4049 39.8515 15.3247 40.572 16.0178 41.5172C16.7515 42.4911 17.1183 43.7081 17.1183 45.1682C17.1183 47.3734 16.3281 49.0702 14.7478 50.2585C13.1675 51.4469 11.1969 52.0403 8.83595 52.0387C4.60564 52.0387 1.72087 50.3356 0.181641 46.9293L4.80373 44.2221C5.40974 46.0857 6.75601 47.0167 8.84256 47.0151C10.7369 47.0151 11.6848 46.3995 11.6862 45.1682C11.6862 44.5962 11.3194 44.1307 10.5857 43.7716C9.72771 43.3703 8.83875 43.0513 7.92915 42.8184C6.86689 42.5257 5.82114 42.1669 4.79713 41.7436C3.76381 41.3233 2.84859 40.6205 2.14053 39.7036C1.40686 38.7742 1.04003 37.6073 1.04003 36.2028C1.04003 34.085 1.78837 32.4168 3.28504 31.1982C4.78172 29.9796 6.64303 29.3711 8.86897 29.3727C10.461 29.3548 12.0324 29.7642 13.4426 30.5643C14.7982 31.3349 15.9257 32.5036 16.6957 33.9364L12.1551 36.4816C11.4977 35.0231 10.3972 34.2931 8.85356 34.2915C8.25277 34.2663 7.65829 34.432 7.14339 34.7682C6.93568 34.898 6.76375 35.0854 6.64535 35.3113C6.52695 35.5371 6.46638 35.793 6.46988 36.0527Z" fill="#0A1428"/>
<path d="M30.4496 52.0292C27.3462 52.0292 24.7571 50.9417 22.6823 48.7667C20.6075 46.5917 19.5708 43.9027 19.5723 40.6998C19.5723 37.4921 20.6089 34.7999 22.6823 32.6233C24.7556 30.4467 27.3447 29.3592 30.4496 29.3608C32.3663 29.336 34.2556 29.8544 35.9301 30.8646C37.5083 31.7949 38.8069 33.196 39.6718 34.9016L35.0981 37.6923C34.6838 36.8017 34.03 36.0681 33.2228 35.5879C32.364 35.0646 31.3932 34.795 30.4078 34.8063C28.8142 34.8063 27.4937 35.3576 26.446 36.4602C25.3983 37.5628 24.8789 38.976 24.8877 40.6998C24.8659 41.4754 24.9932 42.2474 25.2615 42.967C25.5297 43.6865 25.9331 44.3379 26.446 44.8798C27.4922 45.9808 28.8128 46.5321 30.4078 46.5337C31.4054 46.5527 32.3908 46.2934 33.2691 45.7806C34.0773 45.3119 34.7322 44.5845 35.1443 43.6978L39.7664 46.4479C38.8481 48.1463 37.5245 49.5457 35.9345 50.4992C34.2628 51.5241 32.3705 52.0519 30.4496 52.0292Z" fill="#0A1428"/>
<path d="M54.5091 28.8961V37.5111H48.0822V28.8961H42.6787V51.9958H48.0822V43.009H54.5091V51.9958H59.8839V28.8961H54.5091Z" fill="#0A1428"/>
<path d="M82.1539 48.7453C80.0365 50.9346 77.454 52.0292 74.4064 52.0292C71.3587 52.0292 68.7836 50.9346 66.6809 48.7453C65.6827 47.7007 64.889 46.4494 64.3469 45.0657C63.8048 43.6821 63.5254 42.1944 63.5254 40.6914C63.5254 39.1884 63.8048 37.7008 64.3469 36.3172C64.889 34.9335 65.6827 33.6822 66.6809 32.6376C68.7821 30.4483 71.3573 29.3537 74.4064 29.3537C77.4555 29.3537 80.038 30.4483 82.1539 32.6376C83.1567 33.6792 83.9547 34.9296 84.4998 36.3137C85.0449 37.6977 85.3259 39.1868 85.3259 40.6914C85.3259 42.1961 85.0449 43.6852 84.4998 45.0692C83.9547 46.4533 83.1567 47.7037 82.1539 48.7453ZM70.4314 44.9442C70.957 45.4963 71.5797 45.9285 72.2625 46.215C72.9453 46.5016 73.6744 46.6367 74.4064 46.6124C75.1415 46.6353 75.8735 46.4997 76.5597 46.2133C77.246 45.9269 77.8727 45.4955 78.4034 44.9442C79.4332 43.8095 80.0102 42.2823 80.0102 40.6914C80.0102 39.1006 79.4332 37.5734 78.4034 36.4387C77.8727 35.8874 77.246 35.456 76.5597 35.1696C75.8735 34.8832 75.1415 34.7475 74.4064 34.7705C72.8128 34.7705 71.4878 35.3266 70.4314 36.4387C69.3749 37.5509 68.8459 38.9712 68.8444 40.6998C68.8444 42.4109 69.3734 43.8257 70.4314 44.9442Z" fill="#0A1428"/>
<path d="M107.041 48.7453C104.925 50.9346 102.342 52.0292 99.2931 52.0292C96.244 52.0292 93.6688 50.9346 91.5676 48.7453C90.5695 47.7007 89.7757 46.4494 89.2336 45.0657C88.6915 43.6821 88.4121 42.1944 88.4121 40.6914C88.4121 39.1884 88.6915 37.7008 89.2336 36.3172C89.7757 34.9335 90.5695 33.6822 91.5676 32.6376C93.6703 30.4483 96.2454 29.3537 99.2931 29.3537C102.341 29.3537 104.923 30.4483 107.041 32.6376C108.043 33.6792 108.841 34.9296 109.386 36.3137C109.932 37.6977 110.213 39.1868 110.213 40.6914C110.213 42.1961 109.932 43.6852 109.386 45.0692C108.841 46.4533 108.043 47.7037 107.041 48.7453ZM95.3181 44.9442C95.8438 45.4962 96.4665 45.9283 97.1493 46.2148C97.8321 46.5014 98.5611 46.6366 99.2931 46.6124C100.028 46.6355 100.76 46.4999 101.447 46.2135C102.133 45.9271 102.759 45.4956 103.29 44.9442C104.32 43.8095 104.897 42.2823 104.897 40.6914C104.897 39.1006 104.32 37.5734 103.29 36.4387C102.76 35.8872 102.133 35.4556 101.447 35.1692C100.76 34.8828 100.028 34.7473 99.2931 34.7705C97.701 34.7705 96.376 35.3266 95.3181 36.4387C94.2601 37.5509 93.7312 38.9712 93.7312 40.6998C93.7312 42.4109 94.2601 43.8257 95.3181 44.9442Z" fill="#0A1428"/>
<path d="M21.8549 10.4125V12.7599C21.8549 15.9318 20.8601 18.539 18.9034 20.5217C16.9467 22.5045 14.4222 23.4792 11.3694 23.4792C8.12512 23.4792 5.39369 22.3568 3.24992 20.1428C3.04963 19.9379 2.86034 19.7258 2.68866 19.5137C0.923726 17.4669 -0.0395843 14.759 0.00124694 11.9591C-0.0206295 10.4213 0.254284 8.89542 0.80839 7.47923C1.3625 6.06304 2.18359 4.78772 3.2191 3.73491C5.34526 1.50906 8.00847 0.379448 11.1427 0.379448C13.0293 0.357948 14.8916 0.841779 16.5637 1.78788C17.7391 2.44574 18.7855 3.34408 19.6451 4.43317L15.6415 7.99358C15.201 7.38967 14.6406 6.90095 14.0018 6.56369C13.1067 6.0785 12.1171 5.8333 11.1163 5.84875C9.38849 5.84875 8.01287 6.41594 6.91017 7.58129C5.80747 8.74665 5.27924 10.1741 5.27924 11.9591C5.27924 13.5725 5.71943 14.8904 6.66366 15.9747C6.74805 16.0793 6.8377 16.1787 6.93218 16.2726C8.05249 17.4237 9.51175 17.9837 11.398 17.9837C12.7736 17.9837 13.9203 17.6667 14.7985 17.0495C15.3574 16.6645 15.8242 16.1419 16.161 15.5243H10.9688V10.4125H21.8549Z" fill="#0A1428"/>
<path d="M30.6788 4.67386C31.1207 3.37242 31.98 2.28637 33.0999 1.6139C34.2551 0.9271 35.5547 0.57571 36.8725 0.59392V6.71382C35.3718 6.49167 33.8471 6.8531 32.5695 7.73381C31.3061 8.61239 30.6744 10.0717 30.6744 12.1116V22.2686H25.4141V1.0205H30.6744L30.6788 4.67386Z" fill="#0A1428"/>
<path d="M56.9344 19.6114C54.842 21.78 52.2874 22.8636 49.2706 22.862C46.2537 22.8604 43.7079 21.7769 41.6331 19.6114C40.6267 18.5942 39.8289 17.3594 39.2916 15.9869C38.7543 14.6144 38.4895 13.135 38.5143 11.6445C38.4893 10.1537 38.7541 8.67388 39.2914 7.30099C39.8287 5.9281 40.6265 4.69284 41.6331 3.67533C43.7079 1.50826 46.2537 0.424728 49.2706 0.424728C52.2874 0.424728 54.842 1.50826 56.9344 3.67533C57.9466 4.68925 58.7495 5.92335 59.2904 7.29673C59.8313 8.6701 60.098 10.1518 60.0731 11.6445C60.0977 13.1369 59.8308 14.6181 59.2899 15.9911C58.7491 17.364 57.9464 18.5977 56.9344 19.6114ZM45.3352 15.8508C46.3814 16.9629 47.6932 17.519 49.2706 17.519C50.0003 17.5413 50.7269 17.4052 51.4073 17.1187C52.0877 16.8322 52.7083 16.4011 53.2324 15.8508C53.755 15.3095 54.1667 14.6554 54.4408 13.9308C54.715 13.2061 54.8454 12.4272 54.8237 11.6445C54.8457 10.8615 54.7154 10.0821 54.4413 9.35705C54.1671 8.632 53.7553 7.97746 53.2324 7.43592C52.708 6.88609 52.0873 6.45528 51.407 6.1688C50.7266 5.88232 50.0003 5.74596 49.2706 5.76773C47.6932 5.76773 46.3814 6.32379 45.3352 7.43592C44.289 8.54805 43.7659 9.95093 43.7659 11.6445C43.7437 12.4252 43.8717 13.2023 44.1419 13.9264C44.412 14.6506 44.8184 15.3059 45.3352 15.8508Z" fill="#0A1428"/>
<path d="M81.5593 19.6114C79.4669 21.78 76.9122 22.8636 73.8954 22.862C70.8786 22.8604 68.3306 21.7769 66.2514 19.6114C65.2445 18.5946 64.4464 17.3598 63.9091 15.9873C63.3718 14.6147 63.1072 13.1351 63.1325 11.6445C63.107 10.1536 63.3715 8.67362 63.9088 7.30064C64.4462 5.92766 65.2443 4.69247 66.2514 3.67533C68.3276 1.50826 70.8756 0.424728 73.8954 0.424728C76.9152 0.424728 79.4698 1.50826 81.5593 3.67533C82.5718 4.68913 83.375 5.92315 83.9162 7.29652C84.4575 8.66989 84.7246 10.1516 84.7001 11.6445C84.7243 13.1371 84.457 14.6184 83.9158 15.9913C83.3745 17.3642 82.5715 18.5978 81.5593 19.6114ZM69.96 15.8508C71.0077 16.9629 72.3195 17.519 73.8954 17.519C74.6251 17.5407 75.3515 17.4044 76.0318 17.1179C76.7122 16.8314 77.3328 16.4006 77.8572 15.8508C78.3792 15.3091 78.7904 14.6549 79.0641 13.9303C79.3378 13.2057 79.4681 12.427 79.4463 11.6445C79.4682 10.8617 79.3381 10.0826 79.0644 9.35759C78.7906 8.63262 78.3794 7.97795 77.8572 7.43592C77.3325 6.88653 76.7119 6.456 76.0316 6.16955C75.3513 5.88311 74.6251 5.7465 73.8954 5.76773C73.1697 5.74617 72.4474 5.88273 71.7713 6.1693C71.0953 6.45587 70.4793 6.8866 69.96 7.43592C68.9153 8.54805 68.3922 9.95093 68.3907 11.6445C68.3685 12.4252 68.4965 13.2023 68.7667 13.9264C69.0369 14.6506 69.4433 15.3059 69.96 15.8508Z" fill="#0A1428"/>
<path d="M111.316 0.424728C113.654 0.424728 115.672 1.21831 117.074 2.80787C118.476 4.39742 119.174 6.51841 119.174 9.18276V31.4055H113.762V9.56645C113.762 8.29544 113.463 7.30406 112.866 6.59229C112.269 5.88053 111.426 5.52623 110.337 5.52941C109.14 5.52941 108.211 5.94169 107.544 6.76149C106.877 7.58129 106.545 8.77525 106.545 10.3362V22.2781H101.28V9.56645C101.28 8.29544 100.98 7.30406 100.382 6.59229C99.7831 5.88053 98.9408 5.52623 97.855 5.52941C96.6811 5.52941 95.7501 5.9401 95.0619 6.76149C94.3738 7.58288 94.0275 8.77445 94.0231 10.3362V22.2781H88.7627V1.02528H94.0231V3.28449C95.2498 1.37798 97.1404 0.424728 99.695 0.424728C102.19 0.424728 104.038 1.44471 105.242 3.48468C106.599 1.44471 108.624 0.424728 111.316 0.424728Z" fill="#0A1428"/>
<path d="M122.649 54.9057C118.848 54.9057 116.266 51.1093 114.439 47.7753L118.621 45.0824C120.712 48.8954 121.991 49.658 122.693 49.6318C123.712 49.5937 126.719 48.1137 132.644 35.2805L137 37.6398C131.497 49.5675 127.267 54.7293 122.871 54.9009C122.799 54.9057 122.724 54.9057 122.649 54.9057Z" fill="#F24611"/>
<path d="M122.599 54.9486C120.662 54.8675 119.883 52.3629 119.592 50.137C119.568 49.9916 119.555 49.8463 119.542 49.7009C119.482 49.4244 119.445 49.1194 119.445 49.1194L119.179 46.5242V28.9008H113.76V42.7231C113.773 42.7636 113.773 42.8017 113.786 42.8422C113.87 45.7687 114.345 48.0851 115.052 49.8415C115.793 51.7266 116.813 52.9777 117.876 53.6545C117.98 53.7259 118.09 53.7873 118.204 53.838C118.237 53.8663 118.274 53.8896 118.314 53.9071C119.044 54.2741 119.777 54.7436 120.565 54.8795C121.326 55.0122 122.101 55.0354 122.867 54.9486C122.778 54.9545 122.688 54.9545 122.599 54.9486Z" fill="#0A1428"/>
<path d="M132.891 35.5045L129.266 33.5861L139.78 26.4272L140 39.4415L137.196 37.8352L132.891 35.5045Z" fill="#F24611"/>
</svg>
