<svg width="53" height="56" viewBox="0 0 53 56" fill="none" xmlns="http://www.w3.org/2000/svg">
<path d="M26.8 53.9H5.5C3.6 53.9 2 52.3 2 50.4V12.6C2 10.7 3.6 9.1 5.5 9.1H9V9.4C9 11.3 10.6 12.9 12.5 12.9H25.3C27.2 12.9 28.8 11.3 28.8 9.4V9.1H32.3C34.2 9.1 35.8 10.7 35.8 12.6V21.3C35.8 21.9 36.2 22.3 36.8 22.3C37.3 22.3 37.8 21.9 37.8 21.3V12.6C37.8 9.6 35.3 7.1 32.3 7.1H28.8V6.4C28.8 5.3 27.9 4.4 26.8 4.4H24.3C24.1 3.5 23.6 2.6 22.8 1.7C21.7 0.7 20.4 0 19 0H18.9C17.4 0 16 0.6 15 1.6C14.2 2.4 13.7 3.4 13.5 4.4H11C9.9 4.4 9 5.3 9 6.4V7.1H5.5C2.5 7.1 0 9.6 0 12.6V50.4C0 53.4 2.5 55.9 5.5 55.9H26.8C27.4 55.9 27.8 55.5 27.8 54.9C27.8 54.3 27.3 53.9 26.8 53.9ZM11 6.4H15.6C15.5 6.1 15.5 5.8 15.5 5.4C15.5 3.5 17.1 1.9 19 1.9C19.9 1.9 20.7 2.4 21.3 3C22.5 4.3 22.5 5.4 22.2 6.3H26.8V7V9V9.3C26.8 10.1 26.1 10.8 25.3 10.8H12.5C11.7 10.8 11 10.1 11 9.3V9.1V7.1V6.4Z" fill="white"/>
<path d="M29.4998 21.3C29.4998 20.7 29.0998 20.3 28.4998 20.3H9.7998C9.1998 20.3 8.7998 20.7 8.7998 21.3C8.7998 21.9 9.1998 22.3 9.7998 22.3H28.3998C28.9998 22.3 29.4998 21.9 29.4998 21.3Z" fill="white"/>
<path d="M23 29C23 28.4 22.6 28 22 28H9.5C8.9 28 8.5 28.4 8.5 29C8.5 29.6 8.9 30 9.5 30H22C22.5 30 23 29.6 23 29Z" fill="white"/>
<path d="M9.2998 35.7C8.6998 35.7 8.2998 36.1 8.2998 36.7C8.2998 37.3 8.6998 37.7 9.2998 37.7H17.3998C17.9998 37.7 18.3998 37.3 18.3998 36.7C18.3998 36.1 17.9998 35.7 17.3998 35.7H9.2998Z" fill="white"/>
<path d="M38.3002 26.1C30.2002 26.1 23.7002 32.7 23.7002 40.7C23.7002 48.8 30.3002 55.3 38.3002 55.3C46.4002 55.3 52.9002 48.7 52.9002 40.7C52.9002 32.7 46.4002 26.1 38.3002 26.1ZM38.3002 53.4C31.3002 53.4 25.7002 47.7 25.7002 40.8C25.7002 33.8 31.3002 28.2 38.3002 28.2C45.3002 28.2 50.9002 33.9 50.9002 40.8C50.9002 47.7 45.3002 53.4 38.3002 53.4Z" fill="white"/>
<path d="M44.6004 35.6L36.6004 44.6L36.5004 44.7H36.4004L33.1004 41.4C32.7004 41 32.1004 41 31.7004 41.4C31.3004 41.8 31.3004 42.4 31.7004 42.8L35.0004 46C35.4004 46.4 36.0004 46.6 36.5004 46.6C36.5004 46.6 36.5004 46.6 36.6004 46.6C37.2004 46.6 37.8004 46.3 38.2004 45.9L46.2004 36.9C46.6004 36.5 46.5004 35.9 46.1004 35.5C45.6004 35.2 45.0004 35.2 44.6004 35.6Z" fill="white"/>
</svg>
