<svg width="140" height="55" viewBox="0 0 140 55" fill="none" xmlns="http://www.w3.org/2000/svg">
<path d="M6.46988 35.6739C6.46988 36.249 6.83672 36.7145 7.57038 37.0704C8.42637 37.4776 9.31582 37.7968 10.227 38.0237C11.2882 38.303 12.3339 38.6475 13.359 39.0556C14.4049 39.4727 15.3247 40.1933 16.0178 41.1384C16.7515 42.1123 17.1183 43.3293 17.1183 44.7894C17.1183 46.9946 16.3281 48.6914 14.7478 49.8798C13.1675 51.0682 11.1969 51.6616 8.83595 51.66C4.60564 51.66 1.72087 49.9568 0.181641 46.5505L4.80373 43.8433C5.40974 45.7069 6.75601 46.6379 8.84256 46.6363C10.7369 46.6363 11.6848 46.0207 11.6862 44.7894C11.6862 44.2174 11.3194 43.7519 10.5857 43.3929C9.72771 42.9915 8.83875 42.6725 7.92915 42.4396C6.86689 42.147 5.82114 41.7881 4.79713 41.3648C3.76381 40.9445 2.84859 40.2417 2.14053 39.3249C1.40686 38.3954 1.04003 37.2285 1.04003 35.824C1.04003 33.7062 1.78837 32.038 3.28504 30.8194C4.78172 29.6009 6.64303 28.9924 8.86897 28.994C10.461 28.976 12.0324 29.3854 13.4426 30.1855C14.7982 30.9561 15.9257 32.1249 16.6957 33.5577L12.1551 36.1029C11.4977 34.6444 10.3972 33.9143 8.85356 33.9128C8.25277 33.8876 7.65829 34.0533 7.14339 34.3894C6.93568 34.5192 6.76375 34.7067 6.64535 34.9325C6.52695 35.1583 6.46638 35.4143 6.46988 35.6739Z" fill="white"/>
<path d="M30.4496 51.6504C27.3462 51.6504 24.7571 50.5629 22.6823 48.3879C20.6075 46.2129 19.5708 43.5239 19.5723 40.321C19.5723 37.1133 20.6089 34.4212 22.6823 32.2446C24.7556 30.068 27.3447 28.9804 30.4496 28.982C32.3663 28.9572 34.2556 29.4756 35.9301 30.4858C37.5083 31.4162 38.8069 32.8173 39.6718 34.5228L35.0981 37.3135C34.6838 36.423 34.03 35.6893 33.2228 35.2092C32.364 34.6858 31.3932 34.4163 30.4078 34.4275C28.8142 34.4275 27.4937 34.9788 26.446 36.0814C25.3983 37.184 24.8789 38.5972 24.8877 40.321C24.8659 41.0966 24.9932 41.8686 25.2615 42.5882C25.5297 43.3077 25.9331 43.9591 26.446 44.501C27.4922 45.602 28.8128 46.1533 30.4078 46.1549C31.4054 46.174 32.3908 45.9146 33.2691 45.4019C34.0773 44.9332 34.7322 44.2058 35.1443 43.319L39.7664 46.0691C38.8481 47.7675 37.5245 49.1669 35.9345 50.1205C34.2628 51.1453 32.3705 51.6732 30.4496 51.6504Z" fill="white"/>
<path d="M54.51 28.5173V37.1324H48.0831V28.5173H42.6797V51.6171H48.0831V42.6303H54.51V51.6171H59.8849V28.5173H54.51Z" fill="white"/>
<path d="M82.1539 48.3665C80.0365 50.5558 77.454 51.6505 74.4064 51.6505C71.3587 51.6505 68.7836 50.5558 66.6809 48.3665C65.6827 47.322 64.889 46.0706 64.3469 44.687C63.8048 43.3033 63.5254 41.8157 63.5254 40.3127C63.5254 38.8097 63.8048 37.322 64.3469 35.9384C64.889 34.5548 65.6827 33.3034 66.6809 32.2589C68.7821 30.0696 71.3573 28.9749 74.4064 28.9749C77.4555 28.9749 80.038 30.0696 82.1539 32.2589C83.1567 33.3005 83.9547 34.5509 84.4998 35.9349C85.0449 37.3189 85.3259 38.808 85.3259 40.3127C85.3259 41.8173 85.0449 43.3064 84.4998 44.6905C83.9547 46.0745 83.1567 47.3249 82.1539 48.3665ZM70.4314 44.5654C70.957 45.1175 71.5797 45.5497 72.2625 45.8363C72.9453 46.1228 73.6744 46.2579 74.4064 46.2336C75.1415 46.2566 75.8735 46.1209 76.5597 45.8345C77.246 45.5481 77.8727 45.1167 78.4034 44.5654C79.4332 43.4307 80.0102 41.9035 80.0102 40.3127C80.0102 38.7218 79.4332 37.1946 78.4034 36.06C77.8727 35.5087 77.246 35.0772 76.5597 34.7908C75.8735 34.5044 75.1415 34.3688 74.4064 34.3918C72.8128 34.3918 71.4878 34.9478 70.4314 36.06C69.3749 37.1721 68.8459 38.5924 68.8444 40.321C68.8444 42.0321 69.3734 43.4469 70.4314 44.5654Z" fill="white"/>
<path d="M107.041 48.3665C104.925 50.5558 102.342 51.6505 99.2931 51.6505C96.244 51.6505 93.6688 50.5558 91.5676 48.3665C90.5695 47.322 89.7757 46.0706 89.2336 44.687C88.6915 43.3033 88.4121 41.8157 88.4121 40.3127C88.4121 38.8097 88.6915 37.322 89.2336 35.9384C89.7757 34.5548 90.5695 33.3034 91.5676 32.2589C93.6703 30.0696 96.2454 28.9749 99.2931 28.9749C102.341 28.9749 104.923 30.0696 107.041 32.2589C108.043 33.3005 108.841 34.5509 109.386 35.9349C109.932 37.3189 110.213 38.808 110.213 40.3127C110.213 41.8173 109.932 43.3064 109.386 44.6905C108.841 46.0745 108.043 47.3249 107.041 48.3665ZM95.3181 44.5654C95.8438 45.1174 96.4665 45.5495 97.1493 45.8361C97.8321 46.1226 98.5611 46.2578 99.2931 46.2336C100.028 46.2567 100.76 46.1211 101.447 45.8347C102.133 45.5483 102.759 45.1168 103.29 44.5654C104.32 43.4307 104.897 41.9035 104.897 40.3127C104.897 38.7218 104.32 37.1946 103.29 36.06C102.76 35.5084 102.133 35.0769 101.447 34.7905C100.76 34.504 100.028 34.3685 99.2931 34.3918C97.701 34.3918 96.376 34.9478 95.3181 36.06C94.2601 37.1721 93.7312 38.5924 93.7312 40.321C93.7312 42.0321 94.2601 43.4469 95.3181 44.5654Z" fill="white"/>
<path d="M21.8549 10.0337V12.3811C21.8549 15.5531 20.8601 18.1602 18.9034 20.143C16.9467 22.1257 14.4222 23.1005 11.3694 23.1005C8.12512 23.1005 5.39369 21.978 3.24992 19.7641C3.04963 19.5591 2.86034 19.347 2.68866 19.1349C0.923726 17.0882 -0.0395843 14.3802 0.00124694 11.5804C-0.0206295 10.0425 0.254284 8.51666 0.80839 7.10047C1.3625 5.68428 2.18359 4.40896 3.2191 3.35615C5.34526 1.13029 8.00847 0.000686491 11.1427 0.000686491C13.0293 -0.0208138 14.8916 0.463017 16.5637 1.40912C17.7391 2.06698 18.7855 2.96531 19.6451 4.05441L15.6415 7.61482C15.201 7.01091 14.6406 6.52219 14.0018 6.18493C13.1067 5.69974 12.1171 5.45454 11.1163 5.46999C9.38849 5.46999 8.01287 6.03718 6.91017 7.20253C5.80747 8.36789 5.27924 9.79539 5.27924 11.5804C5.27924 13.1937 5.71943 14.5116 6.66366 15.5959C6.74805 15.7005 6.8377 15.8 6.93218 15.8938C8.05249 17.0449 9.51175 17.6049 11.398 17.6049C12.7736 17.6049 13.9203 17.288 14.7985 16.6707C15.3574 16.2857 15.8242 15.7631 16.161 15.1455H10.9688V10.0337H21.8549Z" fill="white"/>
<path d="M30.6788 4.2951C31.1207 2.99366 31.98 1.90762 33.0999 1.23515C34.2551 0.548347 35.5547 0.196957 36.8725 0.215166V6.33507C35.3718 6.11292 33.8471 6.47435 32.5695 7.35505C31.3061 8.23364 30.6744 9.69291 30.6744 11.7329V21.8898H25.4141V0.641748H30.6744L30.6788 4.2951Z" fill="white"/>
<path d="M56.9335 19.2326C54.841 21.4013 52.2864 22.4848 49.2696 22.4832C46.2528 22.4816 43.7069 21.3981 41.6321 19.2326C40.6257 18.2155 39.828 16.9806 39.2907 15.6081C38.7534 14.2357 38.4885 12.7562 38.5133 11.2658C38.4884 9.77498 38.7531 8.29513 39.2904 6.92224C39.8277 5.54935 40.6255 4.31409 41.6321 3.29658C43.7069 1.12951 46.2528 0.0459747 49.2696 0.0459747C52.2864 0.0459747 54.841 1.12951 56.9335 3.29658C57.9457 4.3105 58.7485 5.54459 59.2894 6.91797C59.8303 8.29135 60.097 9.773 60.0721 11.2658C60.0967 12.7582 59.8298 14.2394 59.289 15.6123C58.7481 16.9853 57.9454 18.219 56.9335 19.2326ZM45.3342 15.472C46.3804 16.5842 47.6922 17.1402 49.2696 17.1402C49.9994 17.1625 50.7259 17.0264 51.4063 16.7399C52.0867 16.4534 52.7073 16.0223 53.2314 15.472C53.754 14.9308 54.1657 14.2766 54.4399 13.552C54.714 12.8274 54.8444 12.0485 54.8227 11.2658C54.8447 10.4827 54.7145 9.70334 54.4403 8.97829C54.1662 8.25324 53.7543 7.59871 53.2314 7.05717C52.707 6.50733 52.0864 6.07652 51.406 5.79005C50.7257 5.50357 49.9993 5.36721 49.2696 5.38897C47.6922 5.38897 46.3804 5.94504 45.3342 7.05717C44.288 8.1693 43.7649 9.57218 43.7649 11.2658C43.7427 12.0464 43.8707 12.8235 44.1409 13.5477C44.4111 14.2718 44.8175 14.9272 45.3342 15.472Z" fill="white"/>
<path d="M81.5593 19.2326C79.4669 21.4013 76.9122 22.4848 73.8954 22.4832C70.8786 22.4816 68.3306 21.3981 66.2514 19.2326C65.2445 18.2159 64.4464 16.9811 63.9091 15.6085C63.3718 14.2359 63.1072 12.7563 63.1325 11.2658C63.107 9.77489 63.3715 8.29486 63.9088 6.92189C64.4462 5.54891 65.2443 4.31372 66.2514 3.29658C68.3276 1.12951 70.8756 0.0459747 73.8954 0.0459747C76.9152 0.0459747 79.4698 1.12951 81.5593 3.29658C82.5718 4.31038 83.375 5.5444 83.9162 6.91776C84.4575 8.29113 84.7246 9.77284 84.7001 11.2658C84.7243 12.7583 84.457 14.2396 83.9158 15.6125C83.3745 16.9855 82.5715 18.2191 81.5593 19.2326ZM69.96 15.472C71.0077 16.5842 72.3195 17.1402 73.8954 17.1402C74.6251 17.162 75.3515 17.0256 76.0318 16.7392C76.7122 16.4527 77.3328 16.0219 77.8572 15.472C78.3792 14.9304 78.7904 14.2761 79.0641 13.5515C79.3378 12.827 79.4681 12.0483 79.4463 11.2658C79.4682 10.4829 79.3381 9.70381 79.0644 8.97884C78.7906 8.25387 78.3794 7.59919 77.8572 7.05717C77.3325 6.50777 76.7119 6.07725 76.0316 5.7908C75.3513 5.50435 74.6251 5.36774 73.8954 5.38897C73.1697 5.36741 72.4474 5.50398 71.7713 5.79054C71.0953 6.07711 70.4793 6.50785 69.96 7.05717C68.9153 8.1693 68.3922 9.57218 68.3907 11.2658C68.3685 12.0464 68.4965 12.8235 68.7667 13.5477C69.0369 14.2718 69.4433 14.9272 69.96 15.472Z" fill="white"/>
<path d="M111.315 0.0459747C113.653 0.0459747 115.671 0.83956 117.073 2.42911C118.475 4.01867 119.173 6.13966 119.173 8.80401V31.0268H113.761V9.18769C113.761 7.91669 113.462 6.9253 112.865 6.21354C112.268 5.50177 111.425 5.14748 110.336 5.15066C109.139 5.15066 108.21 5.56294 107.543 6.38274C106.876 7.20254 106.544 8.39649 106.544 9.95745V21.8994H101.279V9.18769C101.279 7.91669 100.979 6.9253 100.381 6.21354C99.7821 5.50177 98.9399 5.14748 97.854 5.15066C96.6802 5.15066 95.7491 5.56135 95.061 6.38274C94.3728 7.20413 94.0265 8.3957 94.0221 9.95745V21.8994H88.7617V0.646526H94.0221V2.90574C95.2488 0.99923 97.1394 0.0459747 99.6941 0.0459747C102.189 0.0459747 104.037 1.06596 105.241 3.10592C106.598 1.06596 108.623 0.0459747 111.315 0.0459747Z" fill="white"/>
<path d="M122.649 54.5269C118.848 54.5269 116.266 50.7306 114.439 47.3966L118.621 44.7036C120.712 48.5166 121.991 49.2793 122.693 49.253C123.712 49.2149 126.719 47.735 132.644 34.9018L137 37.2611C131.497 49.1887 127.267 54.3506 122.871 54.5222C122.799 54.5269 122.724 54.5269 122.649 54.5269Z" fill="#F24611"/>
<path d="M122.599 54.5698C120.662 54.4888 119.883 51.9841 119.592 49.7583C119.568 49.6129 119.555 49.4675 119.542 49.3221C119.482 49.0457 119.445 48.7407 119.445 48.7407L119.179 46.1454V28.5221H113.76V42.3443C113.773 42.3848 113.773 42.4229 113.786 42.4635C113.87 45.39 114.345 47.7064 115.052 49.4627C115.793 51.3478 116.813 52.599 117.876 53.2758C117.98 53.3472 118.09 53.4086 118.204 53.4593C118.237 53.4876 118.274 53.5108 118.314 53.5284C119.044 53.8954 119.777 54.3649 120.565 54.5007C121.326 54.6334 122.101 54.6567 122.867 54.5698C122.778 54.5758 122.688 54.5758 122.599 54.5698Z" fill="white"/>
<path d="M132.891 35.1258L129.266 33.2074L139.78 26.0484L140 39.0627L137.196 37.4565L132.891 35.1258Z" fill="#F24611"/>
</svg>
